<svg xmlns="http://www.w3.org/2000/svg" data-name="Layer 1" viewBox="0 0 100 125" x="0px" y="0px"><title>37</title><g data-name="Group"><path data-name="Compound Path" d="M86.8,73.6a13.6,13.6,0,1,0-20.2,0A20.9,20.9,0,0,0,55.8,91.9v1.7a4,4,0,0,0,4,4H93.5a4,4,0,0,0,4-4V91.9A20.9,20.9,0,0,0,86.8,73.6ZM76.7,58.9A5.6,5.6,0,1,1,71,64.5,5.6,5.6,0,0,1,76.7,58.9ZM64,89.5a12.9,12.9,0,0,1,25.3,0Z"/><path data-name="Compound Path" d="M6.5,49.1H40.2a4,4,0,0,0,4-4V43.5A20.9,20.9,0,0,0,33.4,25.2a13.6,13.6,0,1,0-20.2,0A20.9,20.9,0,0,0,2.5,43.5v1.7A4,4,0,0,0,6.5,49.1ZM23.3,10.5a5.6,5.6,0,1,1-5.6,5.6A5.6,5.6,0,0,1,23.3,10.5Zm0,20.1A12.9,12.9,0,0,1,36,41.1H10.7A12.9,12.9,0,0,1,23.3,30.6Z"/><path data-name="Path" d="M86,49a4,4,0,0,0,4-4V27A14,14,0,0,0,76,13H62.7L68,7.7A4,4,0,0,0,62.3,2L50.2,14.2h0l-.5.6-.2.3-.2.4v.7a4,4,0,0,0,0,1.6v.7l.2.4.2.3.5.6h0L62.3,32A4,4,0,0,0,68,26.3L62.7,21H76a6,6,0,0,1,6,6V45A4,4,0,0,0,86,49Z"/><path data-name="Path" d="M50.9,82.2v-.7l-.3-.5v-.2l-.5-.6L37.7,68A4,4,0,1,0,32,73.7L37.3,79H24a6,6,0,0,1-6-6V55a4,4,0,0,0-8,0V73A14,14,0,0,0,24,87H37.3L32,92.3A4,4,0,1,0,37.7,98L49.8,85.8h0l.5-.6V85l.3-.5v-.7a4,4,0,0,0,0-1.6Z"/></g><text x="0" y="115" fill="#000000" font-size="5px" font-weight="bold" font-family="'Helvetica Neue', Helvetica, Arial-Unicode, Arial, Sans-serif">Created by Prithvi</text><text x="0" y="120" fill="#000000" font-size="5px" font-weight="bold" font-family="'Helvetica Neue', Helvetica, Arial-Unicode, Arial, Sans-serif">from the Noun Project</text></svg>