<svg xmlns="http://www.w3.org/2000/svg" data-name="Layer 1" viewBox="0 0 100 125" x="0px" y="0px"><title>01</title><g data-name="Group"><polygon data-name="Path" points="62.9 32.7 60.6 29.5 45.3 40.7 40.1 34.5 37.1 37.1 44.7 46.1 62.9 32.7"/><path data-name="Compound Path" d="M24.9,85.4l6.3,10.3L45.7,67.1A6.1,6.1,0,0,0,50,69.3a6.1,6.1,0,0,0,4.3-2.2L68.8,95.7l6.3-10.3,12.1,1L71.8,56.1l.9-.2c2-.4,4.3-1,5.4-2.9s.4-4.1-.2-6a7.6,7.6,0,0,1-.6-2.9A7.7,7.7,0,0,1,79.2,42c1.5-1.4,3.2-3,3.2-5.3s-1.7-3.9-3.2-5.3a7.7,7.7,0,0,1-1.8-2.1,7.6,7.6,0,0,1,.6-2.9c.6-1.9,1.3-4.1.2-6s-3.4-2.4-5.4-2.9a7.6,7.6,0,0,1-2.7-.9,7.6,7.6,0,0,1-.9-2.7c-.5-2-1-4.3-2.9-5.4s-4.1-.4-6,.2a7.6,7.6,0,0,1-2.9.6,7.7,7.7,0,0,1-2.1-1.9C53.9,6,52.3,4.3,50,4.3S46.1,6,44.7,7.5a7.7,7.7,0,0,1-2.1,1.8,7.6,7.6,0,0,1-2.9-.6c-1.9-.6-4.1-1.3-6-.2S31.3,12,30.9,14a7.6,7.6,0,0,1-.9,2.7,7.6,7.6,0,0,1-2.7.9c-2,.4-4.3,1-5.4,2.9s-.4,4.1.2,6a7.6,7.6,0,0,1,.6,2.9,7.7,7.7,0,0,1-1.8,2.1c-1.5,1.4-3.2,3-3.2,5.3s1.7,3.9,3.2,5.3a7.7,7.7,0,0,1,1.9,2.1A7.6,7.6,0,0,1,22,47c-.6,1.9-1.3,4.1-.2,6s3.4,2.4,5.4,2.9l.9.2L12.8,86.4Zm6,2.1L27,81.2l-7.4.6L30.9,59.6c.4,2,1,4.2,2.9,5.3s4.1.4,6-.2a7.6,7.6,0,0,1,2.9-.6h0ZM73,81.2l-3.9,6.3L57.3,64.2h0a7.6,7.6,0,0,1,2.9.6c1.9.6,4.1,1.3,6,.2s2.4-3.3,2.9-5.3L80.4,81.8ZM25.3,51c-.2-.4.3-2,.5-2.9s1.1-3.4.6-5.1-1.7-2.8-3-4-2-1.8-2-2.3,1.2-1.6,2-2.3,2.6-2.4,3-4-.1-3.5-.6-5.1-.8-2.5-.5-2.8,1.9-.8,2.8-1,3.5-.8,4.7-2,1.6-3,2-4.7.6-2.6,1-2.8,2,.3,2.8.5,3.4,1.1,5.1.6,2.8-1.7,4-3,1.8-2,2.3-2,1.6,1.2,2.3,2,2.4,2.6,4,3,3.5-.1,5.1-.6,2.5-.8,2.8-.5.8,1.9,1,2.8.8,3.5,2,4.7,3,1.6,4.7,2,2.5.6,2.8,1-.3,2-.5,2.9-1.1,3.4-.6,5.1,1.7,2.8,3,4,2,1.8,2,2.3-1.2,1.6-2,2.3-2.6,2.4-3,4,.1,3.5.6,5.1.8,2.5.5,2.8-1.9.8-2.8,1-3.5.8-4.7,2-1.6,3-2,4.7-.6,2.6-1,2.8-2-.3-2.8-.5-3.4-1.1-5.1-.6-2.8,1.7-4,3-1.8,2-2.3,2-1.6-1.2-2.3-2-2.4-2.6-4-3l-1.3-.2a13.1,13.1,0,0,0-3.8.8c-.9.3-2.5.8-2.9.5s-.8-1.9-1-2.8-.8-3.5-2-4.7-3-1.6-4.7-2S25.6,51.4,25.3,51Z"/></g><text x="0" y="115" fill="#000000" font-size="5px" font-weight="bold" font-family="'Helvetica Neue', Helvetica, Arial-Unicode, Arial, Sans-serif">Created by Bharat</text><text x="0" y="120" fill="#000000" font-size="5px" font-weight="bold" font-family="'Helvetica Neue', Helvetica, Arial-Unicode, Arial, Sans-serif">from the Noun Project</text></svg>