<svg xmlns="http://www.w3.org/2000/svg" xmlns:xlink="http://www.w3.org/1999/xlink" version="1.1" x="0px" y="0px" viewBox="0 0 48 60" enable-background="new 0 0 48 48" xml:space="preserve"><g><path fill="#000000" d="M24,16.3c-4.2,0-7.7,3.4-7.7,7.7c0,4.2,3.4,7.7,7.7,7.7c4.2,0,7.7-3.4,7.7-7.7C31.7,19.8,28.2,16.3,24,16.3   z M24,29.7c-3.1,0-5.7-2.6-5.7-5.7c0-3.1,2.5-5.7,5.7-5.7c3.1,0,5.7,2.6,5.7,5.7C29.7,27.1,27.1,29.7,24,29.7z"/><path fill="#000000" d="M42.5,25.7v-3.3c0-0.5-0.4-0.9-0.8-1l-2-0.3c-0.4-2.1-1.3-4.2-2.5-6l1.2-1.7c0.3-0.4,0.2-0.9-0.1-1.3   l-2.3-2.3c-0.3-0.3-0.9-0.4-1.3-0.1l-1.7,1.2c-1.8-1.2-3.8-2.1-6-2.5l-0.3-2c-0.1-0.5-0.5-0.8-1-0.8h-3.3c-0.5,0-0.9,0.4-1,0.8   l-0.3,2c-2.1,0.4-4.2,1.3-6,2.5l-1.7-1.2c-0.4-0.3-0.9-0.2-1.3,0.1l-2.3,2.3c-0.3,0.3-0.4,0.9-0.1,1.3l1.2,1.7   c-1.2,1.8-2.1,3.8-2.5,6l-2,0.3c-0.5,0.1-0.8,0.5-0.8,1v3.3c0,0.5,0.4,0.9,0.8,1l2,0.3c0.4,2.1,1.3,4.2,2.5,6l-1.2,1.7   c-0.3,0.4-0.2,0.9,0.1,1.3l2.3,2.3c0.3,0.3,0.9,0.4,1.3,0.1l1.7-1.2c1.8,1.2,3.8,2.1,6,2.5l0.3,2c0.1,0.5,0.5,0.8,1,0.8h3.3   c0.5,0,0.9-0.4,1-0.8l0.3-2c2.1-0.4,4.2-1.3,6-2.5l1.7,1.2c0.4,0.3,0.9,0.2,1.3-0.1l2.3-2.3c0.3-0.3,0.4-0.9,0.1-1.3l-1.2-1.7   c1.2-1.8,2.1-3.8,2.5-6l2-0.3C42.1,26.6,42.5,26.1,42.5,25.7z M37.8,25.9c-0.3,2.3-1.2,4.5-2.6,6.4c-0.3,0.3-0.3,0.8,0,1.2l1.1,1.6   l-1.1,1.1l-1.6-1.1c-0.4-0.3-0.8-0.3-1.2,0c-1.9,1.4-4.1,2.3-6.4,2.6c-0.4,0.1-0.8,0.4-0.8,0.8l-0.3,1.9h-1.6l-0.3-1.9   c-0.1-0.4-0.4-0.8-0.8-0.8c-2.3-0.3-4.5-1.2-6.4-2.6c-0.3-0.3-0.8-0.3-1.2,0l-1.6,1.1l-1.1-1.1l1.1-1.6c0.3-0.4,0.3-0.8,0-1.2   c-1.4-1.9-2.3-4.1-2.6-6.4c-0.1-0.4-0.4-0.8-0.8-0.8l-1.9-0.3v-1.6l1.9-0.3c0.4-0.1,0.8-0.4,0.8-0.8c0.3-2.3,1.2-4.5,2.6-6.4   c0.3-0.3,0.3-0.8,0-1.2l-1.1-1.6l1.1-1.1l1.6,1.1c0.4,0.3,0.8,0.3,1.2,0c1.9-1.4,4.1-2.3,6.4-2.6c0.4-0.1,0.8-0.4,0.8-0.8l0.3-1.9   h1.6l0.3,1.9c0.1,0.4,0.4,0.8,0.8,0.8c2.3,0.3,4.5,1.2,6.4,2.6c0.3,0.3,0.8,0.3,1.2,0l1.6-1.1l1.1,1.1l-1.1,1.6   c-0.3,0.4-0.3,0.8,0,1.2c1.4,1.9,2.3,4.1,2.6,6.4c0.1,0.4,0.4,0.8,0.8,0.8l1.9,0.3v1.6l-1.9,0.3C38.2,25.2,37.8,25.5,37.8,25.9z"/><path fill="#000000" d="M41,7c-7.7-7.7-19.7-9.2-29-3.8l0.7-1.8c0.2-0.5-0.1-1.1-0.6-1.3c-0.5-0.2-1.1,0.1-1.3,0.6L9.1,5.3   C8.9,6.1,9.3,6.5,10,6.7l5,0.2c0,0,0,0,0,0c0.5,0,1-0.4,1-1c0-0.5-0.4-1-1-1l-1.8-0.1C21.7,0,32.5,1.4,39.6,8.4   c7.8,7.8,8.6,20.2,1.9,29c-0.3,0.4-0.3,1.1,0.2,1.4c0.6,0.3,1,0.2,1.4-0.2C50.4,29.1,49.5,15.5,41,7z"/><path fill="#000000" d="M38.9,42c0-0.1-0.1-0.2-0.1-0.3c-0.2-0.3-0.5-0.4-0.8-0.4l-5-0.2c0,0,0,0,0,0c-0.5,0-1,0.4-1,1   c0,0.5,0.4,1,1,1l1.8,0.1c-8.5,4.8-19.3,3.4-26.4-3.6c-7.8-7.8-8.6-20.2-1.9-29c0.3-0.4,0.3-1.1-0.2-1.4C5.9,8.9,5.2,9,4.9,9.4   C-2.4,18.9-1.5,32.5,7,41c4.6,4.6,10.8,7,17,7c4.1,0,8.3-1.1,12-3.2l-0.7,1.8c-0.2,0.5,0.1,1.1,0.6,1.3c0.1,0,0.2,0.1,0.3,0.1   c0.4,0,0.8-0.2,0.9-0.6C38,45.3,38.7,43.4,38.9,42C38.9,42.1,38.9,42.1,38.9,42z"/><path fill="#000000" d="M14.1,26.3c-0.1-0.4-0.2-0.8-0.2-1.2c-0.1-0.5-0.6-0.9-1.1-0.9c-0.5,0.1-0.9,0.6-0.9,1.1   c0.1,0.5,0.1,0.9,0.2,1.4c0.2,0.6,0.6,0.8,1.2,0.7C13.9,27.4,14.2,26.8,14.1,26.3z"/><path fill="#000000" d="M21,14.3c0.5-0.2,0.8-0.7,0.7-1.2c-0.2-0.5-0.7-0.8-1.2-0.7c-4,1.2-7.1,4.5-8.2,8.6   c-0.1,0.5,0.2,1.1,0.7,1.2c0.1,0,0.2,0,0.2,0c0.4,0,0.8-0.3,1-0.7C15,18.1,17.7,15.3,21,14.3z"/></g><text x="0" y="63" fill="#000000" font-size="5px" font-weight="bold" font-family="'Helvetica Neue', Helvetica, Arial-Unicode, Arial, Sans-serif">Created by Creative Stall</text><text x="0" y="68" fill="#000000" font-size="5px" font-weight="bold" font-family="'Helvetica Neue', Helvetica, Arial-Unicode, Arial, Sans-serif">from the Noun Project</text></svg>