<svg xmlns="http://www.w3.org/2000/svg" xmlns:xlink="http://www.w3.org/1999/xlink" version="1.1" x="0px" y="0px" viewBox="0 0 69 86.25" style="enable-background:new 0 0 69 69;" xml:space="preserve"><g><path d="M63.1858,2.52686H40.29322c-1.81152,0-3.28516,1.47363-3.28516,3.28516v7.27588   c-1.98016-0.63055-4.10498-1.0155-6.39453-1.11084c-4.64355-0.19336-8.91602,1.00586-12.71191,3.56348   c-6.16894,4.1582-9.33789,9.97461-9.41992,17.29102c-0.04572,5.59937-6.38049,7.99188-5.92969,10.24121   c0.27679,1.36932,2.12982,1.58301,3.63477,2.23438c1.23608,0.53619-1.34467,1.8288,0.7207,3.70801   c-0.25391,0.21191-0.43066,0.55078-0.38574,1.04004c0.1073,1.1781,1.09979,1.55005,1.7373,2.04199   c-0.18805,0.34406-0.95526,0.94373-0.93848,2.5957c0.0498,5.42334,8.42902,0.28137,9.52441,8.17676   c0.08887,0.64551,0.13672,1.29688,0.18555,1.95605c0.02441,0.31934,0.04785,0.63965,0.07617,0.96289   c0.03418,0.3877,0.3584,0.68457,0.74707,0.68457h21.69922c0.41016,0,0.74512-0.42578,0.75098-0.83594   c0.00098-0.07422,0.00098-0.14063-0.00195-0.20703c-0.32397-6.7124,0.93536-14.073,5.58203-18.95898   c3.33594-3.50488,5.20215-7.69727,5.5459-12.45898c0.20502-2.83411-0.15637-5.51318-1.04767-8.01678l2.67365-2.29376H63.1858   c1.81152,0,3.28516-1.47363,3.28516-3.28516V5.81201C66.47095,4.00049,64.99732,2.52686,63.1858,2.52686z M49.93385,33.90479   c-0.31836,4.40527-2.0459,8.28613-5.13574,11.5332c-4.80817,5.05206-6.27106,12.51025-6.0166,19.53516H18.54615   c-0.00684-0.08594-0.0127-0.17285-0.01953-0.25879c-0.19922-2.70856-0.48004-5.24036-2.90039-6.99219   c-3.50958-2.54236-6.78333-0.4397-6.80566-3.04297c-0.01819-1.8479,2.3786-2.4472-0.17969-4.14453   c-0.22223-0.14697-0.42767-0.27771-0.52832-0.39551c0.60913-0.15375,1.06317-0.16138,1.17188-0.77246   c0.2066-1.13629-2.26666-1.12799-1.53125-2.47852c1.43604-2.65936-1.84949-3.23212-3.1543-3.76367   c-0.46875-0.19141-0.56836-0.33984-0.57422-0.33984c0,0,0,0-0.00098,0c0.15863-0.95166,5.90656-4.20898,5.95801-9.9375   c0.07617-6.79297,3.02246-12.19727,8.75781-16.0625c3.52539-2.37695,7.50098-3.48145,11.81152-3.30957   c2.32715,0.09723,4.47302,0.51184,6.45703,1.1994v5.742c0,1.81152,1.47363,3.28516,3.28516,3.28516h2.67188v7.02539   c0,0.29297,0.1709,0.55957,0.43652,0.68164c0.10059,0.0459,0.20703,0.06836,0.31348,0.06836   c0.17578,0,0.34961-0.06152,0.48828-0.18066l4.94824-4.24518C49.8368,29.20258,50.10816,31.49133,49.93385,33.90479z    M64.97095,20.4165c0,0.98438-0.80078,1.78516-1.78516,1.78516H52.77857c-0.17871,0-0.35254,0.06445-0.48828,0.18066   l-7.8252,6.71289v-6.14355c0-0.41406-0.33594-0.75-0.75-0.75h-3.42188c-0.98438,0-1.78516-0.80078-1.78516-1.78516V5.81201   c0-0.98438,0.80078-1.78516,1.78516-1.78516H63.1858c0.98438,0,1.78516,0.80078,1.78516,1.78516V20.4165z"/><path d="M60.38404,8.73389H43.09791c-0.20703,0-0.375,0.16797-0.375,0.375s0.16797,0.375,0.375,0.375h17.28613   c0.20703,0,0.375-0.16797,0.375-0.375S60.59107,8.73389,60.38404,8.73389z"/><path d="M60.38404,12.73877H43.09791c-0.20703,0-0.375,0.16797-0.375,0.375s0.16797,0.375,0.375,0.375h17.28613   c0.20703,0,0.375-0.16797,0.375-0.375S60.59107,12.73877,60.38404,12.73877z"/><path d="M60.38404,16.74365H43.09791c-0.20703,0-0.375,0.16797-0.375,0.375s0.16797,0.375,0.375,0.375h17.28613   c0.20703,0,0.375-0.16797,0.375-0.375S60.59107,16.74365,60.38404,16.74365z"/><path d="M28.30494,23.61865c-2.19629,0-3.84473,0.45117-5.50293,1.50098c-0.56348,0.33887-0.91113,0.8252-0.97852,1.37109   c-0.06152,0.5,0.11914,1.00195,0.49609,1.37891c0.60449,0.60449,1.4707,0.67578,2.19336,0.19141   c0.93945-0.57813,2.23438-0.90918,3.55273-0.90918c3.37109,0,3.76074,1.56836,3.76074,2.74805   c0,1.05762-0.96875,1.82227-2.01758,2.64941c-1.91211,1.54102-3.49414,3.05273-3.49414,5.96191   c0,0.81738,0.67676,1.66211,1.81055,1.66211c0.99902,0,1.81152-0.74609,1.81152-1.66211c0-1.46973,0.89648-2.28516,2.37207-3.45215   c1.75098-1.37891,3.2002-2.73047,3.2002-5.30859C35.50904,26.02588,32.68092,23.61865,28.30494,23.61865z M31.68873,34.27393   c-1.35254,1.07031-2.75195,2.17773-2.75195,4.2373c0,0.35938-0.37207,0.66211-0.81152,0.66211   c-0.52637,0-0.81055-0.34082-0.81055-0.66211c0-2.47656,1.29395-3.70996,3.13672-5.19434   c1.11328-0.87891,2.375-1.875,2.375-3.41699c0-1.70996-0.82617-3.74805-4.76074-3.74805   c-1.51953,0-2.96777,0.37598-4.09277,1.06738c-0.12402,0.08496-0.55957,0.32813-0.94629-0.05664   c-0.15723-0.15723-0.23438-0.3584-0.21094-0.5498c0.0293-0.23633,0.20313-0.45605,0.51172-0.6416   c1.49609-0.94824,2.98438-1.35254,4.97754-1.35254c2.99902,0,6.2041,1.34766,6.2041,5.13184   C34.50904,31.8833,33.28736,33.01514,31.68873,34.27393z"/><path d="M28.06568,41.28857c-1.24512,0-2.25781,1.01367-2.25781,2.25879c0,1.26074,1.0127,2.28711,2.25781,2.28711   c1.2832,0,2.28809-1.00488,2.28809-2.28711C30.35377,42.30225,29.3274,41.28857,28.06568,41.28857z M28.06568,44.83447   c-0.69336,0-1.25781-0.57715-1.25781-1.28711c0-0.68262,0.57617-1.25879,1.25781-1.25879   c0.70996,0,1.28809,0.56445,1.28809,1.25879C29.35377,44.26904,28.78834,44.83447,28.06568,44.83447z"/></g><text x="0" y="84" fill="#000000" font-size="5px" font-weight="bold" font-family="'Helvetica Neue', Helvetica, Arial-Unicode, Arial, Sans-serif">Created by Vectors Point</text><text x="0" y="89" fill="#000000" font-size="5px" font-weight="bold" font-family="'Helvetica Neue', Helvetica, Arial-Unicode, Arial, Sans-serif">from the Noun Project</text></svg>