<svg xmlns="http://www.w3.org/2000/svg" xmlns:xlink="http://www.w3.org/1999/xlink" version="1.1" x="0px" y="0px" viewBox="0 0 100 125" style="enable-background:new 0 0 100 100;" xml:space="preserve"><g><path d="M14.1,57.5v21.8c0,3.7,3,6.7,6.7,6.7h58.5c3.7,0,6.7-3,6.7-6.7V57.5c4-0.1,7.3-3.4,7.3-7.5s-3.2-7.4-7.3-7.5V20.8   c0-3.7-3-6.7-6.7-6.7H20.8c-3.7,0-6.7,3-6.7,6.7v21.8c-4,0.1-7.3,3.4-7.3,7.5S10.1,57.4,14.1,57.5z M82.9,79.3c0,2-1.6,3.7-3.7,3.7   H20.8c-2,0-3.7-1.6-3.7-3.7V57c0,0,0,0,0,0c0.3-0.1,0.6-0.3,0.9-0.4c0,0,0.1-0.1,0.1-0.1c0.3-0.2,0.5-0.3,0.8-0.5   c0,0,0.1-0.1,0.1-0.1c0.2-0.2,0.5-0.4,0.7-0.7c0,0,0.1-0.1,0.1-0.1c0.2-0.2,0.4-0.5,0.6-0.8c0,0,0,0,0,0c0.2-0.3,0.4-0.6,0.5-0.9   c0,0,0-0.1,0.1-0.1c0.1-0.3,0.3-0.6,0.4-0.9c0-0.1,0-0.1,0.1-0.2c0.1-0.3,0.2-0.6,0.2-1c0,0,0-0.1,0-0.1c0-0.3,0.1-0.7,0.1-1.1   c0-0.4,0-0.8-0.1-1.1c-0.1-0.6-0.3-1.2-0.5-1.8l16.7-11.6c1.4,1.3,3.2,2.1,5.2,2.1c0.3,0,0.7,0,1-0.1l9.1,26.2   c-2.2,1.3-3.7,3.7-3.7,6.4c0,4.1,3.4,7.5,7.5,7.5s7.5-3.4,7.5-7.5c0-1-0.2-2-0.6-3l16.7-11.6c0.2,0.2,0.3,0.3,0.5,0.4   c0,0,0.1,0.1,0.1,0.1c0.2,0.2,0.5,0.3,0.7,0.5c0.1,0,0.1,0.1,0.2,0.1c0.3,0.2,0.6,0.3,0.8,0.4c0,0,0,0,0.1,0V79.3z M44.5,34.3   c-0.4,0.2-0.9,0.2-1.5,0.2c-1.5,0-2.8-0.7-3.7-1.9c-0.5-0.8-0.8-1.6-0.8-2.6c0-2.5,2-4.5,4.5-4.5s4.5,2,4.5,4.5   C47.6,31.9,46.3,33.6,44.5,34.3z M60.6,67.4c0.5,0.8,0.8,1.6,0.8,2.6c0,2.5-2,4.5-4.5,4.5s-4.5-2-4.5-4.5c0-1.9,1.2-3.6,3-4.2   c0.5-0.2,1-0.3,1.5-0.3C58.4,65.5,59.8,66.2,60.6,67.4z M90.2,50c0,2.5-2,4.5-4.5,4.5c-0.1,0-0.3,0-0.4,0c-0.2,0-0.4,0-0.6-0.1   c-1.1-0.2-2.1-0.9-2.7-1.8c0,0,0,0,0,0c0,0,0,0,0,0c-0.5-0.8-0.8-1.7-0.8-2.6c0-2.1,1.5-4,3.6-4.4c0.2,0,0.3-0.1,0.5-0.1   c0.1,0,0.3,0,0.4,0C88.2,45.5,90.2,47.5,90.2,50z M17.1,20.8c0-2,1.6-3.7,3.7-3.7h58.5c2,0,3.7,1.6,3.7,3.7V43c0,0,0,0,0,0   c-0.3,0.1-0.6,0.3-0.9,0.4c0,0-0.1,0.1-0.1,0.1c-0.3,0.2-0.5,0.3-0.8,0.5c0,0-0.1,0.1-0.1,0.1c-0.3,0.2-0.5,0.4-0.7,0.7   c0,0-0.1,0.1-0.1,0.1c-0.2,0.2-0.4,0.5-0.6,0.8c0,0,0,0,0,0c-0.2,0.3-0.4,0.6-0.5,0.9c0,0,0,0.1-0.1,0.1c-0.1,0.3-0.3,0.6-0.4,0.9   c0,0.1,0,0.1-0.1,0.2c-0.1,0.3-0.2,0.6-0.2,1c0,0,0,0.1,0,0.1c0,0.3-0.1,0.7-0.1,1.1c0,1,0.2,2,0.6,3L62.1,64.6   c-1.4-1.3-3.2-2.1-5.2-2.1c-0.3,0-0.7,0-1,0.1l-9.1-26.1c2.2-1.3,3.7-3.8,3.7-6.4c0-4.1-3.4-7.5-7.5-7.5s-7.5,3.4-7.5,7.5   c0,1,0.2,2,0.6,3L19.5,44.6c-0.2-0.1-0.3-0.3-0.5-0.4c0,0-0.1-0.1-0.1-0.1c-0.2-0.2-0.5-0.3-0.7-0.5c-0.1,0-0.1-0.1-0.2-0.1   c-0.3-0.2-0.6-0.3-0.9-0.4c0,0,0,0-0.1,0V20.8z M14.3,45.5c0.1,0,0.2,0,0.4,0c0.2,0,0.4,0,0.5,0.1c1.1,0.2,2.1,0.9,2.7,1.8   c0.5,0.8,0.8,1.7,0.8,2.6c0,2.1-1.5,4-3.6,4.4c-0.2,0-0.3,0.1-0.6,0.1c-0.1,0-0.2,0-0.3,0c-2.5,0-4.5-2-4.5-4.5   S11.8,45.5,14.3,45.5z"/></g><text x="0" y="115" fill="#000000" font-size="5px" font-weight="bold" font-family="'Helvetica Neue', Helvetica, Arial-Unicode, Arial, Sans-serif">Created by Rudez Studio</text><text x="0" y="120" fill="#000000" font-size="5px" font-weight="bold" font-family="'Helvetica Neue', Helvetica, Arial-Unicode, Arial, Sans-serif">from the Noun Project</text></svg>