<svg xmlns:dc="http://purl.org/dc/elements/1.1/" xmlns:cc="http://creativecommons.org/ns#" xmlns:rdf="http://www.w3.org/1999/02/22-rdf-syntax-ns#" xmlns:svg="http://www.w3.org/2000/svg" xmlns="http://www.w3.org/2000/svg" xmlns:sodipodi="http://sodipodi.sourceforge.net/DTD/sodipodi-0.dtd" xmlns:inkscape="http://www.inkscape.org/namespaces/inkscape" version="1.1" viewBox="0 0 100 125" stroke-miterlimit="10" style="" x="0px" y="0px" fill="none" stroke="none"><clipPath><path d="M 0,0 H 415.74802 V 415.74802 H 0 Z" style="" clip-rule="nonzero"/></clipPath><path style="" d="m 49.999781,1.644085 -0.119895,0.0046 -1.41625,0.053943 -2.817522,0.5739969 -2.637677,1.0790497 -2.321455,1.6110816 -2.003737,1.9992402 -1.536145,2.3094617 -1.122511,2.5987119 -0.584486,2.847494 -0.05993,1.537652 0.05993,1.549634 0.584486,2.784543 1.115015,2.643678 1.543641,2.321455 2.024715,2.020218 2.300477,1.533153 2.606209,1.128503 1.315838,0.268265 v 5.780406 H 26.623371 v 6.138594 h 20.307113 v 16.79721 l -22.899832,36.18563 5.186935,3.28361 L 49.999781,65.855037 70.781974,98.69412 75.96891,95.410509 53.069078,59.226376 V 42.427669 H 73.37619 V 36.289076 H 53.069078 v -5.780407 l 1.314342,-0.268264 2.606209,-1.128504 2.303469,-1.534649 2.018722,-2.018722 1.546634,-2.318463 1.116518,-2.649662 0.578494,-2.778558 0.06591,-1.552627 -0.06445,-1.540652 -0.57999,-2.841493 L 62.852423,9.2738659 61.311782,6.9659004 59.314038,4.9666602 56.991087,3.3555786 54.35341,2.276529 51.535887,1.7025321 Z" fill="#000000" fill-rule="evenodd" stroke-width="0.76732421"/><text x="0" y="115" fill="#000000" font-size="5px" font-weight="bold" font-family="'Helvetica Neue', Helvetica, Arial-Unicode, Arial, Sans-serif">Created by Swen-Peter Ekkebus</text><text x="0" y="120" fill="#000000" font-size="5px" font-weight="bold" font-family="'Helvetica Neue', Helvetica, Arial-Unicode, Arial, Sans-serif">from the Noun Project</text></svg>