<?xml version="1.0" encoding="UTF-8" standalone="no"?>
<svg
   xmlns:dc="http://purl.org/dc/elements/1.1/"
   xmlns:cc="http://creativecommons.org/ns#"
   xmlns:rdf="http://www.w3.org/1999/02/22-rdf-syntax-ns#"
   xmlns:svg="http://www.w3.org/2000/svg"
   xmlns="http://www.w3.org/2000/svg"
   xmlns:sodipodi="http://sodipodi.sourceforge.net/DTD/sodipodi-0.dtd"
   xmlns:inkscape="http://www.inkscape.org/namespaces/inkscape"
   viewBox="0 0 51.130001 56"
   x="0px"
   y="0px"
   version="1.1"
   id="svg18"
   sodipodi:docname="noun_user interaction_2209214.svg"
   width="51.130001"
   height="56"
   inkscape:version="0.92.3 (2405546, 2018-03-11)">
  <metadata
     id="metadata24">
    <rdf:RDF>
      <cc:Work
         rdf:about="">
        <dc:format>image/svg+xml</dc:format>
        <dc:type
           rdf:resource="http://purl.org/dc/dcmitype/StillImage" />
        <dc:title></dc:title>
      </cc:Work>
    </rdf:RDF>
  </metadata>
  <defs
     id="defs22" />
  <sodipodi:namedview
     pagecolor="#ffffff"
     bordercolor="#666666"
     borderopacity="1"
     objecttolerance="10"
     gridtolerance="10"
     guidetolerance="10"
     inkscape:pageopacity="0"
     inkscape:pageshadow="2"
     inkscape:window-width="1280"
     inkscape:window-height="961"
     id="namedview20"
     showgrid="false"
     fit-margin-top="0"
     fit-margin-left="0"
     fit-margin-right="0"
     fit-margin-bottom="0"
     inkscape:zoom="2.95"
     inkscape:cx="26.13"
     inkscape:cy="20"
     inkscape:window-x="-8"
     inkscape:window-y="46"
     inkscape:window-maximized="1"
     inkscape:current-layer="svg18" />
  <circle
     cx="12.13"
     cy="5"
     r="5"
     id="circle2" />
  <path
     d="m 20.282,12.371 a 10.971,10.971 0 0 1 -16.3,0 A 7.015,7.015 0 0 0 1.13,18 v 6 a 1,1 0 0 0 1,1 h 20 a 1,1 0 0 0 1,-1 v -6 a 7.015,7.015 0 0 0 -2.848,-5.629 z"
     id="path4"
     inkscape:connector-curvature="0" />
  <path
     d="m 26.13,51 a 5.006,5.006 0 0 0 5,5 h 15 a 5.006,5.006 0 0 0 5,-5 V 39 h -25 z"
     id="path6"
     inkscape:connector-curvature="0" />
  <path
     d="m 46.13,31 h -15 a 5.006,5.006 0 0 0 -5,5 v 1 h 25 v -1 a 5.006,5.006 0 0 0 -5,-5 z m -15.08,3.38 a 1.032,1.032 0 0 1 -0.21,0.33 1,1 0 1 1 0,-1.42 0.933,0.933 0 0 1 0.21,0.33 0.942,0.942 0 0 1 0,0.76 z m 3.79,0.33 A 1.052,1.052 0 0 1 34.13,35 1.487,1.487 0 0 1 33.93,34.98 0.636,0.636 0 0 1 33.75,34.92 0.782,0.782 0 0 1 33.569,34.83 L 33.42,34.71 a 1.014,1.014 0 0 1 0,-1.42 1.7,1.7 0 0 1 0.149,-0.12 0.782,0.782 0 0 1 0.181,-0.09 0.636,0.636 0 0 1 0.18,-0.06 1.038,1.038 0 0 1 0.91,0.27 1.014,1.014 0 0 1 0,1.42 z m 4,0 a 1.052,1.052 0 0 1 -0.71,0.29 1,1 0 0 1 -0.38,-0.08 1.032,1.032 0 0 1 -0.33,-0.21 1.014,1.014 0 0 1 0,-1.42 1.032,1.032 0 0 1 0.33,-0.21 1,1 0 0 1 1.09,0.21 1.014,1.014 0 0 1 0,1.42 z"
     id="path8"
     inkscape:connector-curvature="0" />
  <path
     d="M 41.659,22.046 39.284,20 39.497,22.871 43.13,26 46.26,22.367 46.047,19.5 43.73,22.183 A 19.021,19.021 0 0 0 25.13,7 v 2 a 17.025,17.025 0 0 1 16.529,13.046 z"
     id="path10"
     inkscape:connector-curvature="0" />
  <path
     d="M 4.601,33.954 6.976,36 6.763,33.129 3.13,30 0,33.633 0.213,36.5 2.53,33.817 A 19.021,19.021 0 0 0 21.13,49 V 47 A 17.025,17.025 0 0 1 4.601,33.954 Z"
     id="path12"
     inkscape:connector-curvature="0" />
</svg>
