<svg xmlns="http://www.w3.org/2000/svg" viewBox="0 0 80 100" x="0px" y="0px"><title>42_startup_brain_connections</title><path d="M73,35H68.94s0-.08,0-.12c0-.21-.05-.41-.09-.62s0-.17-.06-.26-.09-.39-.15-.59l-.08-.23c-.07-.2-.14-.4-.22-.59l-.08-.19q-.14-.31-.29-.61l-.07-.14q-.18-.33-.39-.64l0-.06a9,9,0,0,0-2.38-2.39l-.19-.12-.49-.3L64,28l-.37-.18-.45-.19-.27-.1-.56-.18-.17,0-.67-.15h0A9,9,0,0,0,53,21a8.86,8.86,0,0,0-1.69.16c-.1-.15-.21-.29-.31-.43V11h3v4a1,1,0,0,0,1,1H70a1,1,0,0,0,1-1V10h1a1,1,0,0,0,1-1V5a1,1,0,0,0-1-1H68a1,1,0,0,0-1,1V9a1,1,0,0,0,1,1h1v4H56V10a1,1,0,0,0-1-1H50a1,1,0,0,0-1,1v8.56a10.92,10.92,0,0,0-15.25,1.17l-.16-.06c-.24-.09-.48-.18-.72-.25l-.2-.05c-.24-.07-.48-.13-.73-.18l-.33-.05c-.21,0-.41-.07-.62-.09s-.65,0-1,0V15a1,1,0,0,0-1-1H22V6a1,1,0,0,0-1-1H14a1,1,0,0,0-1,1V20H10V19a1,1,0,0,0-1-1H5a1,1,0,0,0-1,1v4a1,1,0,0,0,1,1H9a1,1,0,0,0,1-1V22h4a1,1,0,0,0,1-1V7h5v8a1,1,0,0,0,1,1h7v3.22A10,10,0,0,0,21.34,24H21a11,11,0,0,0-8.09,18.43l0,.13c-.13.32-.25.64-.34,1l0,.1c-.1.34-.19.68-.26,1,0,.07,0,.15,0,.22-.06.31-.11.62-.14.93S12,46.6,12,47s0,.72.05,1.08c0,.13,0,.25,0,.37s.06.45.1.68.05.29.08.44.07.29.11.43H5a1,1,0,0,0-1,1V61a1,1,0,0,0,1,1H9v1a1,1,0,0,0,1,1h4a1,1,0,0,0,1-1V59a1,1,0,0,0-1-1H10a1,1,0,0,0-1,1v1H6V52h7.11v0l.1.21a12,12,0,0,0,1.22,2l.1.13q.22.29.47.56l.15.17a12.08,12.08,0,0,0,1.63,1.48l.28.21.52.35.33.2.54.31.16.08c.21.11.42.22.64.31l-1.49,4.53a3.61,3.61,0,0,0,1.51,4.19l3.83,2.4a3.62,3.62,0,0,0,5.12-1.38L32.31,60l.27,0,.36,0,.41-.06.37-.07.39-.1.35-.1.4-.15.31-.12.45-.22.22-.11c.19-.1.37-.21.54-.33l.09-.06a8,8,0,0,0,1.21-1A10.86,10.86,0,0,0,42,58.94V70a1,1,0,0,0,1,1h4a1,1,0,0,0,1-1V64h3v8H50a1,1,0,0,0-1,1v4a1,1,0,0,0,1,1h4a1,1,0,0,0,1-1V73a1,1,0,0,0-1-1H53V63a1,1,0,0,0-1-1H47a1,1,0,0,0-1,1v6H44V58.95h.15l.31,0c.27,0,.54-.07.81-.13l.4-.1c.23-.06.46-.11.68-.18l.47-.17.56-.22.51-.25.46-.24.53-.32.39-.25.52-.39.34-.28.48-.44.32-.33.25-.26A11,11,0,0,0,67.07,41.57,8.89,8.89,0,0,0,68.94,37H72V58H63a1,1,0,0,0-1,1v8a1,1,0,0,0,1,1h5v1a1,1,0,0,0,1,1h4a1,1,0,0,0,1-1V65a1,1,0,0,0-1-1H69a1,1,0,0,0-1,1v1H64V60h9a1,1,0,0,0,1-1V36A1,1,0,0,0,73,35ZM69,6h2V8H69ZM8,22H6V20H8Zm3,38h2v2H11ZM53,76H51V74h2Zm4-22a8,8,0,0,1-4.14-1.16,10.95,10.95,0,0,0,.27-9.12,1.5,1.5,0,0,0-2.76,1.17,8,8,0,0,1-.74,7.59,8.07,8.07,0,0,1-.51.67l-.25.28-.36.36-.3.27-.4.32-.3.22a8,8,0,0,1-.71.44l-.21.1c-.2.1-.4.19-.6.28l-.29.11-.57.18-.3.08-.63.12-.19,0V48.72a2,2,0,1,0-2,0v7.2a7.87,7.87,0,0,1-2.63-.8A8,8,0,0,0,40,52a1.5,1.5,0,0,0-3,0,5,5,0,0,1-1.39,3.45l-.2.19A5,5,0,0,1,35,56l-.3.22a5,5,0,0,1-.59.32l-.42.17-.39.12-.39.1a5,5,0,0,1-.79.08h-.42a5,5,0,0,1-.89-.13,1.5,1.5,0,0,0-1.5,2.42l-3.73,7.09a.61.61,0,0,1-.87.23l-3.83-2.4a.61.61,0,0,1-.26-.71l1.53-4.64A12,12,0,0,0,24,59a1.5,1.5,0,0,0,0-3,9,9,0,0,1-2.47-.35l-.6-.2-.17-.06-.54-.23-.18-.09-.51-.27-.13-.08A9,9,0,0,1,17.33,53l-.07-.08q-.21-.24-.4-.49l-.06-.08L16.54,52H24a1,1,0,0,0,1-1V41h6v3.28a2,2,0,1,0,2,0V40a1,1,0,0,0-1-1H24a1,1,0,0,0-1,1V50H15.53l-.06-.15c-.05-.16-.1-.32-.14-.48s-.06-.22-.09-.33-.06-.27-.09-.41-.05-.31-.07-.47,0-.22,0-.33c0-.27,0-.55,0-.83a9.1,9.1,0,0,1,.06-1c0-.11,0-.23.05-.34s.07-.44.12-.65.06-.24.09-.36.13-.43.2-.64l.11-.3q.16-.4.36-.78l.08-.17,0,0A9,9,0,0,1,24,38a1.5,1.5,0,0,0,0-3,12,12,0,0,0-9.48,4.67A8,8,0,0,1,21,27a8.07,8.07,0,0,1,1,.07l1.11.14.45-1A7,7,0,0,1,28,22.29v4a2,2,0,1,0,2,0V22a6.92,6.92,0,0,1,.83.05l.19,0c.22,0,.44.08.66.13l.17,0a7,7,0,0,1,.76.25h0a7,7,0,0,1,3,10.66A1.5,1.5,0,0,0,38,35a9.92,9.92,0,0,0,1.75-3.9,6,6,0,0,0,5.35.29,1.5,1.5,0,1,0-1.18-2.76,3.15,3.15,0,0,1-4.13-1.66s0-.08-.07-.12a10,10,0,0,0-3.36-5.49A7.94,7.94,0,0,1,49,23.19V33.28a2,2,0,1,0,2,0V24.35l.05,0a6,6,0,0,1,7.22,2.84,9,9,0,0,0-4.11,2,1.5,1.5,0,1,0,1.95,2.28A6,6,0,0,1,60,30h.3a6,6,0,0,1,1.7.33l0,0,.46.19.11.06.37.19.18.11.28.18.24.18.2.16.27.25.14.13.28.31.09.11c.1.12.19.24.27.37l.06.09c.09.13.17.27.25.41l0,.08c.08.14.14.29.21.43l0,.09c.06.14.11.29.16.44l0,.11c0,.15.08.3.11.45l0,.13c0,.06,0,.13,0,.2H57a1,1,0,0,0-1,1v8.28a2,2,0,1,0,2,0V37h7.91v.08a6,6,0,0,1-.25.93l0,.06a6,6,0,0,1-.41.89h0a6,6,0,0,1-4,2.91,1.5,1.5,0,0,0,.3,3,1.52,1.52,0,0,0,.3,0,8.9,8.9,0,0,0,2.84-1.11A8,8,0,0,1,57,54ZM70,66h2v2H70Z"/><text x="0" y="95" fill="#000000" font-size="5px" font-weight="bold" font-family="'Helvetica Neue', Helvetica, Arial-Unicode, Arial, Sans-serif">Created by Weltenraser</text><text x="0" y="100" fill="#000000" font-size="5px" font-weight="bold" font-family="'Helvetica Neue', Helvetica, Arial-Unicode, Arial, Sans-serif">from the Noun Project</text></svg>