<?xml version="1.0" encoding="UTF-8" standalone="no"?>
<svg
   xmlns:dc="http://purl.org/dc/elements/1.1/"
   xmlns:cc="http://creativecommons.org/ns#"
   xmlns:rdf="http://www.w3.org/1999/02/22-rdf-syntax-ns#"
   xmlns:svg="http://www.w3.org/2000/svg"
   xmlns="http://www.w3.org/2000/svg"
   xmlns:sodipodi="http://sodipodi.sourceforge.net/DTD/sodipodi-0.dtd"
   xmlns:inkscape="http://www.inkscape.org/namespaces/inkscape"
   inkscape:version="1.0 (4035a4fb49, 2020-05-01)"
   height="63"
   width="64"
   sodipodi:docname="noun_Prototyping_2017211.svg"
   id="svg32"
   xml:space="preserve"
   enable-background="new 0 0 66 66"
   viewBox="0 0 64 63"
   y="0px"
   x="0px"
   version="1.1"><metadata
     id="metadata38"><rdf:RDF><cc:Work
         rdf:about=""><dc:format>image/svg+xml</dc:format><dc:type
           rdf:resource="http://purl.org/dc/dcmitype/StillImage" /><dc:title></dc:title></cc:Work></rdf:RDF></metadata><defs
     id="defs36" /><sodipodi:namedview
     inkscape:current-layer="svg32"
     inkscape:window-maximized="1"
     inkscape:window-y="46"
     inkscape:window-x="-8"
     inkscape:cy="31.985294"
     inkscape:cx="32"
     inkscape:zoom="10.30303"
     fit-margin-bottom="0"
     fit-margin-right="0"
     fit-margin-left="0"
     fit-margin-top="0"
     showgrid="false"
     id="namedview34"
     inkscape:window-height="961"
     inkscape:window-width="1280"
     inkscape:pageshadow="2"
     inkscape:pageopacity="0"
     guidetolerance="10"
     gridtolerance="10"
     objecttolerance="10"
     borderopacity="1"
     bordercolor="#666666"
     pagecolor="#ffffff" /><g
     transform="translate(-1,-1.5)"
     id="g26"><g
       id="g4"><path
         id="path2"
         d="M 64,22.8 H 57.2 C 54.8,13.2 46.2,6.1 35.9,6.1 c -0.6,0 -1,0.4 -1,1 V 22.8 H 30.2 V 3.5 c 0,-1.1 -0.9,-2 -2,-2 h -8 c -1.1,0 -2,0.9 -2,2 V 22.8 H 13 V 22 c 0,-3.3 -2.7,-6 -6,-6 -3.3,0 -6,2.7 -6,6 v 36.5 c 0,0 0,0 0,0 0,3.3 2.7,6 6,6 h 57 c 0.6,0 1,-0.4 1,-1 V 23.8 c 0,-0.6 -0.4,-1 -1,-1 z M 36.9,8.1 c 10.6,0.5 19,9.3 19,20 0,10.7 -8.4,19.5 -19,20 z m -8.7,2.1 c 0,12.1 0,20.5 0,32.4 h -3 V 10.2 Z m -5,32.5 h -3 V 10.2 h 3 z m 4.4,2 -3.4,6.8 -3.4,-6.8 z M 28.2,3.5 v 4.8 h -8 V 3.5 Z M 3,22 c 0,-2.2 1.8,-4 4,-4 2.2,0 4,1.8 4,4 0,9.1 0,22.6 0,32.1 -1.1,-1 -2.5,-1.6 -4,-1.6 -1.5,0 -3,0.6 -4,1.5 z M 63,62.5 H 7 c -2.2,0 -4,-1.8 -4,-4 0,0 0,0 0,0 0,-2.2 1.8,-4 4,-4 2.1,0 3.8,1.6 4,3.8 0.1,1.3 2,1.2 2,-0.1 V 24.8 h 5.1 v 18.9 c 0,0.2 0,0.3 0.1,0.4 0,0 0,0 0,0 l 5,10 c 0.2,0.3 0.5,0.6 0.9,0.6 0.4,0 0.7,-0.2 0.9,-0.6 l 5,-10 c 0,0 0,0 0,0 0.1,-0.1 0.1,-0.3 0.1,-0.4 V 24.8 h 4.7 v 24.3 c 0,0.6 0.4,1 1,1 12.1,0 22,-9.9 22,-22 0,-1.1 -0.1,-2.2 -0.3,-3.3 H 63 Z" /></g><g
       id="g8"><path
         id="path6"
         d="m 40.9,12.4 c -0.6,-0.2 -1.3,0.3 -1.3,1 v 29.4 c 0,0.7 0.6,1.1 1.3,1 C 48,42 53,35.5 53,28.1 53.1,20.7 48.1,14.3 40.9,12.4 Z m 0.8,29 V 14.7 c 5.6,2 9.4,7.3 9.4,13.3 0,6.1 -3.8,11.4 -9.4,13.4 z" /></g><g
       id="g12"><path
         id="path10"
         d="m 34.6,55.3 h -2 c -0.6,0 -1,0.4 -1,1 0,0.6 0.4,1 1,1 h 2 c 0.6,0 1,-0.4 1,-1 0,-0.6 -0.4,-1 -1,-1 z" /></g><g
       id="g16"><path
         id="path14"
         d="m 41.6,55.3 h -2 c -0.6,0 -1,0.4 -1,1 0,0.6 0.4,1 1,1 h 2 c 0.6,0 1,-0.4 1,-1 0,-0.6 -0.4,-1 -1,-1 z" /></g><g
       id="g20"><path
         id="path18"
         d="m 48.6,55.3 h -2 c -0.6,0 -1,0.4 -1,1 0,0.6 0.4,1 1,1 h 2 c 0.6,0 1,-0.4 1,-1 0,-0.6 -0.4,-1 -1,-1 z" /></g><g
       id="g24"><path
         id="path22"
         d="m 55.6,55.3 h -2 c -0.6,0 -1,0.4 -1,1 0,0.6 0.4,1 1,1 h 2 c 0.6,0 1,-0.4 1,-1 0,-0.6 -0.4,-1 -1,-1 z" /></g></g></svg>
