<svg xmlns="http://www.w3.org/2000/svg" xmlns:xlink="http://www.w3.org/1999/xlink" version="1.1" x="0px" y="0px" viewBox="0 0 90 112.5" enable-background="new 0 0 90 90" xml:space="preserve"><g><circle cx="34.258" cy="77.5" r="9.117"/><path d="M12.77,68.383c-5.035,0-9.117,4.082-9.118,9.117c0.001,5.035,4.083,9.117,9.118,9.117c5.036,0,9.118-4.082,9.118-9.117   S17.806,68.383,12.77,68.383z M17.942,82.674c-1.326,1.324-3.15,2.141-5.173,2.143c-2.022-0.002-3.846-0.818-5.173-2.143   c-1.325-1.328-2.143-3.15-2.143-5.174s0.817-3.846,2.143-5.172c1.327-1.326,3.15-2.143,5.173-2.143s3.847,0.816,5.173,2.143   s2.143,3.148,2.143,5.172S19.269,81.346,17.942,82.674z"/><path d="M55.744,68.383c-5.035,0-9.118,4.082-9.118,9.117s4.082,9.117,9.117,9.117c5.036,0,9.118-4.082,9.119-9.117   C64.861,72.465,60.779,68.383,55.744,68.383z M60.917,82.674c-1.327,1.324-3.15,2.141-5.174,2.143   c-2.021-0.002-3.846-0.818-5.172-2.143c-1.326-1.328-2.143-3.15-2.143-5.174s0.816-3.846,2.143-5.172s3.15-2.143,5.172-2.143   c2.023,0,3.847,0.816,5.174,2.143c1.325,1.326,2.143,3.148,2.143,5.172S62.242,81.346,60.917,82.674z"/><circle cx="77.231" cy="77.5" r="9.117"/><circle cx="55.743" cy="55.833" r="9.117"/><path d="M77.231,46.716c-5.036,0-9.118,4.082-9.118,9.117s4.082,9.117,9.118,9.117c5.035,0,9.117-4.082,9.118-9.117   C86.349,50.798,82.267,46.716,77.231,46.716z M82.404,61.007c-1.327,1.324-3.15,2.141-5.173,2.143   c-2.022-0.002-3.847-0.818-5.173-2.143c-1.326-1.328-2.143-3.15-2.143-5.174s0.816-3.846,2.143-5.172s3.15-2.143,5.173-2.143   s3.846,0.816,5.173,2.143c1.325,1.326,2.143,3.148,2.143,5.172S83.729,59.679,82.404,61.007z"/><path d="M34.257,46.716c-5.036,0-9.118,4.082-9.118,9.117c0,5.035,4.083,9.117,9.118,9.117c5.035,0,9.117-4.082,9.118-9.117   C43.375,50.798,39.292,46.716,34.257,46.716z M39.43,61.007c-1.327,1.324-3.15,2.141-5.172,2.143   c-2.023-0.002-3.846-0.818-5.173-2.143c-1.326-1.328-2.143-3.15-2.143-5.174c0-2.023,0.817-3.846,2.143-5.172   c1.327-1.326,3.15-2.143,5.173-2.143c2.022,0,3.846,0.816,5.172,2.143c1.326,1.326,2.143,3.148,2.143,5.172   C41.572,57.856,40.755,59.679,39.43,61.007z"/><circle cx="12.77" cy="55.833" r="9.117"/><circle cx="34.258" cy="34.167" r="9.118"/><path d="M12.77,25.049c-5.035,0-9.117,4.082-9.118,9.118c0.001,5.036,4.083,9.117,9.118,9.118c5.036-0.001,9.118-4.082,9.118-9.118   S17.806,25.049,12.77,25.049z M17.942,39.34c-1.326,1.324-3.15,2.142-5.173,2.143c-2.022-0.001-3.846-0.818-5.173-2.143   c-1.325-1.327-2.143-3.15-2.143-5.173s0.817-3.846,2.143-5.173c1.327-1.325,3.15-2.142,5.173-2.143   c2.022,0,3.847,0.817,5.173,2.143c1.326,1.327,2.143,3.15,2.143,5.173S19.269,38.013,17.942,39.34z"/><path d="M55.744,25.049c-5.035,0-9.118,4.082-9.118,9.118s4.082,9.117,9.117,9.118c5.036-0.001,9.118-4.082,9.119-9.118   C64.861,29.131,60.779,25.049,55.744,25.049z M60.917,39.34c-1.327,1.324-3.15,2.142-5.174,2.143   c-2.021-0.001-3.846-0.818-5.172-2.143c-1.326-1.327-2.143-3.15-2.143-5.173s0.816-3.846,2.143-5.173   c1.326-1.325,3.15-2.142,5.172-2.143c2.023,0,3.847,0.817,5.174,2.143c1.325,1.327,2.143,3.15,2.143,5.173   S62.242,38.013,60.917,39.34z"/><circle cx="77.231" cy="34.167" r="9.118"/><circle cx="55.743" cy="12.5" r="9.118"/><path d="M77.231,21.618c5.035,0,9.117-4.082,9.118-9.118c-0.001-5.036-4.083-9.117-9.118-9.118c-5.036,0-9.118,4.082-9.118,9.118   S72.195,21.617,77.231,21.618z M72.059,7.327c1.326-1.325,3.15-2.142,5.173-2.143c2.022,0,3.846,0.817,5.173,2.143   c1.325,1.327,2.143,3.15,2.143,5.173s-0.817,3.846-2.143,5.173c-1.327,1.325-3.15,2.142-5.173,2.143   c-2.022,0-3.847-0.817-5.173-2.143c-1.326-1.327-2.143-3.15-2.143-5.173S70.732,8.654,72.059,7.327z"/><path d="M34.257,3.382c-5.036,0-9.118,4.082-9.118,9.118c0,5.036,4.083,9.117,9.118,9.118c5.035,0,9.117-4.082,9.118-9.118   C43.375,7.464,39.292,3.383,34.257,3.382z M39.43,17.673c-1.327,1.325-3.15,2.142-5.172,2.143c-2.023,0-3.846-0.817-5.173-2.143   c-1.326-1.327-2.143-3.15-2.143-5.173c0-2.023,0.817-3.846,2.143-5.173c1.327-1.325,3.15-2.142,5.173-2.143   c2.022,0,3.846,0.817,5.172,2.143c1.326,1.327,2.143,3.15,2.143,5.173C41.572,14.523,40.755,16.346,39.43,17.673z"/><circle cx="12.77" cy="12.5" r="9.118"/></g><text x="0" y="105" fill="#000000" font-size="5px" font-weight="bold" font-family="'Helvetica Neue', Helvetica, Arial-Unicode, Arial, Sans-serif">Created by Jonathan Li</text><text x="0" y="110" fill="#000000" font-size="5px" font-weight="bold" font-family="'Helvetica Neue', Helvetica, Arial-Unicode, Arial, Sans-serif">from the Noun Project</text></svg>