<svg xmlns:dc="http://purl.org/dc/elements/1.1/" xmlns:cc="http://creativecommons.org/ns#" xmlns:rdf="http://www.w3.org/1999/02/22-rdf-syntax-ns#" xmlns:svg="http://www.w3.org/2000/svg" xmlns="http://www.w3.org/2000/svg" xmlns:sodipodi="http://sodipodi.sourceforge.net/DTD/sodipodi-0.dtd" xmlns:inkscape="http://www.inkscape.org/namespaces/inkscape" version="1.1" viewBox="0 0 100 125" stroke-miterlimit="10" style="" x="0px" y="0px" fill="none" stroke="none"><clipPath><path d="M 0,0 H 415.74802 V 415.74802 H 0 Z" style="" clip-rule="nonzero"/></clipPath><path d="m 7.1559497,1.644085 c -1.5953346,0 -2.8488081,1.2534757 -2.8488081,2.8488065 V 73.035247 c 0,1.538354 1.2534735,2.848808 2.8488081,2.848808 H 41.854446 L 36.156829,91.5525 h 5.298785 v 4.216237 c 0,0.797665 0.626737,1.424408 1.424404,1.424408 h 53.500629 c 0.797667,0 1.424405,-0.626743 1.424405,-1.424408 v -57.03315 c 0,-0.797667 -0.626738,-1.424405 -1.424405,-1.424405 H 81.452891 V 4.4928915 c 0,-1.5953308 -1.310462,-2.8488065 -2.848807,-2.8488065 z M 10.00476,7.341706 H 75.755275 V 22.212495 H 10.00476 Z m 0,20.568407 H 75.755275 V 70.186437 H 10.00476 Z M 81.452891,40.159989 H 94.956242 V 94.344337 H 44.304421 V 91.5525 h 5.298784 L 48.919491,89.615317 43.905589,75.884055 h 34.698495 c 1.538345,0 2.848807,-1.310454 2.848807,-2.848808 z" style="" fill="#000000" fill-opacity="1" fill-rule="evenodd" stroke="none"/><text x="0" y="115" fill="#000000" font-size="5px" font-weight="bold" font-family="'Helvetica Neue', Helvetica, Arial-Unicode, Arial, Sans-serif">Created by Swen-Peter Ekkebus</text><text x="0" y="120" fill="#000000" font-size="5px" font-weight="bold" font-family="'Helvetica Neue', Helvetica, Arial-Unicode, Arial, Sans-serif">from the Noun Project</text></svg>