<svg xmlns="http://www.w3.org/2000/svg" xmlns:xlink="http://www.w3.org/1999/xlink" version="1.1" x="0px" y="0px" viewBox="0 0 100 125" style="enable-background:new 0 0 100 100;" xml:space="preserve"><style type="text/css">
	.st0{fill:none;stroke:#000000;stroke-width:2;stroke-linecap:round;stroke-linejoin:round;stroke-miterlimit:10;}
</style><path d="M81.2,42.5L50,11.3c-0.9-0.9-2-1.3-3.2-1.3s-2.4,0.5-3.2,1.3L12.4,42.5c-1.8,1.8-1.8,4.7,0,6.5l31.1,31.1  c0.9,0.9,2,1.3,3.2,1.3s2.4-0.5,3.2-1.3l31.1-31.1C82.9,47.2,82.9,44.2,81.2,42.5z M79.7,47.5L48.6,78.7c-1,1-2.7,1-3.7,0L13.8,47.5  c-0.5-0.5-0.8-1.1-0.8-1.8s0.3-1.3,0.8-1.8L45,12.7c0.5-0.5,1.1-0.8,1.8-0.8c0.7,0,1.3,0.3,1.8,0.8l31.1,31.1  C80.8,44.9,80.8,46.5,79.7,47.5z"/><path d="M46.4,41.9c0.2,0.2,0.5,0.3,0.7,0.3s0.5-0.1,0.7-0.3l10.7-10.7c0.4-0.4,0.4-1,0-1.4L47.8,19c-0.4-0.4-1-0.4-1.4,0L35.6,29.7  c-0.4,0.4-0.4,1,0,1.4L46.4,41.9z M47.1,21.1l9.3,9.3l-9.3,9.3l-9.3-9.3L47.1,21.1z"/><path d="M30.4,84c0.5-0.2,0.7-0.8,0.5-1.3l-5.9-13c-0.2-0.5-0.8-0.7-1.3-0.5l-13,5.9c-0.5,0.2-0.7,0.8-0.5,1.3l5.9,13  c0.2,0.4,0.5,0.6,0.9,0.6c0.1,0,0.3,0,0.4-0.1L30.4,84z M12.5,76.5l11.2-5.1l5.1,11.2l-11.2,5.1L12.5,76.5z"/><path d="M55.9,39.3c-3.6,3.6-3.6,9.4,0,12.9c1.8,1.8,4.1,2.7,6.5,2.7c2.3,0,4.7-0.9,6.5-2.7c3.6-3.6,3.6-9.4,0-12.9  C65.3,35.7,59.5,35.7,55.9,39.3z M67.4,50.8c-2.8,2.8-7.3,2.8-10.1,0c-2.8-2.8-2.8-7.3,0-10.1c1.4-1.4,3.2-2.1,5.1-2.1  c1.8,0,3.7,0.7,5,2.1C70.2,43.5,70.2,48,67.4,50.8z"/><path d="M81.9,57.6c-4.6,0-8.3,3.7-8.3,8.3c0,4.6,3.7,8.3,8.3,8.3s8.3-3.7,8.3-8.3C90.1,61.3,86.4,57.6,81.9,57.6z M81.9,72.1  c-3.5,0-6.3-2.8-6.3-6.3s2.8-6.3,6.3-6.3s6.3,2.8,6.3,6.3S85.3,72.1,81.9,72.1z"/><path d="M39.1,52.6l2.4-8.8c0.1-0.3,0-0.7-0.3-1l-6.5-6.5c-0.3-0.3-0.6-0.4-1-0.3L25,38.4c-0.3,0.1-0.6,0.4-0.7,0.7l-2.4,8.8  c-0.1,0.3,0,0.7,0.3,1l6.5,6.5c0.2,0.2,0.4,0.3,0.7,0.3c0.1,0,0.2,0,0.3,0l8.8-2.4C38.8,53.2,39,52.9,39.1,52.6z M29.6,53.6L24,47.9  l2.1-7.7l7.7-2.1l5.7,5.7l-2.1,7.7L29.6,53.6z"/><path d="M88.8,13.8c-0.1-0.4-0.3-0.6-0.6-0.8l-8.3-3c-0.3-0.1-0.7-0.1-1,0.2L72.1,16c-0.3,0.2-0.4,0.6-0.3,0.9l1.6,8.7  c0.1,0.4,0.3,0.6,0.6,0.8l8.3,3c0.1,0,0.2,0.1,0.3,0.1c0.2,0,0.5-0.1,0.6-0.2l6.7-5.7c0.3-0.2,0.4-0.6,0.3-0.9L88.8,13.8z   M82.4,27.3l-7.3-2.6l-1.4-7.6l5.9-5l7.3,2.6l1.4,7.6L82.4,27.3z"/><path d="M52.9,54.1l-18,5.5c-0.3,0.1-0.6,0.4-0.7,0.7c-0.1,0.3,0,0.7,0.3,0.9L47,73.7c0.2,0.2,0.4,0.3,0.7,0.3c0.1,0,0.2,0,0.2,0  c0.3-0.1,0.6-0.3,0.7-0.7l5.5-18c0.1-0.4,0-0.7-0.2-1C53.6,54,53.2,54,52.9,54.1z M47.2,71.2L37,61l14.6-4.5L47.2,71.2z"/><path d="M63.5,72.6l-8.5,16c-0.2,0.3-0.2,0.7,0,1c0.2,0.3,0.5,0.5,0.9,0.5h17.1c0.4,0,0.7-0.2,0.9-0.5c0.2-0.3,0.2-0.7,0-1l-8.5-16  C64.9,72,63.9,72,63.5,72.6z M71.3,88.1H57.5l6.9-12.9L71.3,88.1z"/><text x="0" y="115" fill="#000000" font-size="5px" font-weight="bold" font-family="'Helvetica Neue', Helvetica, Arial-Unicode, Arial, Sans-serif">Created by Made by Made</text><text x="0" y="120" fill="#000000" font-size="5px" font-weight="bold" font-family="'Helvetica Neue', Helvetica, Arial-Unicode, Arial, Sans-serif">from the Noun Project</text></svg>