<?xml version="1.0" encoding="UTF-8" standalone="no"?>
<svg
   xmlns:dc="http://purl.org/dc/elements/1.1/"
   xmlns:cc="http://creativecommons.org/ns#"
   xmlns:rdf="http://www.w3.org/1999/02/22-rdf-syntax-ns#"
   xmlns:svg="http://www.w3.org/2000/svg"
   xmlns="http://www.w3.org/2000/svg"
   xmlns:sodipodi="http://sodipodi.sourceforge.net/DTD/sodipodi-0.dtd"
   xmlns:inkscape="http://www.inkscape.org/namespaces/inkscape"
   sodipodi:docname="Fig9.6-français.svg"
   inkscape:version="1.0 (4035a4fb49, 2020-05-01)"
   id="svg8"
   version="1.1"
   viewBox="0 0 204.20813 131.34773"
   height="131.34773mm"
   width="204.20813mm">
  <defs
     id="defs2">
    <rect
       id="rect1536"
       height="45.456863"
       width="89.90358"
       y="238.16631"
       x="711.40253" />
    <clipPath
       clipPathUnits="userSpaceOnUse"
       id="clipEmfPath1">
      <path
         d="M 0,0 H 791.52029 V 522.08359 H 0 Z"
         id="path833" />
    </clipPath>
    <pattern
       id="EMFhbasepattern"
       patternUnits="userSpaceOnUse"
       width="6"
       height="6"
       x="0"
       y="0" />
  </defs>
  <sodipodi:namedview
     fit-margin-bottom="0"
     fit-margin-right="0"
     fit-margin-left="0"
     fit-margin-top="0"
     inkscape:window-maximized="1"
     inkscape:window-y="-8"
     inkscape:window-x="1272"
     inkscape:window-height="1017"
     inkscape:window-width="1920"
     showgrid="false"
     inkscape:document-rotation="0"
     inkscape:current-layer="layer1"
     inkscape:document-units="mm"
     inkscape:cy="145.05243"
     inkscape:cx="480.43733"
     inkscape:zoom="2.6294237"
     inkscape:pageshadow="2"
     inkscape:pageopacity="0.0"
     borderopacity="1.0"
     bordercolor="#666666"
     pagecolor="#ffffff"
     id="base" />
  <metadata
     id="metadata5">
    <rdf:RDF>
      <cc:Work
         rdf:about="">
        <dc:format>image/svg+xml</dc:format>
        <dc:type
           rdf:resource="http://purl.org/dc/dcmitype/StillImage" />
        <dc:title></dc:title>
      </cc:Work>
    </rdf:RDF>
  </metadata>
  <g
     transform="translate(-4.5546506,-38.646596)"
     id="layer1"
     inkscape:groupmode="layer"
     inkscape:label="Layer 1">
    <path
       transform="matrix(0.26458333,0,0,0.26458333,3.9415419,35.073084)"
       style="fill:#ffffff;fill-opacity:1;fill-rule:evenodd;stroke:none"
       clip-path="url(#clipEmfPath1)"
       d="M 279.75664,62.751106 V 96.442975 H 444.07153 V 62.751106 Z"
       id="path839" />
    <path
       transform="matrix(0.26458333,0,0,0.26458333,3.9415419,35.073084)"
       style="fill:none;stroke:#000000;stroke-width:0.42132px;stroke-linecap:round;stroke-linejoin:round;stroke-miterlimit:4;stroke-dasharray:none;stroke-opacity:1"
       clip-path="url(#clipEmfPath1)"
       d="M 279.75664,96.442975 H 444.07153 V 62.751106 H 279.75664 Z"
       id="path841" />
    <g
       transform="matrix(0.26458333,0,0,0.26458333,3.9415419,35.073084)"
       clip-path="url(#clipEmfPath1)"
       id="g849">
      <text
         xml:space="preserve"
         style="font-style:normal;font-variant:normal;font-weight:400;font-size:15px;line-height:125%;font-family:Helvetica;text-align:start;letter-spacing:0px;word-spacing:0px;text-anchor:start;fill:#000000;fill-opacity:1;stroke:none"
         transform="translate(332.42167,84.08929)"
         x="0"
         y="0"
         id="text847"><tspan
           sodipodi:role="line"
           x="0"
           y="0"
           id="tspan845">Paiement<tspan
   style="font-style:normal;font-variant:normal;font-weight:400;font-size:15px;font-family:Helvetica;fill:#000000"
   id="tspan843" /></tspan></text>
    </g>
    <path
       transform="matrix(0.26458333,0,0,0.26458333,3.9415419,35.073084)"
       style="fill:#ffffff;fill-opacity:1;fill-rule:evenodd;stroke:none"
       clip-path="url(#clipEmfPath1)"
       d="M 279.75664,96.442975 V 130.13484 H 444.07153 V 96.442975 Z"
       id="path851" />
    <path
       transform="matrix(0.26458333,0,0,0.26458333,3.9415419,35.073084)"
       style="fill:none;stroke:#000000;stroke-width:0.42132px;stroke-linecap:round;stroke-linejoin:round;stroke-miterlimit:4;stroke-dasharray:none;stroke-opacity:1"
       clip-path="url(#clipEmfPath1)"
       d="M 279.75664,130.13484 H 444.07153 V 96.442975 H 279.75664 Z"
       id="path853" />
    <g
       transform="matrix(0.26458333,0,0,0.26458333,3.9415419,35.073084)"
       clip-path="url(#clipEmfPath1)"
       id="g861">
      <text
         xml:space="preserve"
         style="font-style:normal;font-variant:normal;font-weight:400;font-size:15px;line-height:125%;font-family:Helvetica;text-align:start;letter-spacing:0px;word-spacing:0px;text-anchor:start;fill:#000000;fill-opacity:1;stroke:none"
         transform="translate(288.60436,117.78116)"
         x="0"
         y="0"
         id="text859"><tspan
           sodipodi:role="line"
           x="0"
           y="0"
           id="tspan857">montant<tspan
   style="font-style:normal;font-variant:normal;font-weight:400;font-size:15px;font-family:Helvetica;fill:#000000"
   id="tspan855" /></tspan></text>
    </g>
    <path
       transform="matrix(0.26458333,0,0,0.26458333,3.9415419,35.073084)"
       style="fill:#ffffff;fill-opacity:1;fill-rule:evenodd;stroke:none"
       clip-path="url(#clipEmfPath1)"
       d="m 570.32716,54.187756 v 33.691869 h 164.3149 V 54.187756 Z"
       id="path863" />
    <path
       transform="matrix(0.26458333,0,0,0.26458333,3.9415419,35.073084)"
       style="fill:none;stroke:#000000;stroke-width:0.42132px;stroke-linecap:round;stroke-linejoin:round;stroke-miterlimit:4;stroke-dasharray:none;stroke-opacity:1"
       clip-path="url(#clipEmfPath1)"
       d="m 570.32716,87.879625 h 164.3149 V 54.187756 h -164.3149 z"
       id="path865" />
    <g
       transform="matrix(0.26458333,0,0,0.26458333,3.9415419,35.073084)"
       clip-path="url(#clipEmfPath1)"
       id="g873">
      <text
         xml:space="preserve"
         style="font-style:normal;font-variant:normal;font-weight:400;font-size:15px;line-height:125%;font-family:Helvetica;text-align:start;letter-spacing:0px;word-spacing:0px;text-anchor:start;fill:#000000;fill-opacity:1;stroke:none"
         transform="translate(637.45752,75.52594)"
         x="0"
         y="0"
         id="text871"><tspan
           sodipodi:role="line"
           x="0"
           y="0"
           id="tspan869">Vente<tspan
   style="font-style:normal;font-variant:normal;font-weight:400;font-size:15px;font-family:Helvetica;fill:#000000"
   id="tspan867" /></tspan></text>
    </g>
    <path
       transform="matrix(0.26458333,0,0,0.26458333,3.9415419,35.073084)"
       style="fill:#ffffff;fill-opacity:1;fill-rule:evenodd;stroke:none"
       clip-path="url(#clipEmfPath1)"
       d="m 570.32716,87.879625 v 50.958955 h 164.3149 V 87.879625 Z"
       id="path875" />
    <path
       transform="matrix(0.26458333,0,0,0.26458333,3.9415419,35.073084)"
       style="fill:none;stroke:#000000;stroke-width:0.42132px;stroke-linecap:round;stroke-linejoin:round;stroke-miterlimit:4;stroke-dasharray:none;stroke-opacity:1"
       clip-path="url(#clipEmfPath1)"
       d="m 570.32716,138.83858 h 164.3149 V 87.879625 h -164.3149 z"
       id="path877" />
    <g
       transform="matrix(0.26458333,0,0,0.26458333,3.9415419,35.073084)"
       clip-path="url(#clipEmfPath1)"
       id="g889">
      <text
         xml:space="preserve"
         style="font-style:normal;font-variant:normal;font-weight:400;font-size:15px;line-height:119.793%;font-family:Helvetica;text-align:start;letter-spacing:0px;word-spacing:0px;text-anchor:start;fill:#000000;fill-opacity:1;stroke:none"
         transform="translate(579.17489,108.79666)"
         x="0"
         y="0"
         id="text887"><tspan
           sodipodi:role="line"
           x="0"
           y="0"
           id="tspan881"><tspan
             dx="0"
             dy="0"
             style="font-style:normal;font-variant:normal;font-weight:400;font-size:15px;font-family:Helvetica;fill:#000000"
             id="tspan879">date</tspan></tspan><tspan
           id="tspan1548"
           sodipodi:role="line"
           x="0"
           y="17.96895"><tspan
             id="tspan1550"
             style="font-style:normal;font-variant:normal;font-weight:400;font-size:15px;font-family:Helvetica;fill:#000000">heure</tspan></tspan><tspan
           sodipodi:role="line"
           x="0"
           y="17.96895"
           id="tspan885"><tspan
             style="font-style:normal;font-variant:normal;font-weight:400;font-size:15px;font-family:Helvetica;fill:#000000"
             id="tspan883" /></tspan></text>
    </g>
    <path
       transform="matrix(0.26458333,0,0,0.26458333,3.9415419,35.073084)"
       style="fill:none;stroke:#000000;stroke-width:0.42132px;stroke-linecap:round;stroke-linejoin:round;stroke-miterlimit:4;stroke-dasharray:none;stroke-opacity:1"
       clip-path="url(#clipEmfPath1)"
       d="M 444.07153,96.442975 H 570.32716"
       id="path891" />
    <g
       transform="matrix(0.26458333,0,0,0.26458333,3.9415419,35.073084)"
       clip-path="url(#clipEmfPath1)"
       id="g903">
      <text
         xml:space="preserve"
         style="font-style:normal;font-variant:normal;font-weight:400;font-size:15px;line-height:125%;font-family:Helvetica;text-align:start;letter-spacing:0px;word-spacing:0px;text-anchor:start;fill:#000000;fill-opacity:1;stroke:none"
         transform="translate(479.32199,93.494936)"
         x="0"
         y="0"
         id="text901"><tspan
           sodipodi:role="line"
           x="0"
           y="0"
           id="tspan899">Règle</tspan></text>
    </g>
    <path
       transform="matrix(0.26458333,0,0,0.26458333,3.9415419,35.073084)"
       style="fill:#ffffff;fill-opacity:1;fill-rule:evenodd;stroke:none"
       clip-path="url(#clipEmfPath1)"
       d="m 273.43684,265.32347 v 33.69187 h 164.31489 v -33.69187 z"
       id="path905" />
    <path
       transform="matrix(0.26458333,0,0,0.26458333,3.9415419,35.073084)"
       style="fill:none;stroke:#000000;stroke-width:0.42132px;stroke-linecap:round;stroke-linejoin:round;stroke-miterlimit:4;stroke-dasharray:none;stroke-opacity:1"
       clip-path="url(#clipEmfPath1)"
       d="M 273.43684,299.01534 H 437.75173 V 265.32347 H 273.43684 Z"
       id="path907" />
    <g
       transform="matrix(0.26458333,0,0,0.26458333,3.9415419,35.073084)"
       clip-path="url(#clipEmfPath1)"
       id="g915">
      <text
         xml:space="preserve"
         style="font-style:normal;font-variant:normal;font-weight:400;font-size:15px;line-height:125%;font-family:Helvetica;text-align:start;letter-spacing:0px;word-spacing:0px;text-anchor:start;fill:#000000;fill-opacity:1;stroke:none"
         transform="translate(325.96143,286.66165)"
         x="0"
         y="0"
         id="text913"><tspan
           sodipodi:role="line"
           x="0"
           y="0"
           id="tspan911">Paiement<tspan
   style="font-style:normal;font-variant:normal;font-weight:400;font-size:15px;font-family:Helvetica;fill:#000000"
   id="tspan909" /></tspan></text>
    </g>
    <path
       transform="matrix(0.26458333,0,0,0.26458333,3.9415419,35.073084)"
       style="fill:#ffffff;fill-opacity:1;fill-rule:evenodd;stroke:none"
       clip-path="url(#clipEmfPath1)"
       d="m 273.43684,299.01534 v 33.69187 h 164.31489 v -33.69187 z"
       id="path917" />
    <path
       transform="matrix(0.26458333,0,0,0.26458333,3.9415419,35.073084)"
       style="fill:none;stroke:#000000;stroke-width:0.42132px;stroke-linecap:round;stroke-linejoin:round;stroke-miterlimit:4;stroke-dasharray:none;stroke-opacity:1"
       clip-path="url(#clipEmfPath1)"
       d="M 273.43684,332.70721 H 437.75173 V 299.01534 H 273.43684 Z"
       id="path919" />
    <g
       transform="matrix(0.26458333,0,0,0.26458333,3.9415419,35.073084)"
       clip-path="url(#clipEmfPath1)"
       id="g931">
      <text
         xml:space="preserve"
         style="font-style:normal;font-variant:normal;font-weight:400;font-size:15px;line-height:125%;font-family:Helvetica;text-align:start;letter-spacing:0px;word-spacing:0px;text-anchor:start;fill:#000000;fill-opacity:1;stroke:none"
         transform="translate(282.28456,320.35352)"
         x="0"
         y="0"
         id="text929"><tspan
           sodipodi:role="line"
           x="0"
           y="0"
           id="tspan927"><tspan
             dx="0 0 0 0 0 0 0 0 0 0"
             dy="0 0 0 0 0 0 0 0 0 0"
             style="font-style:normal;font-variant:normal;font-weight:400;font-size:15px;font-family:Helvetica;fill:#000000"
             id="tspan923">montant: Monnaie</tspan></tspan></text>
    </g>
    <path
       transform="matrix(0.26458333,0,0,0.26458333,3.9415419,35.073084)"
       style="fill:#ffffff;fill-opacity:1;fill-rule:evenodd;stroke:none"
       clip-path="url(#clipEmfPath1)"
       d="m 273.43684,332.70721 v 33.69186 h 164.31489 v -33.69186 z"
       id="path933" />
    <path
       transform="matrix(0.26458333,0,0,0.26458333,3.9415419,35.073084)"
       style="fill:none;stroke:#000000;stroke-width:0.42132px;stroke-linecap:round;stroke-linejoin:round;stroke-miterlimit:4;stroke-dasharray:none;stroke-opacity:1"
       clip-path="url(#clipEmfPath1)"
       d="M 273.43684,366.39907 H 437.75173 V 332.70721 H 273.43684 Z"
       id="path935" />
    <g
       transform="matrix(0.26458333,0,0,0.26458333,3.9415419,35.073084)"
       clip-path="url(#clipEmfPath1)"
       id="g947">
      <text
         xml:space="preserve"
         style="font-style:normal;font-variant:normal;font-weight:400;font-size:15px;line-height:125%;font-family:Helvetica;text-align:start;letter-spacing:0px;word-spacing:0px;text-anchor:start;fill:#000000;fill-opacity:1;stroke:none"
         transform="translate(282.28456,354.04539)"
         x="0"
         y="0"
         id="text945"><tspan
           sodipodi:role="line"
           x="0"
           y="0"
           id="tspan943"><tspan
             dx="0"
             dy="0"
             style="font-style:normal;font-variant:normal;font-weight:400;font-size:15px;font-family:Helvetica;fill:#000000"
             id="tspan937">geSolde</tspan><tspan
             dx="0"
             dy="0"
             style="font-style:normal;font-variant:normal;font-weight:400;font-size:15px;font-family:Helvetica;fill:#000000"
             id="tspan939">(): </tspan><tspan
             dx="0"
             dy="0"
             style="font-style:normal;font-variant:normal;font-weight:400;font-size:15px;font-family:Helvetica;fill:#000000"
             id="tspan941">Monnaie</tspan></tspan></text>
    </g>
    <path
       transform="matrix(0.26458333,0,0,0.26458333,3.9415419,35.073084)"
       style="fill:#ffffff;fill-opacity:1;fill-rule:evenodd;stroke:none"
       clip-path="url(#clipEmfPath1)"
       d="m 568.08012,248.05639 v 33.69186 h 164.3149 v -33.69186 z"
       id="path949" />
    <path
       transform="matrix(0.26458333,0,0,0.26458333,3.9415419,35.073084)"
       style="fill:none;stroke:#000000;stroke-width:0.42132px;stroke-linecap:round;stroke-linejoin:round;stroke-miterlimit:4;stroke-dasharray:none;stroke-opacity:1"
       clip-path="url(#clipEmfPath1)"
       d="m 568.08012,281.74825 h 164.3149 v -33.69186 h -164.3149 z"
       id="path951" />
    <g
       transform="matrix(0.26458333,0,0,0.26458333,3.9415419,35.073084)"
       clip-path="url(#clipEmfPath1)"
       id="g959">
      <text
         xml:space="preserve"
         style="font-style:normal;font-variant:normal;font-weight:400;font-size:15px;line-height:125%;font-family:Helvetica;text-align:start;letter-spacing:0px;word-spacing:0px;text-anchor:start;fill:#000000;fill-opacity:1;stroke:none"
         transform="translate(635.21048,269.39457)"
         x="0"
         y="0"
         id="text957"><tspan
           sodipodi:role="line"
           x="0"
           y="0"
           id="tspan955">Vente<tspan
   style="font-style:normal;font-variant:normal;font-weight:400;font-size:15px;font-family:Helvetica;fill:#000000"
   id="tspan953" /></tspan></text>
    </g>
    <path
       transform="matrix(0.26458333,0,0,0.26458333,3.9415419,35.073084)"
       style="fill:#ffffff;fill-opacity:1;fill-rule:evenodd;stroke:none"
       clip-path="url(#clipEmfPath1)"
       d="m 568.08012,281.74825 v 50.95896 h 164.3149 v -50.95896 z"
       id="path961" />
    <path
       transform="matrix(0.26458333,0,0,0.26458333,3.9415419,35.073084)"
       style="fill:none;stroke:#000000;stroke-width:0.42132px;stroke-linecap:round;stroke-linejoin:round;stroke-miterlimit:4;stroke-dasharray:none;stroke-opacity:1"
       clip-path="url(#clipEmfPath1)"
       d="m 568.08012,332.70721 h 164.3149 v -50.95896 h -164.3149 z"
       id="path963" />
    <g
       transform="matrix(0.26458333,0,0,0.26458333,3.9415419,35.073084)"
       clip-path="url(#clipEmfPath1)"
       id="g983">
      <text
         xml:space="preserve"
         style="font-style:normal;font-variant:normal;font-weight:400;font-size:15px;line-height:119.793%;font-family:Helvetica;text-align:start;letter-spacing:0px;word-spacing:0px;text-anchor:start;fill:#000000;fill-opacity:1;stroke:none"
         transform="translate(576.92785,302.66529)"
         x="0"
         y="0"
         id="text981"><tspan
           sodipodi:role="line"
           x="0"
           y="0"
           id="tspan971"><tspan
             dx="0"
             dy="0"
             style="font-style:normal;font-variant:normal;font-weight:400;font-size:15px;font-family:Helvetica;fill:#000000"
             id="tspan965">date</tspan><tspan
             dx="0"
             dy="0"
             style="font-style:normal;font-variant:normal;font-weight:400;font-size:15px;font-family:Helvetica;fill:#000000"
             id="tspan967">: </tspan><tspan
             dx="0"
             dy="0"
             style="font-style:normal;font-variant:normal;font-weight:400;font-size:15px;font-family:Helvetica;fill:#000000"
             id="tspan969">Date</tspan></tspan><tspan
           sodipodi:role="line"
           x="0"
           y="17.96895"
           id="tspan979"><tspan
             dx="0 0 0 0 0 0 0 0 0 0.40715301 0"
             dy="0 0 0 0 0 0 0 0 0 0 0"
             style="font-style:normal;font-variant:normal;font-weight:400;font-size:15px;font-family:Helvetica;fill:#000000"
             id="tspan975">dateDébut: Date</tspan></tspan></text>
    </g>
    <path
       transform="matrix(0.26458333,0,0,0.26458333,3.9415419,35.073084)"
       style="fill:#ffffff;fill-opacity:1;fill-rule:evenodd;stroke:none"
       clip-path="url(#clipEmfPath1)"
       d="m 568.08012,332.70721 v 50.95895 h 164.3149 v -50.95895 z"
       id="path985" />
    <path
       transform="matrix(0.26458333,0,0,0.26458333,3.9415419,35.073084)"
       style="fill:none;stroke:#000000;stroke-width:0.42132px;stroke-linecap:round;stroke-linejoin:round;stroke-miterlimit:4;stroke-dasharray:none;stroke-opacity:1"
       clip-path="url(#clipEmfPath1)"
       d="m 568.08012,383.66616 h 164.3149 v -50.95895 h -164.3149 z"
       id="path987" />
    <g
       transform="matrix(0.26458333,0,0,0.26458333,3.9415419,35.073084)"
       clip-path="url(#clipEmfPath1)"
       id="g1003">
      <text
         xml:space="preserve"
         style="font-style:normal;font-variant:normal;font-weight:400;font-size:15px;line-height:119.793%;font-family:Helvetica;text-align:start;letter-spacing:0px;word-spacing:0px;text-anchor:start;fill:#000000;fill-opacity:1;stroke:none"
         transform="translate(576.92785,353.62424)"
         x="0"
         y="0"
         id="text1001"><tspan
           sodipodi:role="line"
           x="0"
           y="0"
           id="tspan995"><tspan
             dx="0"
             dy="0"
             style="font-style:normal;font-variant:normal;font-weight:400;font-size:15px;font-family:Helvetica;fill:#000000"
             id="tspan989">getTotal</tspan><tspan
             dx="1.53281"
             dy="0"
             style="font-style:normal;font-variant:normal;font-weight:400;font-size:15px;font-family:Helvetica;fill:#000000"
             id="tspan991">(): </tspan><tspan
             dx="0"
             dy="0"
             style="font-style:normal;font-variant:normal;font-weight:400;font-size:15px;font-family:Helvetica;fill:#000000"
             id="tspan993">Monaie</tspan></tspan><tspan
           sodipodi:role="line"
           x="0"
           y="17.96895"
           id="tspan999"><tspan
             dx="0"
             dy="0"
             style="font-style:normal;font-variant:normal;font-weight:400;font-size:15px;font-family:Helvetica;fill:#000000"
             id="tspan997">. . .</tspan></tspan></text>
    </g>
    <path
       transform="matrix(0.26458333,0,0,0.26458333,3.9415419,35.073084)"
       style="fill:none;stroke:#000000;stroke-width:0.42132px;stroke-linecap:round;stroke-linejoin:round;stroke-miterlimit:4;stroke-dasharray:none;stroke-opacity:1"
       clip-path="url(#clipEmfPath1)"
       d="M 437.75173,315.86127 H 568.08012"
       id="path1005" />
    <path
       transform="matrix(0.26458333,0,0,0.26458333,3.9415419,35.073084)"
       style="fill:none;stroke:#000000;stroke-width:0.42132px;stroke-linecap:round;stroke-linejoin:round;stroke-miterlimit:4;stroke-dasharray:none;stroke-opacity:1"
       clip-path="url(#clipEmfPath1)"
       d="m 453.48102,307.99984 -15.72929,7.86143 15.72929,7.86144"
       id="path1007" />
    <path
       transform="matrix(0.26458333,0,0,0.26458333,3.9415419,35.073084)"
       style="fill:none;stroke:#000000;stroke-width:0.42132px;stroke-linecap:round;stroke-linejoin:round;stroke-miterlimit:4;stroke-dasharray:none;stroke-opacity:1"
       clip-path="url(#clipEmfPath1)"
       d="m 552.35083,323.72271 15.72929,-7.86144 -15.72929,-7.86143"
       id="path1009" />
    <g
       transform="matrix(0.26458333,0,0,0.26458333,3.9415419,35.073084)"
       clip-path="url(#clipEmfPath1)"
       id="g1043">
      <text
         xml:space="preserve"
         style="font-style:normal;font-variant:normal;font-weight:400;font-size:15px;line-height:125%;font-family:Helvetica;text-align:start;letter-spacing:0px;word-spacing:0px;text-anchor:start;fill:#000000;fill-opacity:1;stroke:none"
         transform="translate(474.96835,312.77285)"
         x="0"
         y="0"
         id="text1019"><tspan
           sodipodi:role="line"
           x="0"
           y="0"
           id="tspan1017">Règle</tspan></text>
      <text
         xml:space="preserve"
         style="font-style:normal;font-variant:normal;font-weight:700;font-size:15px;line-height:125%;font-family:Helvetica;text-align:start;letter-spacing:0px;word-spacing:0px;text-anchor:start;fill:#000000;fill-opacity:1;stroke:none"
         x="356.27966"
         y="24.426598"
         id="text1025"><tspan
           sodipodi:role="line"
           x="356.27966"
           y="24.426598"
           id="tspan1023">Modèle du Domaine du Processus Unifié</tspan></text>
      <text
         xml:space="preserve"
         style="font-style:normal;font-variant:normal;font-weight:400;font-size:15px;line-height:125%;font-family:Helvetica;text-align:start;letter-spacing:0px;word-spacing:0px;text-anchor:start;fill:#000000;fill-opacity:1;stroke:none"
         x="258.77356"
         y="42.395592"
         id="text1033"><tspan
           sodipodi:role="line"
           x="258.77356"
           y="42.395592"
           id="tspan1031">Façon dont les parties prenantes voient les concepts significatifs du domaine.<tspan
   style="font-style:normal;font-variant:normal;font-weight:400;font-size:15px;font-family:Helvetica;fill:#000000"
   id="tspan1027" /></tspan></text>
    </g>
    <path
       transform="matrix(0.26458333,0,0,0.26458333,3.9415419,35.073084)"
       style="fill:#000000;fill-opacity:1;fill-rule:nonzero;stroke:#000000;stroke-width:0.14044px;stroke-linecap:round;stroke-linejoin:round;stroke-miterlimit:4;stroke-dasharray:none;stroke-opacity:1"
       clip-path="url(#clipEmfPath1)"
       d="m 271.33023,180.39188 h 33.70562 0.28088 l 0.14044,0.14038 h 0.14044 l 0.28088,0.14039 0.14044,0.28076 v 0.14039 l 0.14044,0.14038 v 0.28076 0.28077 l -0.14044,0.14038 v 0.28077 l -0.14044,0.14038 -0.28088,0.14038 h -0.14044 l -0.14044,0.14039 h -0.28088 -33.70562 -0.28088 l -0.14044,-0.14039 h -0.14044 l -0.28088,-0.14038 -0.14044,-0.14038 v -0.28077 l -0.14044,-0.14038 v -0.28077 -0.28076 l 0.14044,-0.14038 v -0.14039 l 0.14044,-0.28076 0.28088,-0.14039 h 0.14044 l 0.14044,-0.14038 z m 53.929,0 h 33.70561 0.28088 l 0.14044,0.14038 h 0.14044 l 0.28088,0.14039 0.14044,0.28076 v 0.14039 l 0.14045,0.14038 v 0.28076 0.28077 l -0.14045,0.14038 v 0.28077 l -0.14044,0.14038 -0.28088,0.14038 h -0.14044 l -0.14044,0.14039 h -0.28088 -33.70561 -0.28088 l -0.14045,-0.14039 h -0.14044 l -0.28088,-0.14038 -0.14044,-0.14038 v -0.28077 l -0.14044,-0.14038 v -0.28077 -0.28076 l 0.14044,-0.14038 v -0.14039 l 0.14044,-0.28076 0.28088,-0.14039 h 0.14044 l 0.14045,-0.14038 z m 53.92899,0 h 33.70562 0.28088 l 0.14044,0.14038 h 0.14044 l 0.28088,0.14039 0.14044,0.28076 v 0.14039 l 0.14044,0.14038 v 0.28076 0.28077 l -0.14044,0.14038 v 0.28077 l -0.14044,0.14038 -0.28088,0.14038 h -0.14044 l -0.14044,0.14039 h -0.28088 -33.70562 -0.28088 l -0.14044,-0.14039 h -0.14044 l -0.28088,-0.14038 -0.14044,-0.14038 v -0.28077 l -0.14044,-0.14038 v -0.28077 -0.28076 l 0.14044,-0.14038 v -0.14039 l 0.14044,-0.28076 0.28088,-0.14039 h 0.14044 l 0.14044,-0.14038 z m 53.92899,0 h 33.70562 0.28088 l 0.14044,0.14038 h 0.14044 l 0.28088,0.14039 0.14044,0.28076 v 0.14039 l 0.14044,0.14038 v 0.28076 0.28077 l -0.14044,0.14038 v 0.28077 l -0.14044,0.14038 -0.28088,0.14038 h -0.14044 l -0.14044,0.14039 h -0.28088 -33.70562 -0.28088 l -0.14044,-0.14039 h -0.14044 l -0.28088,-0.14038 -0.14044,-0.14038 v -0.28077 l -0.14044,-0.14038 v -0.28077 -0.28076 l 0.14044,-0.14038 v -0.14039 l 0.14044,-0.28076 0.28088,-0.14039 h 0.14044 l 0.14044,-0.14038 z m 53.92899,0 h 33.70562 0.28088 l 0.14044,0.14038 h 0.14044 l 0.28088,0.14039 0.14044,0.28076 v 0.14039 l 0.14044,0.14038 v 0.28076 0.28077 l -0.14044,0.14038 v 0.28077 l -0.14044,0.14038 -0.28088,0.14038 h -0.14044 l -0.14044,0.14039 h -0.28088 -33.70562 -0.28088 l -0.14044,-0.14039 h -0.14044 l -0.28088,-0.14038 -0.14044,-0.14038 v -0.28077 l -0.14044,-0.14038 v -0.28077 -0.28076 l 0.14044,-0.14038 v -0.14039 l 0.14044,-0.28076 0.28088,-0.14039 h 0.14044 l 0.14044,-0.14038 z m 53.92899,0 h 33.70562 0.28088 l 0.14044,0.14038 h 0.14044 l 0.28088,0.14039 0.14044,0.28076 v 0.14039 l 0.14044,0.14038 v 0.28076 0.28077 l -0.14044,0.14038 v 0.28077 l -0.14044,0.14038 -0.28088,0.14038 h -0.14044 l -0.14044,0.14039 h -0.28088 -33.70562 -0.28088 l -0.14044,-0.14039 h -0.14044 l -0.28088,-0.14038 -0.14044,-0.14038 v -0.28077 l -0.14044,-0.14038 v -0.28077 -0.28076 l 0.14044,-0.14038 v -0.14039 l 0.14044,-0.28076 0.28088,-0.14039 h 0.14044 l 0.14044,-0.14038 z m 53.92899,0 h 33.70562 0.28088 l 0.14044,0.14038 h 0.14044 l 0.28088,0.14039 0.14044,0.28076 v 0.14039 l 0.14044,0.14038 v 0.28076 0.28077 l -0.14044,0.14038 v 0.28077 l -0.14044,0.14038 -0.28088,0.14038 h -0.14044 l -0.14044,0.14039 h -0.28088 -33.70562 -0.28088 l -0.14044,-0.14039 h -0.14044 l -0.28088,-0.14038 -0.14044,-0.14038 v -0.28077 l -0.14044,-0.14038 v -0.28077 -0.28076 l 0.14044,-0.14038 v -0.14039 l 0.14044,-0.28076 0.28088,-0.14039 h 0.14044 l 0.14044,-0.14038 z m 53.92899,0 h 33.70562 0.28088 l 0.14044,0.14038 h 0.14044 l 0.28088,0.14039 0.14044,0.28076 v 0.14039 l 0.14044,0.14038 v 0.28076 0.28077 l -0.14044,0.14038 v 0.28077 l -0.14044,0.14038 -0.28088,0.14038 h -0.14044 l -0.14044,0.14039 h -0.28088 -33.70562 -0.28088 l -0.14044,-0.14039 h -0.14044 l -0.28088,-0.14038 -0.14044,-0.14038 v -0.28077 l -0.14044,-0.14038 v -0.28077 -0.28076 l 0.14044,-0.14038 v -0.14039 l 0.14044,-0.28076 0.28088,-0.14039 h 0.14044 l 0.14044,-0.14038 z m 53.92899,0 h 33.70562 0.28088 l 0.14044,0.14038 h 0.14044 l 0.28088,0.14039 0.14044,0.28076 v 0.14039 l 0.14044,0.14038 v 0.28076 0.28077 l -0.14044,0.14038 v 0.28077 l -0.14044,0.14038 -0.28088,0.14038 h -0.14044 l -0.14044,0.14039 h -0.28088 -33.70562 -0.28088 l -0.14044,-0.14039 h -0.14044 l -0.28088,-0.14038 -0.14044,-0.14038 v -0.28077 l -0.14044,-0.14038 v -0.28077 -0.28076 l 0.14044,-0.14038 v -0.14039 l 0.14044,-0.28076 0.28088,-0.14039 h 0.14044 l 0.14044,-0.14038 z"
       id="path1045" />
    <g
       transform="matrix(0.26458333,0,0,0.26458333,-0.29179161,35.073084)"
       clip-path="url(#clipEmfPath1)"
       id="g1117">
      <text
         xml:space="preserve"
         style="font-style:normal;font-variant:normal;font-weight:700;font-size:15px;line-height:125%;font-family:Helvetica;text-align:start;letter-spacing:0px;word-spacing:0px;text-anchor:start;fill:#000000;fill-opacity:1;stroke:none"
         x="367.13245"
         y="416.93689"
         id="text1051"><tspan
           sodipodi:role="line"
           x="367.13245"
           y="416.93689"
           id="tspan1049">Modèle de Conception du Processus Unifié</tspan></text>
      <text
         xml:space="preserve"
         style="font-style:normal;font-variant:normal;font-weight:400;font-size:15px;line-height:119.793%;font-family:Helvetica;text-align:start;letter-spacing:0px;word-spacing:0px;text-anchor:start;fill:#000000;fill-opacity:1;stroke:none"
         transform="translate(457.13246,416.93688)"
         x="-200.96976"
         y="17.968996"
         id="text1067"><tspan
           sodipodi:role="line"
           x="-200.96976"
           y="17.968996"
           id="tspan1065"><tspan
             dx="0 0 0 0 0 0 0 0 0 0 0 0 0 0 0 0 0 0 0 0 0 0 0 0 0 0 0 0 0 0 0 0 0 0 0 0 0 0 0 0 0 0 0 0 0 0 0 0 0 0 0 0 0"
             dy="0 0 0 0 0 0 0 0 0 0 0 0 0 0 0 0 0 0 0 0 0 0 0 0 0 0 0 0 0 0 0 0 0 0 0 0 0 0 0 0 0 0 0 0 0 0 0 0 0 0 0 0 0"
             style="font-style:normal;font-variant:normal;font-weight:400;font-size:15px;font-family:Helvetica;fill:#000000"
             id="tspan1053">Le développeur orienté objet s'est inspiré du domaine </tspan></tspan><tspan
           id="tspan1558"
           sodipodi:role="line"
           x="-200.96976"
           y="35.937946"><tspan
             id="tspan1560"
             style="font-style:normal;font-variant:normal;font-weight:400;font-size:15px;font-family:Helvetica;fill:#000000">du monde réel pour créer les classes logicielles.</tspan></tspan></text>
      <text
         xml:space="preserve"
         style="font-style:normal;font-variant:normal;font-weight:400;font-size:15px;line-height:119.793%;font-family:Helvetica;text-align:start;letter-spacing:0px;word-spacing:0px;text-anchor:start;fill:#000000;fill-opacity:1;stroke:none"
         transform="translate(457.13246,416.93688)"
         x="-200.96976"
         y="71.875984"
         id="text1091"><tspan
           sodipodi:role="line"
           x="-200.96976"
           y="71.875984"
           id="tspan1089"><tspan
             style="font-style:normal;font-variant:normal;font-weight:400;font-size:15px;font-family:Helvetica;fill:#000000"
             id="tspan1087">En conséquence, le décalage des représentations entre la façon dont les parties </tspan></tspan><tspan
           id="tspan1567"
           sodipodi:role="line"
           x="-200.96976"
           y="89.844933"><tspan
             id="tspan1569"
             dx="0 0 0 0 0 0 0 0 0 0 0 0 0 0 0 0 0 0 0 0 0 0 0 0 0 0 0 0 0 0 0 0 0 0 0 0 0 0 0 0 0 0 0 0 0 0 0 0 0 0 0 0 0 0 0 0 0 0 0 0 0 0 0 0 0 0 0 0"
             dy="0 0 0 0 0 0 0 0 0 0 0 0 0 0 0 0 0 0 0 0 0 0 0 0 0 0 0 0 0 0 0 0 0 0 0 0 0 0 0 0 0 0 0 0 0 0 0 0 0 0 0 0 0 0 0 0 0 0 0 0 0 0 0 0 0 0 0 0"
             style="font-style:normal;font-variant:normal;font-weight:400;font-size:15px;font-family:Helvetica;fill:#000000">prenantes voient le domaine et sa taduction logicielle a été réduit.</tspan></tspan></text>
      <text
         xml:space="preserve"
         style="font-style:normal;font-variant:normal;font-weight:400;font-size:15px;line-height:125%;font-family:Helvetica;text-align:start;letter-spacing:0px;word-spacing:0px;text-anchor:start;fill:#000000;fill-opacity:1;stroke:none"
         x="463.7619"
         y="92.51226"
         id="text1097"><tspan
           sodipodi:role="line"
           x="463.7619"
           y="92.51226"
           id="tspan1095"><tspan
             dx="0"
             dy="0"
             style="font-style:normal;font-variant:normal;font-weight:400;font-size:15px;font-family:Helvetica;fill:#000000"
             id="tspan1093">1</tspan></tspan></text>
      <text
         xml:space="preserve"
         style="font-style:normal;font-variant:normal;font-weight:400;font-size:15px;line-height:125%;font-family:Helvetica;text-align:start;letter-spacing:0px;word-spacing:0px;text-anchor:start;fill:#000000;fill-opacity:1;stroke:none"
         x="572.87878"
         y="90.406517"
         id="text1103"><tspan
           sodipodi:role="line"
           x="572.87878"
           y="90.406517"
           id="tspan1101"><tspan
             dx="0"
             dy="0"
             style="font-style:normal;font-variant:normal;font-weight:400;font-size:15px;font-family:Helvetica;fill:#000000"
             id="tspan1099">1</tspan></tspan></text>
      <text
         xml:space="preserve"
         style="font-style:normal;font-variant:normal;font-weight:400;font-size:15px;line-height:125%;font-family:Helvetica;text-align:start;letter-spacing:0px;word-spacing:0px;text-anchor:start;fill:#000000;fill-opacity:1;stroke:none"
         x="457.33548"
         y="303.71906"
         id="text1109"><tspan
           sodipodi:role="line"
           x="457.33548"
           y="303.71906"
           id="tspan1107"><tspan
             dx="0"
             dy="0"
             style="font-style:normal;font-variant:normal;font-weight:400;font-size:15px;font-family:Helvetica;fill:#000000"
             id="tspan1105">1</tspan></tspan></text>
      <text
         xml:space="preserve"
         style="font-style:normal;font-variant:normal;font-weight:400;font-size:15px;line-height:125%;font-family:Helvetica;text-align:start;letter-spacing:0px;word-spacing:0px;text-anchor:start;fill:#000000;fill-opacity:1;stroke:none"
         x="570.45233"
         y="303.36722"
         id="text1115"><tspan
           sodipodi:role="line"
           x="570.45233"
           y="303.36722"
           id="tspan1113"><tspan
             dx="0"
             dy="0"
             style="font-style:normal;font-variant:normal;font-weight:400;font-size:15px;font-family:Helvetica;fill:#000000"
             id="tspan1111">1</tspan></tspan></text>
    </g>
    <path
       transform="matrix(0.26458333,0,0,0.26458333,3.9415419,35.073084)"
       style="fill:#ffffff;fill-opacity:1;fill-rule:evenodd;stroke:none"
       clip-path="url(#clipEmfPath1)"
       d="M 2.5279214,46.747468 V 336.21678 H 240.29298 V 46.747468 Z"
       id="path1119" />
    <path
       transform="matrix(0.26458333,0,0,0.26458333,3.9415419,35.073084)"
       style="fill:none;stroke:#000000;stroke-width:0.42132px;stroke-linecap:round;stroke-linejoin:round;stroke-miterlimit:4;stroke-dasharray:none;stroke-opacity:1"
       clip-path="url(#clipEmfPath1)"
       d="M 2.5279214,336.21678 H 240.29298 V 46.747468 H 2.5279214 Z"
       id="path1121" />
    <g
       transform="matrix(0.26458333,0,0,0.26458333,3.9415419,35.073084)"
       clip-path="url(#clipEmfPath1)"
       id="g1195">
      <text
         xml:space="preserve"
         style="font-style:normal;font-variant:normal;font-weight:400;font-size:15px;line-height:119.644%;font-family:Helvetica;text-align:start;letter-spacing:0px;word-spacing:0px;text-anchor:start;white-space:pre;inline-size:233.973;fill:#000000;fill-opacity:1;stroke:none"
         transform="translate(10.111686,88.16039)"
         x="0"
         y="0"
         id="text1169"><tspan
           x="0"
           y="0"><tspan>Dans le Modèle du Domaine un </tspan></tspan><tspan
           x="0"
           y="17.9466"><tspan>Paiement est un concept, mais c' </tspan></tspan><tspan
           x="0"
           y="35.893201"><tspan>est une classe logicielle dans le </tspan></tspan><tspan
           x="0"
           y="53.839803"><tspan>Modèle de Conception. Les deux </tspan></tspan><tspan
           x="0"
           y="71.786405"><tspan>ne sont pas identiques, et le </tspan></tspan><tspan
           x="0"
           y="89.733006"><tspan>premier a inspiré le nom et la </tspan></tspan><tspan
           x="0"
           y="107.67961"><tspan>définition de la seconde.</tspan></tspan></text>
      <text
         xml:space="preserve"
         style="font-style:normal;font-variant:normal;font-weight:400;font-size:15px;line-height:119.793%;font-family:Helvetica;text-align:start;letter-spacing:0px;word-spacing:0px;text-anchor:start;white-space:pre;inline-size:225.098;fill:#000000;fill-opacity:1;stroke:none"
         transform="translate(10.111686,88.16039)"
         x="0"
         y="143.75197"
         id="text1181"><tspan
           x="0"
           y="143.75197"><tspan
             style="font-style:normal;font-variant:normal;font-weight:400;font-size:15px;font-family:Helvetica;fill:#000000">Cela réduit le décalage des </tspan></tspan><tspan
           x="0"
           y="161.72092"><tspan
             style="font-style:normal;font-variant:normal;font-weight:400;font-size:15px;font-family:Helvetica;fill:#000000">représentations, et constitue l'une </tspan></tspan><tspan
           x="0"
           y="179.68987"><tspan
             style="font-style:normal;font-variant:normal;font-weight:400;font-size:15px;font-family:Helvetica;fill:#000000">des grandes idées de la </tspan></tspan><tspan
           x="0"
           y="197.65882"><tspan
             style="font-style:normal;font-variant:normal;font-weight:400;font-size:15px;font-family:Helvetica;fill:#000000">technologie objet..</tspan></tspan></text>
      <text
         style="font-style:normal;font-weight:normal;font-size:40px;line-height:1.25;font-family:sans-serif;letter-spacing:0px;word-spacing:0px;white-space:pre;shape-inside:url(#rect1536);fill:#000000;fill-opacity:1;stroke:none;"
         id="text1534"
         xml:space="preserve" />
    </g>
    <path
       transform="matrix(0.26458333,0,0,0.26458333,3.9415419,35.073084)"
       style="fill:#ffffff;fill-opacity:1;fill-rule:evenodd;stroke:none"
       clip-path="url(#clipEmfPath1)"
       d="m 221.47401,46.747468 18.81897,18.811294 V 46.747468 Z"
       id="path1197" />
    <path
       transform="matrix(0.26458333,0,0,0.26458333,3.9415419,35.073084)"
       style="fill:none;stroke:#ffffff;stroke-width:0.42132px;stroke-linecap:round;stroke-linejoin:round;stroke-miterlimit:4;stroke-dasharray:none;stroke-opacity:1"
       clip-path="url(#clipEmfPath1)"
       d="m 221.47401,46.747468 18.81897,18.811294 V 46.747468 Z"
       id="path1199" />
    <path
       transform="matrix(0.26458333,0,0,0.26458333,3.9415419,35.073084)"
       style="fill:#000000;fill-opacity:1;fill-rule:evenodd;stroke:none"
       clip-path="url(#clipEmfPath1)"
       d="M 240.29298,65.558762 221.47401,46.747468 v 18.811294 z"
       id="path1201" />
    <path
       transform="matrix(0.26458333,0,0,0.26458333,3.9415419,35.073084)"
       style="fill:none;stroke:#000000;stroke-width:0.42132px;stroke-linecap:round;stroke-linejoin:round;stroke-miterlimit:4;stroke-dasharray:none;stroke-opacity:1"
       clip-path="url(#clipEmfPath1)"
       d="M 240.29298,65.558762 221.47401,46.747468 v 18.811294 z"
       id="path1203" />
    <path
       transform="matrix(0.26458333,0,0,0.26458333,3.9415419,35.073084)"
       style="fill:#000000;fill-opacity:1;fill-rule:nonzero;stroke:#000000;stroke-width:0.14044px;stroke-linecap:round;stroke-linejoin:round;stroke-miterlimit:4;stroke-dasharray:none;stroke-opacity:1"
       clip-path="url(#clipEmfPath1)"
       d="m 240.15254,191.34174 v 0 -0.14038 h 0.28088 l 0.14044,0.14038 v 0.14038 0 0 l -0.14044,0.14038 h -0.14044 -0.14044 v -0.14038 h -0.14044 z m 0.84264,-2.10574 v 0 h 0.14044 v -0.14039 l 0.14044,0.14039 h 0.14044 v 0.14038 0.14038 0 h -0.14044 -0.14044 -0.14044 v -0.14038 z m 0.84264,-1.96536 v 0 l 0.14044,-0.14038 v 0 h 0.14044 l 0.14044,0.14038 v 0.14038 0 l -0.14044,0.14038 h -0.14044 l -0.14044,-0.14038 z m 0.84264,-2.10574 v 0 l 0.14044,-0.14039 v 0 h 0.14044 l 0.14044,0.14039 v 0.14038 0 l -0.14044,0.14038 v 0 h -0.14044 l -0.14044,-0.14038 z m 0.84264,-2.10575 v 0 l 0.14044,-0.14038 h 0.14044 l 0.14044,0.14038 v 0.14039 0 l -0.14044,0.14038 v 0 h -0.14044 l -0.14044,-0.14038 v 0 z m 0.84264,-2.10574 v 0 l 0.14044,-0.14038 h 0.14044 l 0.14044,0.14038 v 0.14039 0 0 l -0.14044,0.14038 v 0 h -0.14044 -0.14044 z m 0.84264,-1.96536 v 0 l 0.14044,-0.14038 0.14044,-0.14038 v 0.14038 h 0.14044 l 0.14044,0.14038 -0.14044,0.14039 v 0 0.14038 h -0.28088 l -0.14044,-0.14038 z m 0.98308,-2.10574 v 0 -0.14038 h 0.14044 0.14044 l 0.14044,0.14038 v 0 0.14038 0 l -0.14044,0.14039 h -0.14044 -0.14044 v -0.14039 z m 0.84264,-2.10574 v 0 l 0.14044,-0.14038 v 0 h 0.14044 l 0.14044,0.14038 v 0.14038 0 0 l -0.14044,0.14039 h -0.14044 v 0 l -0.14044,-0.14039 v 0 z m 0.84264,-2.10574 v 0 l 0.14044,-0.14038 h 0.14044 l 0.14044,0.14038 v 0.14038 0 0 l -0.14044,0.14038 h -0.14044 v 0 l -0.14044,-0.14038 v 0 z m 0.84264,-2.10574 v 0 h 0.14044 v -0.14039 l 0.14044,0.14039 h 0.14044 v 0.14038 0.14038 0 h -0.14044 -0.14044 -0.14044 v -0.14038 z m 0.84264,-1.96536 v 0 l 0.14044,-0.14039 h 0.14044 v 0 l 0.14044,0.14039 v 0.14038 0 l -0.14044,0.14038 h -0.14044 l -0.14044,-0.14038 z m 0.84264,-2.10574 v 0 l 0.14044,-0.14039 h 0.14044 v 0 l 0.14044,0.14039 v 0.14038 0 l -0.14044,0.14038 v 0 h -0.14044 l -0.14044,-0.14038 z m 0.84264,-2.10575 v 0 l 0.14044,-0.14038 h 0.14044 l 0.14044,0.14038 v 0.14039 0 0 0.14038 h -0.14044 -0.14044 l -0.14044,-0.14038 v 0 z m 0.98308,-2.10574 v 0 -0.14038 h 0.14044 0.14044 v 0.14038 l 0.14044,0.14038 v 0 h -0.14044 v 0.14039 h -0.14044 -0.14044 v 0 z m 0.84264,-1.96536 v -0.14038 h 0.14044 v -0.14038 l 0.14044,0.14038 h 0.14044 v 0.14038 0.14039 0 l -0.14044,0.14038 h -0.14044 l -0.14044,-0.14038 z m 0.84264,-2.10574 v 0 l 0.14044,-0.14038 v 0 h 0.14044 l 0.14044,0.14038 v 0 0.14038 0 l -0.14044,0.14039 h -0.14044 v 0 l -0.14044,-0.14039 z m 0.84265,-2.10574 v 0 l 0.14044,-0.14038 h 0.14044 l 0.14044,0.14038 v 0 0.14038 0 l -0.14044,0.14038 h -0.14044 v 0 l -0.14044,-0.14038 v 0 z m 0.84264,-2.10574 v 0 l 0.14044,-0.14039 h 0.14044 l 0.14044,0.14039 v 0.14038 0 0 l -0.14044,0.14038 v 0 h -0.14044 l -0.14044,-0.14038 v 0 z m 0.84264,-2.10574 v 0 h 0.14044 l 0.14044,-0.14039 v 0 l 0.14044,0.14039 v 0.28076 0 h -0.14044 -0.14044 -0.14044 v -0.14038 z m 0.84264,-1.96536 v 0 l 0.14044,-0.14039 h 0.14044 v 0 l 0.14044,0.14039 v 0.14038 0 0.14038 h -0.14044 -0.14044 l -0.14044,-0.14038 z m 0.98308,-2.10575 v 0 -0.14038 h 0.14044 0.14044 v 0.14038 0.14039 0 0.14038 h -0.14044 -0.14044 v -0.14038 l -0.14044,-0.14039 z m 0.84264,-2.10574 v 0 l 0.14044,-0.14038 h 0.14044 l 0.14044,0.14038 v 0.14039 0 0 l -0.14044,0.14038 h -0.14044 v 0 l -0.14044,-0.14038 z m 0.84264,-2.10574 v 0 l 0.14044,-0.14038 v 0 h 0.14044 l 0.14044,0.14038 v 0.14038 0 0 l -0.14044,0.14039 h -0.14044 -0.14044 z m 0.84264,-2.10574 v 0 h 0.14044 v -0.14038 l 0.14044,0.14038 h 0.14044 v 0.14038 0.14039 0 l -0.14044,0.14038 h -0.14044 l -0.14044,-0.14038 z m 0.84264,-1.96536 v 0 l 0.14044,-0.14038 h 0.14044 v 0 l 0.14044,0.14038 v 0 0.14038 0 l -0.14044,0.14039 v 0 h -0.14044 l -0.14044,-0.14039 z m 0.84264,-2.10574 v 0 l 0.14044,-0.14038 h 0.14044 l 0.14044,0.14038 v 0.14038 0 0 l -0.14044,0.14038 v 0 h -0.14044 l -0.14044,-0.14038 v 0 z m 0.84264,-2.10574 v 0 l 0.14044,-0.14039 h 0.14044 v 0 l 0.14044,0.14039 v 0.14038 0 0 l -0.14044,0.14038 v 0 h -0.14044 l -0.14044,-0.14038 v 0 z m 0.84264,-2.10574 v 0 l 0.14044,-0.14039 h 0.14044 0.14044 v 0.14039 0.28076 0 0 h -0.28088 -0.14044 v -0.14038 z m 0.98308,-1.96536 v 0 l 0.14044,-0.14039 v 0 h 0.14044 l 0.14044,0.14039 v 0.14038 0 l -0.14044,0.14038 h -0.14044 v 0 l -0.14044,-0.14038 z m 0.84264,-2.10575 v 0 l 0.14044,-0.14038 h 0.14044 l 0.14044,0.14038 v 0 0.14039 0 l -0.14044,0.14038 h -0.14044 v 0 l -0.14044,-0.14038 z m 0.84264,-2.10574 v 0 l 0.14044,-0.14038 h 0.14044 l 0.14044,0.14038 v 0.14039 0 0 l -0.14044,0.14038 h -0.14044 v 0 l -0.14044,-0.14038 z m 0.84264,-2.10574 v 0 l 0.14044,-0.14038 h 0.14044 v 0 l 0.14044,0.14038 v 0.14038 0 0 l -0.14044,0.14039 h -0.14044 -0.14044 z m 0.84264,-2.10574 v 0 h 0.14044 l 0.14044,-0.14038 v 0.14038 h 0.14044 v 0.14038 0.14038 0 l -0.14044,0.14039 v 0 h -0.14044 l -0.14044,-0.14039 z m 0.84264,-1.96536 v 0 l 0.14044,-0.14038 h 0.14044 v 0 l 0.14044,0.14038 v 0 0.14038 0 l -0.14044,0.14039 v 0 h -0.14044 l -0.14044,-0.14039 z m 0.84264,-2.10574 v 0 l 0.14044,-0.14038 h 0.28088 v 0.14038 h 0.14044 l -0.14044,0.14038 v 0 0.14038 h -0.14044 -0.14044 l -0.14044,-0.14038 v 0 z m 0.98308,-2.10574 v 0 -0.14039 h 0.14044 0.14044 l 0.14044,0.14039 v 0.14038 0 l -0.14044,0.14038 h -0.28088 v -0.14038 h -0.14044 z m 0.84264,-2.10575 v 0 l 0.14044,-0.14038 v 0 h 0.14045 l 0.14044,0.14038 v 0.28077 0 h -0.14044 -0.14045 -0.14044 v -0.14038 z m 0.84265,-1.96535 v 0 l 0.14044,-0.14039 v 0 h 0.14044 l 0.14044,0.14039 v 0.14038 0 l -0.14044,0.14038 h -0.14044 v 0 l -0.14044,-0.14038 z m 0.84264,-2.10575 v 0 l 0.14044,-0.14038 h 0.14044 l 0.14044,0.14038 v 0 0.14039 0 l -0.14044,0.14038 v 0 h -0.14044 l -0.14044,-0.14038 z m 0.84264,-2.10574 v 0 l 0.14044,-0.14038 h 0.14044 l 0.14044,0.14038 v 0.14038 0 0 l -0.14044,0.14039 v 0 h -0.14044 l -0.14044,-0.14039 z m 0.84264,-2.10574 v 0 l 0.14044,-0.14038 h 0.14044 v 0 l 0.14044,0.14038 v 0.14038 0 0 l -0.14044,0.14039 h -0.14044 l -0.14044,-0.14039 z m 0.84264,-2.10574 v 0 h 0.14044 l 0.14044,-0.14038 0.14044,0.14038 v 0 l 0.14044,0.14038 -0.14044,0.14038 v 0 0.14039 h -0.14044 -0.14044 l -0.14044,-0.14039 v -0.14038 z m 0.98308,-1.96536 v 0 -0.14038 h 0.28088 l 0.14044,0.14038 v 0 0.14038 0 l -0.14044,0.14038 h -0.14044 -0.14044 v -0.14038 l -0.14044,-0.14038 z m 0.84264,-2.10574 v 0 l 0.14044,-0.140385 h 0.14044 l 0.14044,0.140385 v 0 0.14038 0 l -0.14044,0.14038 h -0.14044 v 0 l -0.14044,-0.14038 v 0 z"
       id="path1205" />
    <path
       transform="matrix(0.26458333,0,0,0.26458333,3.9415419,35.073084)"
       style="fill:none;stroke:#000000;stroke-width:0.42132px;stroke-linecap:round;stroke-linejoin:round;stroke-miterlimit:4;stroke-dasharray:none;stroke-opacity:1"
       clip-path="url(#clipEmfPath1)"
       d="m 278.35224,100.09293 -0.7022,-0.421151 -0.7022,-0.421148 -0.42132,-0.701914 -0.28088,-0.561532 -0.28088,-0.701913 v -0.421149 -0.421148 -0.280766 -0.421148 l 0.14044,-0.421148 0.14044,-0.280766 0.28088,-0.701914 0.56176,-0.701914 0.56176,-0.421148 0.7022,-0.280766 0.7022,-0.280765 h 0.28088 0.42132 0.42132 0.28088 l 0.42132,0.140382 0.42132,0.140383 v 0 l 0.7022,0.280766 0.56176,0.561531 0.42132,0.561531 0.42132,0.701914 0.14044,0.701914 0.14044,0.280765 v 0.421149 0.421148 l -0.14044,0.280766 v 0.421148 l -0.14044,0.421148 -0.42132,0.701914 -0.42132,0.561532 -0.7022,0.421148 -0.56176,0.421151 -0.7022,0.14038 -0.42132,0.14038 h -0.42132 -0.28088 l -0.42132,-0.14038 h -0.42132 l -0.28088,-0.14038"
       id="path1207" />
    <path
       transform="matrix(0.26458333,0,0,0.26458333,3.9415419,35.073084)"
       style="fill:#000000;fill-opacity:1;fill-rule:nonzero;stroke:#000000;stroke-width:0.14044px;stroke-linecap:round;stroke-linejoin:round;stroke-miterlimit:4;stroke-dasharray:none;stroke-opacity:1"
       clip-path="url(#clipEmfPath1)"
       d="m 240.57386,191.34174 v 0 0.14038 l -0.14044,0.14038 h -0.14044 -0.14044 v -0.14038 0 h -0.14044 l 0.14044,-0.14038 v -0.14038 h 0.14044 v 0 h 0.14044 z m 0.56176,2.24612 v 0 0.14039 0 l -0.14044,0.14038 v 0 h -0.14044 -0.14044 v -0.14038 0 -0.14039 -0.14038 h 0.14044 0.14044 z m 0.56176,2.10575 v 0 0.28076 h -0.14044 -0.14044 -0.14044 v -0.14038 0 -0.14038 0 l 0.14044,-0.14039 h 0.14044 z m 0.56176,2.24612 v 0 0.14038 l -0.14044,0.14039 h -0.14044 l -0.14044,-0.14039 v 0 0 -0.14038 -0.14038 h 0.14044 0.14044 v 0 z m 0.56176,2.10574 v 0 0.28077 h -0.14044 -0.14044 -0.14044 v -0.14039 0 -0.14038 0 l 0.14044,-0.14038 v 0 h 0.14044 v 0 z m 0.56176,2.24613 v 0 0.14038 0 l -0.14044,0.14038 h -0.14044 v 0 l -0.14044,-0.14038 v 0 0 -0.14038 -0.14039 h 0.14044 0.28088 z m 0.56176,2.10574 v 0 0.14038 l -0.14044,0.14038 v 0 h -0.14044 -0.14044 v -0.14038 0 -0.14038 0 l 0.14044,-0.14038 h 0.14044 0.14044 z m 0.56176,2.24612 v 0 0 0.14039 l -0.14044,0.14038 -0.14044,-0.14038 v 0 l -0.14044,-0.14039 v 0 0 l 0.14044,-0.14038 v 0 h 0.14044 v -0.14038 l 0.14044,0.14038 v 0 z m 0.7022,2.10574 v 0 0.14039 h -0.14044 v 0.14038 h -0.14044 v 0 h -0.14044 v -0.14038 0 0 l -0.14044,-0.14039 h 0.14044 l 0.14044,-0.14038 h 0.14044 v 0.14038 z m 0.56176,2.24613 v 0 0 0.14038 l -0.14044,0.14038 h -0.14044 l -0.14044,-0.14038 v -0.14038 0 -0.14038 l 0.14044,-0.14039 0.14044,0.14039 v 0 z m 0.56176,2.10574 v 0 0.14038 0 l -0.14044,0.14039 h -0.28088 v -0.14039 0 -0.14038 l 0.14044,-0.14038 h 0.14044 v 0 h 0.14044 z m 0.56176,2.24613 v 0 0 0.14038 l -0.14044,0.14038 -0.14044,-0.14038 -0.14044,-0.14038 v 0 -0.14039 0 l 0.14044,-0.14038 h 0.14044 v 0.14038 h 0.14044 z m 0.56176,2.10574 v 0 0.14038 0 l -0.14044,0.14038 v 0 h -0.14044 v 0 l -0.14044,-0.14038 v 0 -0.14038 l 0.14044,-0.14039 h 0.14044 0.14044 z m 0.56176,2.24612 v 0 0 0.14038 h -0.14044 -0.14044 v 0 l -0.14044,-0.14038 v 0 -0.14038 l 0.14044,-0.14038 h 0.14044 v 0 z m 0.56176,2.10574 v 0 0.14039 0 l -0.14044,0.14038 h -0.14044 l -0.14044,-0.14038 v 0 -0.14039 -0.14038 h 0.14044 v 0 h 0.14044 0.14044 z m 0.56176,2.10575 v 0 0.14038 0.14038 0 h -0.14044 v 0 h -0.14044 l -0.14044,-0.14038 v 0 -0.14038 0 l 0.28088,-0.14039 h 0.14044 z m 0.7022,2.24612 v 0 0.14038 h -0.14044 l -0.14044,0.14039 v 0 h -0.14044 l -0.14044,-0.14039 v 0 -0.14038 l 0.14044,-0.14038 h 0.14044 0.14044 z m 0.56176,2.10574 v 0 0.14038 l -0.14044,0.14039 h -0.14044 -0.14044 v -0.14039 0 l -0.14044,-0.14038 h 0.14044 l 0.14044,-0.14038 v 0 h 0.14044 z m 0.56176,2.24613 v 0 0.14038 l -0.14044,0.14038 h -0.28088 v -0.14038 0 -0.14038 -0.14039 0 h 0.14044 v 0 h 0.14044 z m 0.56176,2.10574 v 0 0.14038 l -0.14044,0.14038 v 0 h -0.14044 -0.14044 v 0 -0.14038 0 -0.14038 0 l 0.14044,-0.14038 h 0.14044 z m 0.56176,2.24612 v 0 0.14039 l -0.14044,0.14038 h -0.14044 v -0.14038 h -0.14044 v 0 -0.14039 0 -0.14038 h 0.14044 l 0.14044,-0.14038 v 0.14038 z m 0.56176,2.10574 v 0 0.14039 l -0.14044,0.14038 h -0.14044 l -0.14044,-0.14038 v 0 0 -0.14039 0 l 0.14044,-0.14038 v 0 h 0.14044 v 0 z m 0.56176,2.24613 v 0 0.14038 0 l -0.14044,0.14039 h -0.14044 v -0.14039 h -0.14044 v -0.14038 0 0 -0.14038 l 0.14044,-0.14039 0.28088,0.14039 z m 0.56176,2.10574 v 0 0.14038 0 l -0.14044,0.14039 v 0 h -0.14044 l -0.14044,-0.14039 v 0 0 -0.14038 0 l 0.14044,-0.14038 h 0.28088 z m 0.56176,2.24613 v 0 0 0.14038 l -0.14044,0.14038 -0.14044,-0.14038 v 0 l -0.14044,-0.14038 v 0 0 l 0.14044,-0.14039 0.14044,-0.14038 v 0 l 0.14044,0.14038 v 0 z m 0.70221,2.10574 v 0 0.14038 h -0.14044 l -0.14044,0.14038 h -0.14045 l -0.14044,-0.14038 v 0 l 0.14044,-0.14038 v -0.14039 h 0.14045 v 0 h 0.14044 v 0 z m 0.56176,2.24612 v 0 0 0.14039 h -0.14044 v 0 h -0.14044 -0.14044 v -0.14039 0 -0.14038 l 0.14044,-0.14038 0.14044,0.14038 v 0 z m 0.56176,2.10574 v 0 0.14039 0 l -0.14044,0.14038 h -0.14044 -0.14044 v -0.14038 0 -0.14039 l 0.14044,-0.14038 h 0.14044 v 0 h 0.14044 z m 0.56176,2.10575 v 0 0.14038 0.14038 h -0.14044 -0.14044 l -0.14044,-0.14038 v 0 -0.14038 -0.14039 h 0.14044 0.14044 v 0 z m 0.56176,2.24612 v 0 0.14038 0 l -0.14044,0.14039 v 0 h -0.14044 v 0 l -0.14044,-0.14039 v 0 -0.28076 h 0.14044 v 0 h 0.14044 v 0 z m 0.56176,2.10574 v 0 0.14039 0.14038 h -0.14044 -0.14044 v 0 l -0.14044,-0.14038 v 0 -0.14039 l 0.14044,-0.14038 h 0.14044 z m 0.56176,2.24613 v 0 0 0.14038 l -0.14044,0.14038 h -0.14044 v 0 l -0.14044,-0.14038 v 0 -0.14038 -0.14039 h 0.14044 0.14044 0.14044 z m 0.56176,2.10574 v 0 0.14038 0.14038 h -0.14044 -0.14044 l -0.14044,-0.14038 v 0 -0.14038 0 l 0.14044,-0.14038 v 0 h 0.14044 0.14044 z m 0.7022,2.24612 v 0 0 l -0.14044,0.14039 v 0 l -0.14044,0.14038 v 0 h -0.14044 l -0.14044,-0.14038 v 0 -0.14039 l 0.14044,-0.14038 h 0.14044 0.14044 z m 0.56176,2.10575 v 0 l -0.14044,0.14038 -0.14044,0.14038 v 0 h -0.14044 v -0.14038 0 l -0.14044,-0.14038 h 0.14044 l 0.14044,-0.14039 v 0 h 0.14044 z m 0.56176,2.24612 v 0 0.14038 l -0.14044,0.14039 -0.28088,-0.14039 v -0.14038 0 0 -0.14038 0 h 0.14044 v -0.14039 l 0.14044,0.14039 z m 0.56176,2.10574 v 0 0.14038 l -0.14044,0.14039 v 0 h -0.14044 -0.14044 v -0.14039 0 0 -0.14038 0 -0.14038 h 0.14044 0.14044 v 0 z m 0.56176,2.24613 v 0 0.14038 l -0.14044,0.14038 h -0.14044 v -0.14038 h -0.14044 v -0.14038 0 0 -0.14039 l 0.14044,-0.14038 0.14044,0.14038 z m 0.56176,2.10574 v 0 0.14038 l -0.14044,0.14038 h -0.14044 v 0 l -0.14044,-0.14038 v 0 0 -0.14038 0 l 0.14044,-0.14038 h 0.14044 v 0 z m 0.56176,2.24612 v 0 0 0.14039 l -0.14044,0.14038 -0.14044,-0.14038 h -0.14044 v -0.14039 0 0 -0.14038 h 0.14044 v -0.14038 h 0.14044 v 0.14038 h 0.14044 z m 0.56176,2.10574 v 0 0.14039 0 0.14038 h -0.14044 v 0 h -0.14044 l -0.14044,-0.14038 v 0 0 -0.14039 0 l 0.14044,-0.14038 h 0.28088 v 0 z m 0.56176,2.24613 v 0 0 0.14038 h -0.14044 v 0 h -0.14044 l -0.14044,-0.14038 v 0 l 0.14044,-0.14038 0.14044,-0.14039 v 0 h 0.14044 v 0.14039 z m 0.7022,2.10574 v 0 0.14038 h -0.14044 l -0.14044,0.14039 h -0.14044 l -0.14044,-0.14039 v 0 l 0.14044,-0.28076 v 0 h 0.14044 v 0 h 0.14044 v 0 z m 0.56176,2.10574 v 0 0.14039 0.14038 h -0.14044 v 0 h -0.14044 -0.14044 v -0.14038 0 -0.14039 -0.14038 h 0.14044 v 0 h 0.14044 v 0.14038 z m 0.56176,2.24613 v 0 0.14038 0 l -0.14044,0.14038 v 0 h -0.14044 -0.14044 v -0.14038 0 -0.28077 h 0.14044 0.14044 0.14044 z m 0.56176,2.10574 v 0 0.14038 0.14038 h -0.14044 -0.14044 v 0 l -0.14044,-0.14038 v 0 -0.14038 l 0.14044,-0.14038 h 0.14044 v 0 z m 0.56176,2.24612 v 0 0 0.14039 l -0.14044,0.14038 h -0.14044 l -0.14044,-0.14038 v 0 -0.14039 -0.14038 h 0.14044 v 0 h 0.14044 v 0 z m 0.56176,2.10575 v 0 0.14038 0 0.14038 h -0.14044 -0.14044 v 0 l -0.14044,-0.14038 v 0 -0.14038 0 l 0.14044,-0.14039 h 0.14044 z m 0.56176,2.24612 v 0 0 0.14038 l -0.14044,0.14039 h -0.14044 v 0 l -0.14044,-0.14039 v 0 -0.14038 -0.14038 h 0.14044 l 0.14044,-0.14039 0.14044,0.14039 z m 0.56176,2.10574 v 0 0.14038 0 l -0.14044,0.14039 h -0.14044 l -0.14044,-0.14039 v 0 -0.14038 0 l 0.14044,-0.14038 h 0.14044 0.14044 z m 0.7022,2.24613 v 0 0 l -0.14044,0.14038 v 0 l -0.14044,0.14038 v 0 l -0.14044,-0.14038 -0.14044,-0.14038 v 0 0 l 0.14044,-0.14039 v 0 h 0.14044 v -0.14038 l 0.14044,0.14038 z m 0.56176,2.10574 v 0 l -0.14044,0.14038 -0.14044,0.14038 v 0 h -0.14044 v -0.14038 0 l -0.14044,-0.14038 h 0.14044 l 0.14044,-0.14038 h 0.14044 z m 0.56176,2.24612 v 0 0.14039 l -0.14044,0.14038 h -0.14044 l -0.14044,-0.14038 v -0.14039 0 0 -0.14038 l 0.14044,-0.14038 v 0 l 0.14044,0.14038 z m 0.56176,2.10574 v 0 0.14039 l -0.14044,0.14038 h -0.28088 v -0.14038 0 -0.14039 0 -0.14038 h 0.14044 0.14044 v 0 z m 0.56176,2.24613 v 0 0.14038 h -0.14044 v 0 h -0.14044 v 0 h -0.14044 v -0.14038 0 0 -0.14038 l 0.14044,-0.14039 0.14044,0.14039 z m 0.56177,2.10574 v 0 0.14038 l -0.14045,0.14039 h -0.14044 v 0 l -0.14044,-0.14039 v 0 0 -0.14038 0 l 0.14044,-0.14038 h 0.14044 v 0 z"
       id="path1209" />
    <path
       transform="matrix(0.26458333,0,0,0.26458333,3.9415419,35.073084)"
       style="fill:none;stroke:#000000;stroke-width:0.42132px;stroke-linecap:round;stroke-linejoin:round;stroke-miterlimit:4;stroke-dasharray:none;stroke-opacity:1"
       clip-path="url(#clipEmfPath1)"
       d="m 272.45376,312.07094 -0.42133,0.14038 -0.28088,0.14038 -0.7022,0.42115 -0.56176,0.56153 -0.42132,0.56153 -0.28088,0.70192 -0.14044,0.28076 v 0.42115 l -0.14044,0.42115 v 0.28076 l 0.14044,0.42115 v 0.42115 l 0.14044,0.42115 0.14044,0.28076 0.42132,0.70192 0.56176,0.56153 0.56176,0.42115 0.7022,0.28076 0.42133,0.14039 h 0.28088 0.42132 0.42132 0.28088 0.42132 v 0 l 0.42132,-0.14039 0.28088,-0.14038 0.7022,-0.42115 0.56176,-0.56153 0.42132,-0.56153 0.28088,-0.70191 0.14044,-0.42115 v -0.28077 l 0.14044,-0.42115 v -0.42114 l -0.14044,-0.28077 v -0.42115 l -0.14044,-0.42115 -0.14044,-0.28076 -0.42132,-0.70192 -0.56176,-0.56153 -0.56176,-0.42115 -0.7022,-0.28076 -0.42132,-0.14038 h -0.28088 l -0.42132,-0.14039 h -0.42132 l -0.28088,0.14039 h -0.42132"
       id="path1211" />
    <path
       transform="matrix(0.26458333,0,0,0.26458333,3.9415419,35.073084)"
       style="fill:#ffffff;fill-opacity:1;fill-rule:evenodd;stroke:none"
       clip-path="url(#clipEmfPath1)"
       d="m 488.87192,147.82307 v 51.52049 h 85.80889 v -51.52049 z"
       id="path1213" />
    <g
       transform="matrix(0.26458333,0,0,0.26458333,3.9415419,35.073084)"
       clip-path="url(#clipEmfPath1)"
       id="g1235">
      <text
         xml:space="preserve"
         style="font-style:normal;font-variant:normal;font-weight:400;font-size:15px;line-height:119.793%;font-family:Helvetica;text-align:center;letter-spacing:0px;word-spacing:0px;text-anchor:middle;white-space:pre;inline-size:82.0577;fill:#000000;fill-opacity:1;stroke:none"
         transform="translate(506.00561,166.74011)"
         x="27.927246"
         y="0"
         id="text1227"><tspan
           x="27.927246"
           y="0"><tspan>inspire
</tspan></tspan><tspan
           x="27.927246"
           y="17.96895"><tspan>les objets
</tspan></tspan><tspan
           x="27.927246"
           y="35.937899"><tspan>et les 
</tspan></tspan><tspan
           x="27.927246"
           y="53.906848"><tspan>noms dans</tspan></tspan></text>
    </g>
    <path
       transform="matrix(0.26458333,0,0,0.26458333,3.9415419,35.073084)"
       style="fill:#ffffff;fill-opacity:1;fill-rule:evenodd;stroke:none"
       clip-path="url(#clipEmfPath1)"
       d="m 484.65872,155.26336 h -22.18954 v 56.2935 h -11.09476 l 22.18953,11.09024 22.04909,-11.09024 h -10.95432 z"
       id="path1237" />
    <path
       transform="matrix(0.26458333,0,0,0.26458333,3.9415419,35.073084)"
       style="fill:none;stroke:#000000;stroke-width:0.42132px;stroke-linecap:round;stroke-linejoin:round;stroke-miterlimit:4;stroke-dasharray:none;stroke-opacity:1"
       clip-path="url(#clipEmfPath1)"
       d="m 484.65872,155.26336 h -22.18954 v 56.2935 h -11.09476 l 22.18953,11.09024 22.04909,-11.09024 h -10.95432 z"
       id="path1239" />
  </g>
</svg>
