<?xml version="1.0" encoding="UTF-8" standalone="no"?>
<svg
   xmlns:dc="http://purl.org/dc/elements/1.1/"
   xmlns:cc="http://creativecommons.org/ns#"
   xmlns:rdf="http://www.w3.org/1999/02/22-rdf-syntax-ns#"
   xmlns:svg="http://www.w3.org/2000/svg"
   xmlns="http://www.w3.org/2000/svg"
   xmlns:sodipodi="http://sodipodi.sourceforge.net/DTD/sodipodi-0.dtd"
   xmlns:inkscape="http://www.inkscape.org/namespaces/inkscape"
   version="1.1"
   x="0px"
   y="0px"
   viewBox="0 0 64.759727 59.939999"
   enable-background="new 0 0 69 69"
   xml:space="preserve"
   id="svg28"
   sodipodi:docname="noun_mapping_2763502.svg"
   width="64.759727"
   height="59.939999"
   inkscape:version="0.92.3 (2405546, 2018-03-11)"><metadata
     id="metadata34"><rdf:RDF><cc:Work
         rdf:about=""><dc:format>image/svg+xml</dc:format><dc:type
           rdf:resource="http://purl.org/dc/dcmitype/StillImage" /><dc:title></dc:title></cc:Work></rdf:RDF></metadata><defs
     id="defs32" /><sodipodi:namedview
     pagecolor="#ffffff"
     bordercolor="#666666"
     borderopacity="1"
     objecttolerance="10"
     gridtolerance="10"
     guidetolerance="10"
     inkscape:pageopacity="0"
     inkscape:pageshadow="2"
     inkscape:window-width="1280"
     inkscape:window-height="961"
     id="namedview30"
     showgrid="false"
     fit-margin-top="0"
     fit-margin-left="0"
     fit-margin-right="0"
     fit-margin-bottom="0"
     inkscape:zoom="2.7362319"
     inkscape:cx="32.379861"
     inkscape:cy="21.345001"
     inkscape:window-x="-8"
     inkscape:window-y="46"
     inkscape:window-maximized="1"
     inkscape:current-layer="svg28" /><g
     id="g22"
     transform="translate(-2.1201392,-4.5300007)"><g
       id="g4"><path
         d="M 7.8403363,64.470001 H 61.160141 c 3.153793,0 5.719696,-2.566002 5.719696,-5.720302 -9.99e-4,-5.099801 0.0037,17.908298 -0.0097,-47.059998 0,-1.9053001 -2.737808,-6.5645003 -7.813507,-6.5645003 -1.003899,0 -2.056198,0.1831002 -3.126496,0.5445004 -0.305202,0.1025 -0.510204,0.3885999 -0.510204,0.7103996 V 14.889901 H 39.161735 C 40.03614,13.1509 40.470234,11.8249 40.470234,10.8699 c 0,-3.4955995 -2.844299,-6.3398993 -6.340397,-6.3398993 -3.495602,0 -6.339802,2.8442998 -6.339802,6.3398993 0,0.954701 0.4338,2.2797 1.3088,4.020001 H 13.580036 V 6.3801007 c 0,-0.3217998 -0.2055,-0.6078997 -0.5107,-0.7108998 -1.0718,-0.3608999 -2.125,-0.5440001 -3.1299,-0.5440001 -5.0790997,0 -7.8192968,4.6592002 -7.8192968,6.5645002 9.7e-5,0.869999 0.0095,46.191498 0.0097,47.059998 0,3.142101 2.5606001,5.708499 5.7105,5.720302 z M 56.919933,6.9338002 c 0.736302,-0.2051001 1.453102,-0.3086004 2.1367,-0.3086004 4.283203,0 6.313507,4.0620002 6.313507,5.0645002 0,5.959001 0,33.595101 0,42.463398 -1.523907,-1.591301 -3.607605,-2.4785 -6.085506,-2.4785 -0.779801,0 -1.581997,0.0903 -2.364701,0.265102 0,-15.042201 0,-36.7051 0,-45.0058998 z m -22.790096,-0.9038 c 2.668999,0 4.840397,2.1708999 4.840397,4.8398998 0,2.2529 -3.542095,7.4615 -4.840397,9.2968 -1.295902,-1.8323 -4.839802,-7.0477 -4.839802,-9.2968 0,-2.6689999 2.1714,-4.8398998 4.839802,-4.8398998 z M 29.904236,16.3899 c 0.0956,0.1474 1.132599,2.0364 3.228,4.9636 0.112099,0.1565 0.284298,0.394101 0.396099,0.544199 0.296399,0.399001 0.860806,0.471201 1.342999,-0.190198 1.038601,-1.419501 2.428303,-3.489102 3.4846,-5.317601 h 17.063999 v 36.529801 c 0,0.2397 0.114701,0.465297 0.308602,0.606399 0.192798,0.140099 0.443298,0.181198 0.671299,0.107399 3.565799,-1.148701 7.145202,-0.217998 8.980003,3.066002 v 2.050198 c 0,2.327201 -1.893002,4.220302 -4.219696,4.220302 H 7.843236 C 5.5200362,62.961201 3.6298363,61.0681 3.6298363,58.749699 v -2.086598 c 1.8404996,-3.259502 5.4350996,-4.169102 8.9701997,-3.029602 0.2286,0.0743 0.478104,0.0332 0.6714,-0.107399 0.1939,-0.141102 0.3086,-0.366699 0.3086,-0.606399 V 16.3899 Z M 3.6201394,11.6897 c 0,-1.0025 2.0321968,-5.0645002 6.3192968,-5.0645002 0.6851008,0 1.4027998,0.1035004 2.1405998,0.3086004 0,9.7476008 0,29.9382018 0,45.0059008 C 8.63114,51.170399 5.5610363,52.126 3.6201394,54.1516 Z"
         id="path2"
         inkscape:connector-curvature="0" /></g><g
       id="g8"><path
         d="m 37.304138,10.8684 c 0,-1.7505001 -1.424301,-3.1747998 -3.174801,-3.1747998 -1.753902,0 -3.180601,1.4242997 -3.180601,3.1747998 0,4.1985 6.355402,4.1997 6.355402,0 z M 34.129337,9.1935997 c 0.923397,0 1.674801,0.7515001 1.674801,1.6748003 0,0.9233 -0.751404,1.6748 -1.674801,1.6748 -0.9267,0 -1.680603,-0.7515 -1.680603,-1.6748 0,-0.9233002 0.753903,-1.6748003 1.680603,-1.6748003 z"
         id="path6"
         inkscape:connector-curvature="0" /></g><g
       id="g12"><path
         d="M 17.568336,26.3533 V 41.563 c -1.96e-4,0.0068 -0.0039,0.0124 -0.0039,0.0193 v 15.2265 c 0,0.4141 0.335899,0.75 0.75,0.75 h 15.216501 c 0.0068,3.01e-4 0.0125,0.0039 0.0193,0.0039 h 15.2271 c 0.414101,0 0.75,-0.335899 0.75,-0.75 V 41.580799 26.3533 c 0,-0.414101 -0.335899,-0.75 -0.75,-0.75 h -15.2271 c -8.01e-4,0 -0.0016,4.01e-4 -0.0024,4.01e-4 -9e-4,0 -0.0016,-4.01e-4 -0.0024,-4.01e-4 H 18.318336 c -0.4141,0 -0.75,0.335899 -0.75,0.75 z m 1.4961,29.7055 V 42.332298 h 5.070299 c 1.020901,0 0.6887,-1.410698 0.75,-1.725597 0,-1.668701 -1.4433,-1.448101 -1.4433,-3.3223 0,-2.598301 3.4818,-3.135101 4.413,-1.712902 1.657501,2.495602 -0.7132,3.319301 -0.883799,4.985901 v 1.023399 0.0015 c 0,0.414002 0.335999,0.75 0.75,0.75 h 5.073298 V 46.655 c -0.112698,-0.0083 -0.423298,0.0379 -0.537598,-0.0923 -0.773401,-0.871097 -1.854,-1.350597 -3.042501,-1.350597 -1.276798,0 -2.519999,0.558598 -3.0933,1.391197 -0.9716,1.410603 -1.1206,3.072701 -0.398899,4.446701 0.6924,1.316902 2.0464,2.1353 3.534201,2.1353 2.152999,0 2.7574,-1.442398 3.315399,-1.442398 h 0.222698 V 56.0588 Z m 13.729498,-5.815899 h -0.222698 c -1.587601,0 -1.533097,1.442398 -3.3154,1.442398 -0.928697,0 -1.773901,-0.5107 -2.2061,-1.333 -0.4648,-0.884301 -0.3535,-1.940899 0.3062,-2.897999 0.247999,-0.359799 0.9834,-0.742199 1.857899,-0.742199 1.848701,0 1.781101,1.442898 3.320303,1.442898 h 0.259796 z m 15.233402,5.819797 h -13.7271 c 9.9e-5,-1.447597 9.9e-5,-13.877998 0,-13.731899 h 4.319904 c -0.0101,0.1362 0.03989,0.434799 -0.0948,0.554703 -1.976902,1.750099 -1.568401,5.039299 0.0606,6.144996 3.031101,2.060502 6.564399,0.0302 6.564399,-3.150897 0,-2.1768 -1.442798,-2.7655 -1.442798,-3.327603 v -0.221199 h 4.319801 V 56.062698 Z M 34.300236,27.1033 h 13.7271 v 13.727499 c -3.947502,0.227902 -5.819801,-0.553101 -5.819801,0.75 0.05,0.461201 -0.2575,1.644901 0.620102,2.440903 2.294502,2.084499 -0.446904,5.775097 -3.398003,3.768596 -0.0693,-0.0469 -0.1352,-0.1138 -0.182098,-0.183097 -0.976601,-1.454602 -0.567398,-2.8555 0.271999,-3.598702 0.381802,-0.337398 0.600605,-0.850597 0.600605,-1.407699 -0.06891,-0.3629 0.318394,-1.770001 -0.75,-1.770001 H 34.300236 V 36.5061 c 0.133903,0.0095 0.430801,-0.0385 0.542499,0.0903 1.707405,1.9459 5.006199,1.542298 6.077702,0.041 3.284298,-4.6073 -2.790299,-8.901402 -6.047402,-5.340802 -0.1543,0.168999 -0.471599,0.1169 -0.572799,0.1265 v -4.3198 z m -15.2319,0 h 13.727101 v 5.069799 c 0,0.414002 0.335899,0.75 0.75,0.75 h 0.0048 c 0.4612,-0.0499 1.6315,0.2599 2.430698,-0.614799 1.1941,-1.306499 3.282803,-1.0172 4.0747,0.5205 0.658901,1.278198 -0.0927,2.840401 -0.559098,3.126999 -1.264099,0.771 -2.6889,0.606899 -3.525398,-0.348099 -0.717503,-0.819 -1.854702,-0.542099 -2.420902,-0.6016 h -0.0048 c -0.414101,0 -0.75,0.335899 -0.75,0.75 v 5.074699 h -4.324801 c 0.0207,-0.878799 1.566799,-1.524601 1.4361,-3.848099 -0.286901,-5.0968 -7.966301,-4.757 -7.966301,0.3037 0,2.204601 1.442801,2.758098 1.442801,3.314899 v 0.2295 h -4.3149 z"
         id="path10"
         inkscape:connector-curvature="0" /></g><g
       id="g16"><path
         d="m 18.285139,21.685301 h 1.131796 V 22.8176 c 0,0.414101 0.336,0.75 0.75,0.75 0.414101,0 0.75,-0.335899 0.75,-0.75 v -1.132299 h 1.131901 c 0.413999,0 0.75,-0.335902 0.75,-0.75 0,-0.414101 -0.336001,-0.75 -0.75,-0.75 H 20.916935 V 19.0539 c 0,-0.414 -0.335899,-0.75 -0.75,-0.75 -0.414,0 -0.75,0.336 -0.75,0.75 v 1.131401 h -1.131796 c -0.414103,0 -0.75,0.335899 -0.75,0.75 0,0.414099 0.335897,0.75 0.75,0.75 z"
         id="path14"
         inkscape:connector-curvature="0" /></g><g
       id="g20"><path
         d="M 52.405235,59.238998 H 53.53714 V 60.3708 c 0,0.414101 0.335895,0.75 0.75,0.75 0.413998,0 0.75,-0.335899 0.75,-0.75 v -1.131802 h 1.131794 c 0.4141,0 0.75,-0.335899 0.75,-0.75 0,-0.414096 -0.3359,-0.75 -0.75,-0.75 H 55.03714 v -1.131797 c 0,-0.414101 -0.336002,-0.75 -0.75,-0.75 -0.414105,0 -0.75,0.335899 -0.75,0.75 v 1.131797 h -1.131905 c -0.414001,0 -0.75,0.335904 -0.75,0.75 0,0.414101 0.335999,0.75 0.75,0.75 z"
         id="path18"
         inkscape:connector-curvature="0" /></g></g></svg>