<svg xmlns="http://www.w3.org/2000/svg" xmlns:xlink="http://www.w3.org/1999/xlink" version="1.1" x="0px" y="0px" viewBox="0 0 64 80" style="enable-background:new 0 0 64 64;" xml:space="preserve"><g><g><g><g><g><path d="M53.5,13.4c0,0,0.1-0.1,0.1-0.1V0.6H20.2L3.5,15.8v47.6h50.1V36.6c-0.9,1.3-1.8,2.5-2.7,3.8c-0.3,0.4-0.6,0.7-0.9,0.9       v18.5H7V17.7h14.6l0.2-13.6H50V15C51,14.1,52.2,13.6,53.5,13.4z M18.4,14.3h-8.3l8.4-7.7L18.4,14.3z"/></g></g></g></g><path d="M60.1,22.4c-0.5-0.4-1.1-0.3-1.5,0.3c-0.5,0.8,0.1,0-0.4,0.8c-0.3-0.2-0.7-0.4-1-0.7c0.1-0.1,0.2-0.3,0.3-0.4   c0.9-1.2,1.1-2.6,0.8-4.1c-0.1-0.3,0-0.7,0.2-1c0.4-0.7,0.8-1.3,1.2-2c0.6-1,0.6-1.6-0.2-2.4c0,0-0.4-0.3-0.5-0.4   c-0.1-0.1-0.6-0.3-0.6-0.3c-0.9-0.4-1.4-0.2-2.2,0.6c-0.5,0.6-0.9,1.3-1.5,1.9c-0.2,0.2-0.5,0.4-0.9,0.5c-1.5,0.2-2.7,0.9-3.6,2.1   C43.6,26.7,37,36,30.3,45.4c-0.2,0.2-0.4,0.5-0.3,0.7c0.2,1-0.4,1.9-0.7,2.8c-0.5,1.5-1,2.9-1.4,4.4c-0.1,0.4,0,1,0,1.5   c0,0.2-0.1,0.4-0.1,0.5c0,0,0,0,0,0c0,0.1-0.1,0.1-0.1,0.2h0l-0.3,0.4c-0.3,0.3-0.2,0.8,0.2,1.1l0,0c0.1,0.1,0.1,0.1,0.2,0.1   c0.3,0.1,0.7,0,0.9-0.3l0.4-0.5c0-0.1,0.1-0.1,0.1-0.2c0.1-0.1,0.2-0.2,0.4-0.2c0.5-0.2,1-0.2,1.4-0.5c1.3-0.9,2.5-1.9,3.7-2.8   c0.8-0.6,1.4-1.4,2.4-1.5c0.2,0,0.4-0.3,0.6-0.5c6-8.4,12-16.8,17.9-25.3c0.3,0.2,0.7,0.5,1,0.7c-1,1.4-1.9,2.7-2.9,4   c-1.9,2.8-3.9,5.5-5.8,8.3c-0.3,0.4-0.5,0.9-0.1,1.3c0.4,0.5,1.3,0.8,1.9-0.1c2.6-3.8,5.3-7.5,7.9-11.3c1.3-1.9,1.5-2.2,2.9-4.1   C60.7,23.4,60.6,22.9,60.1,22.4z M53.2,23.6L37.4,45.4c-0.6,0.7-1.7,0.8-2.3,0.4c-0.7-0.6-0.9-1.6-0.4-2.3l15.9-21.8   c0.5-0.7,1.6-0.9,2.3-0.4C53.6,21.8,53.8,22.8,53.2,23.6z"/><path d="M43.4,23.8c-0.3,0.4-0.6,0.9-0.9,1.3H10.6c-0.4,0-0.7-0.3-0.7-0.7c0-0.4,0.3-0.7,0.7-0.7H43.4z"/><path d="M39.3,29.4c-0.3,0.4-0.6,0.9-0.9,1.3H10.6c-0.4,0-0.7-0.3-0.7-0.7c0-0.4,0.3-0.7,0.7-0.7H39.3z"/><path d="M35.3,35.1c-0.3,0.4-0.6,0.9-0.9,1.3H10.6c-0.4,0-0.7-0.3-0.7-0.7c0-0.4,0.3-0.7,0.7-0.7H35.3z"/><path d="M31.3,40.7c-0.3,0.4-0.6,0.9-0.9,1.3H10.6c-0.4,0-0.7-0.3-0.7-0.7c0-0.4,0.3-0.7,0.7-0.7H31.3z"/><path d="M27.7,55.3C27.7,55.3,27.7,55.3,27.7,55.3c0,0.1-0.1,0.1-0.1,0.2h0L27.7,55.3C27.7,55.3,27.7,55.3,27.7,55.3z"/><path d="M14.1,57.4c-0.1,0-0.1,0-0.2-0.1c-0.2-0.1-0.3-0.4-0.2-0.7c0-0.1,0.1-0.3,0.2-0.5c0-0.1,0-0.2,0-0.3c0-0.1-0.1-0.2-0.1-0.3   c-0.2,0.4-0.5,1-0.7,1.5c-0.1,0.2-0.3,0.4-0.5,0.3c-0.2,0-0.4-0.2-0.4-0.5c-0.4-4-0.8-5.6-1.1-6.2v6.2c0,0.3-0.2,0.6-0.5,0.6   s-0.5-0.3-0.5-0.6v-7c0-0.1,0-0.2,0.1-0.3c0.2-0.3,0.5-0.5,0.9-0.4c0.6,0.2,1.3,1,1.9,5.9c0.3-0.6,0.5-0.8,0.8-0.8   c0.1,0,0.2,0.1,0.3,0.1c0.1,0.1,0.3,0.2,0.5,0.5c0.3-0.5,0.7-0.8,1.2-0.8c0.4,0,0.7,0.4,0.9,0.8c0.4-0.7,0.8-1.3,1.4-1.2   c0.6,0.1,0.9,0.9,1.1,2.6h5.7c0.3,0,0.5,0.3,0.5,0.6c0,0.3-0.2,0.6-0.5,0.6h-6.1c-0.3,0-0.5-0.2-0.5-0.5c-0.1-1.3-0.2-1.8-0.3-2   c-0.2,0.3-0.6,1-0.8,1.7c-0.1,0.2-0.3,0.4-0.5,0.4c-0.2,0-0.4-0.2-0.4-0.4c-0.2-1-0.4-1.2-0.5-1.2c-0.2,0.1-0.5,0.6-0.8,1.3   c0,0.2-0.1,0.4-0.2,0.6C14.4,57.3,14.2,57.4,14.1,57.4z"/></g><text x="0" y="79" fill="#000000" font-size="5px" font-weight="bold" font-family="'Helvetica Neue', Helvetica, Arial-Unicode, Arial, Sans-serif">Created by Mohammed Rabiul Alam</text><text x="0" y="84" fill="#000000" font-size="5px" font-weight="bold" font-family="'Helvetica Neue', Helvetica, Arial-Unicode, Arial, Sans-serif">from the Noun Project</text></svg>