<?xml version="1.0" encoding="UTF-8" standalone="no"?>
<svg
   xmlns:dc="http://purl.org/dc/elements/1.1/"
   xmlns:cc="http://creativecommons.org/ns#"
   xmlns:rdf="http://www.w3.org/1999/02/22-rdf-syntax-ns#"
   xmlns:svg="http://www.w3.org/2000/svg"
   xmlns="http://www.w3.org/2000/svg"
   xmlns:sodipodi="http://sodipodi.sourceforge.net/DTD/sodipodi-0.dtd"
   xmlns:inkscape="http://www.inkscape.org/namespaces/inkscape"
   width="69.680771mm"
   height="63.561619mm"
   viewBox="0 0 69.68077 63.561614"
   version="1.1"
   id="svg8"
   inkscape:version="1.0 (4035a4fb49, 2020-05-01)"
   sodipodi:docname="EngrenagesVisages.svg">
  <defs
     id="defs2">
    <clipPath
       id="clipEmfPath1"
       clipPathUnits="userSpaceOnUse">
      <path
         id="path833"
         d="M 0,0 H 863.47668 V 389.36402 H 0 Z" />
    </clipPath>
    <pattern
       y="0"
       x="0"
       height="6"
       width="6"
       patternUnits="userSpaceOnUse"
       id="EMFhbasepattern" />
    <clipPath
       id="clipEmfPath1-6"
       clipPathUnits="userSpaceOnUse">
      <path
         id="path974"
         d="M 0,0 H 863.47668 V 346.35009 H 0 Z" />
    </clipPath>
    <pattern
       y="0"
       x="0"
       height="6"
       width="6"
       patternUnits="userSpaceOnUse"
       id="EMFhbasepattern-7" />
    <clipPath
       id="clipEmfPath1-8"
       clipPathUnits="userSpaceOnUse">
      <path
         id="path1103"
         d="M 0,0 H 863.47668 V 552.14537 H 0 Z" />
    </clipPath>
    <pattern
       y="0"
       x="0"
       height="6"
       width="6"
       patternUnits="userSpaceOnUse"
       id="EMFhbasepattern-8" />
    <clipPath
       id="clipEmfPath1-82"
       clipPathUnits="userSpaceOnUse">
      <path
         id="path1499"
         d="M 0,0 H 863.47668 V 374.81284 H 0 Z" />
    </clipPath>
    <pattern
       y="0"
       x="0"
       height="6"
       width="6"
       patternUnits="userSpaceOnUse"
       id="EMFhbasepattern-9" />
    <clipPath
       id="clipEmfPath1-64"
       clipPathUnits="userSpaceOnUse">
      <path
         id="path1664"
         d="M 0,0 H 743.54936 V 531.99758 H 0 Z" />
    </clipPath>
    <pattern
       y="0"
       x="0"
       height="6"
       width="6"
       patternUnits="userSpaceOnUse"
       id="EMFhbasepattern-85" />
    <clipPath
       id="clipEmfPath1-1"
       clipPathUnits="userSpaceOnUse">
      <path
         id="path1754"
         d="M 0,0 H 863.47668 V 317.88734 H 0 Z" />
    </clipPath>
    <pattern
       y="0"
       x="0"
       height="6"
       width="6"
       patternUnits="userSpaceOnUse"
       id="EMFhbasepattern-89" />
    <clipPath
       id="clipEmfPath1-86"
       clipPathUnits="userSpaceOnUse">
      <path
         id="path1961"
         d="M 0,0 H 863.47668 V 295.1811 H 0 Z" />
    </clipPath>
    <pattern
       y="0"
       x="0"
       height="6"
       width="6"
       patternUnits="userSpaceOnUse"
       id="EMFhbasepattern-1" />
    <clipPath
       id="clipEmfPath1-0"
       clipPathUnits="userSpaceOnUse">
      <path
         id="path2372"
         d="M 0,0 H 863.47668 V 320.28589 H 0 Z" />
    </clipPath>
    <pattern
       y="0"
       x="0"
       height="6"
       width="6"
       patternUnits="userSpaceOnUse"
       id="EMFhbasepattern-3" />
    <clipPath
       id="clipEmfPath1-2"
       clipPathUnits="userSpaceOnUse">
      <path
         id="path2540"
         d="M 0,0 H 863.47668 V 430.61902 H 0 Z" />
    </clipPath>
    <pattern
       y="0"
       x="0"
       height="6"
       width="6"
       patternUnits="userSpaceOnUse"
       id="EMFhbasepattern-5" />
    <clipPath
       id="clipEmfPath1-7"
       clipPathUnits="userSpaceOnUse">
      <path
         id="path2978"
         d="M 0,0 H 863.47668 V 356.58389 H 0 Z" />
    </clipPath>
    <pattern
       y="0"
       x="0"
       height="6"
       width="6"
       patternUnits="userSpaceOnUse"
       id="EMFhbasepattern-0" />
    <clipPath
       id="clipEmfPath1-67"
       clipPathUnits="userSpaceOnUse">
      <path
         id="path3428"
         d="M 0,0 H 863.47668 V 272.15506 H 0 Z" />
    </clipPath>
    <pattern
       y="0"
       x="0"
       height="6"
       width="6"
       patternUnits="userSpaceOnUse"
       id="EMFhbasepattern-34" />
    <clipPath
       id="clipEmfPath1-9"
       clipPathUnits="userSpaceOnUse">
      <path
         id="path3602"
         d="M 0,0 H 863.47668 V 310.21199 H 0 Z" />
    </clipPath>
    <pattern
       y="0"
       x="0"
       height="6"
       width="6"
       patternUnits="userSpaceOnUse"
       id="EMFhbasepattern-03" />
    <clipPath
       id="clipEmfPath1-3"
       clipPathUnits="userSpaceOnUse">
      <path
         id="path3821"
         d="M 0,0 H 863.47668 V 220.98607 H 0 Z" />
    </clipPath>
    <pattern
       y="0"
       x="0"
       height="6"
       width="6"
       patternUnits="userSpaceOnUse"
       id="EMFhbasepattern-2" />
    <clipPath
       id="clipEmfPath1-5"
       clipPathUnits="userSpaceOnUse">
      <path
         id="path3983"
         d="M 0,0 H 431.41853 V 527.68019 H 0 Z" />
    </clipPath>
    <pattern
       y="0"
       x="0"
       height="6"
       width="6"
       patternUnits="userSpaceOnUse"
       id="EMFhbasepattern-4" />
    <clipPath
       id="clipEmfPath1-28"
       clipPathUnits="userSpaceOnUse">
      <path
         id="path4070"
         d="M 0,0 H 863.47668 V 498.09812 H 0 Z" />
    </clipPath>
    <pattern
       y="0"
       x="0"
       height="6"
       width="6"
       patternUnits="userSpaceOnUse"
       id="EMFhbasepattern-39" />
    <clipPath
       id="clipEmfPath1-05"
       clipPathUnits="userSpaceOnUse">
      <path
         id="path4475"
         d="M 0,0 H 863.47668 V 238.73531 H 0 Z" />
    </clipPath>
    <pattern
       y="0"
       x="0"
       height="6"
       width="6"
       patternUnits="userSpaceOnUse"
       id="EMFhbasepattern-83" />
    <clipPath
       id="clipEmfPath1-79"
       clipPathUnits="userSpaceOnUse">
      <path
         id="path4715"
         d="M 0,0 H 863.47668 V 519.68504 H 0 Z" />
    </clipPath>
    <pattern
       y="0"
       x="0"
       height="6"
       width="6"
       patternUnits="userSpaceOnUse"
       id="EMFhbasepattern-24" />
    <clipPath
       id="clipEmfPath1-02"
       clipPathUnits="userSpaceOnUse">
      <path
         id="path5213"
         d="M 0,0 H 863.47668 V 495.69958 H 0 Z" />
    </clipPath>
    <pattern
       y="0"
       x="0"
       height="6"
       width="6"
       patternUnits="userSpaceOnUse"
       id="EMFhbasepattern-79" />
    <clipPath
       id="clipEmfPath1-54"
       clipPathUnits="userSpaceOnUse">
      <path
         id="path5675"
         d="M 0,0 H 863.47668 V 422.94367 H 0 Z" />
    </clipPath>
    <pattern
       y="0"
       x="0"
       height="6"
       width="6"
       patternUnits="userSpaceOnUse"
       id="EMFhbasepattern-08" />
    <clipPath
       id="clipEmfPath1-4"
       clipPathUnits="userSpaceOnUse">
      <path
         id="path6137"
         d="M 0,0 H 863.47668 V 510.41066 H 0 Z" />
    </clipPath>
    <pattern
       y="0"
       x="0"
       height="6"
       width="6"
       patternUnits="userSpaceOnUse"
       id="EMFhbasepattern-26" />
    <clipPath
       clipPathUnits="userSpaceOnUse"
       id="clipEmfPath1-22">
      <path
         d="M 0,0 H 863.47668 V 422.94367 H 0 Z"
         id="path7101" />
    </clipPath>
    <pattern
       id="EMFhbasepattern-23"
       patternUnits="userSpaceOnUse"
       width="6"
       height="6"
       x="0"
       y="0" />
    <clipPath
       clipPathUnits="userSpaceOnUse"
       id="clipEmfPath1-051">
      <path
         d="M 0,0 H 863.47668 V 395.60024 H 0 Z"
         id="path7563" />
    </clipPath>
    <pattern
       id="EMFhbasepattern-86"
       patternUnits="userSpaceOnUse"
       width="6"
       height="6"
       x="0"
       y="0" />
    <clipPath
       clipPathUnits="userSpaceOnUse"
       id="clipEmfPath1-30">
      <path
         d="M 0,0 H 263.36039 V 239.85463 H 0 Z"
         id="path7908" />
    </clipPath>
    <pattern
       id="EMFhbasepattern-01"
       patternUnits="userSpaceOnUse"
       width="6"
       height="6"
       x="0"
       y="0" />
    <clipPath
       clipPathUnits="userSpaceOnUse"
       id="clipEmfPath1-52">
      <path
         d="M 0,0 H 263.36039 V 239.85463 H 0 Z"
         id="path7926" />
    </clipPath>
    <pattern
       id="EMFhbasepattern-97"
       patternUnits="userSpaceOnUse"
       width="6"
       height="6"
       x="0"
       y="0" />
    <pattern
       id="EMFhbasepattern-6"
       patternUnits="userSpaceOnUse"
       width="6"
       height="6"
       x="0"
       y="0" />
  </defs>
  <sodipodi:namedview
     id="base"
     pagecolor="#ffffff"
     bordercolor="#666666"
     borderopacity="1.0"
     inkscape:pageopacity="0.0"
     inkscape:pageshadow="2"
     inkscape:zoom="0.24748737"
     inkscape:cx="-87.286569"
     inkscape:cy="1154.1922"
     inkscape:document-units="mm"
     inkscape:current-layer="layer1"
     inkscape:document-rotation="0"
     showgrid="false"
     fit-margin-top="0"
     fit-margin-left="0"
     fit-margin-right="0"
     fit-margin-bottom="0.1"
     inkscape:window-width="1920"
     inkscape:window-height="1017"
     inkscape:window-x="1272"
     inkscape:window-y="-8"
     inkscape:window-maximized="1" />
  <metadata
     id="metadata5">
    <rdf:RDF>
      <cc:Work
         rdf:about="">
        <dc:format>image/svg+xml</dc:format>
        <dc:type
           rdf:resource="http://purl.org/dc/dcmitype/StillImage" />
        <dc:title></dc:title>
      </cc:Work>
    </rdf:RDF>
  </metadata>
  <g
     inkscape:label="Layer 1"
     inkscape:groupmode="layer"
     id="layer1"
     transform="translate(-529.20448,61.469057)">
    <g
       transform="matrix(0.26458333,0,0,0.26458333,354.50555,113.51822)"
       clip-path="url(#clipEmfPath1-30)"
       id="g7914" />
    <g
       transform="matrix(0.26458333,0,0,0.26458333,354.50555,113.51822)"
       clip-path="url(#clipEmfPath1-52)"
       id="g7932" />
    <path
       style="fill:#ffff00;fill-opacity:1;fill-rule:evenodd;stroke:none;stroke-width:0.264583"
       d="m 563.1141,-9.3036571 1.34327,-0.0423 1.36707,-0.11106 1.34326,-0.13221 1.27981,-0.26442 1.31947,-0.2855799 1.23486,-0.30673 1.25601,-0.41779 1.21106,-0.46274 1.16875,-0.50769 1.1238,-0.57115 1.1,-0.59496 1.08149,-0.68221 1.05769,-0.70336 0.99159,-0.79327 0.96778,-0.76947 0.92548,-0.85674 0.88053,-0.88052 0.81707,-0.97044 0.79327,-0.94399 0.74832,-1.01274 0.70601,-1.05769 0.63725,-1.05505 0.5738,-1.1 0.52885,-1.14495 0.50769,-1.1661 0.37284,-1.16611 0.35433,-1.21106 0.32788,-1.25336 0.22212,-1.27717 0.17451,-1.27716 0.11106,-1.31947 0.0212,-1.29832 -0.0212,-1.32211 -0.11106,-1.31948 -0.17451,-1.27716 -0.22212,-1.27452 -0.32788,-1.23221 -0.35433,-1.21106 -0.37284,-1.1899 -0.50769,-1.16611 -0.52885,-1.12115 -0.5738,-1.1 -0.63725,-1.1 -0.70601,-1.0339 -0.74832,-0.99158 -0.79327,-1.01274 -0.81707,-0.92284 -0.88053,-0.88053 -0.92548,-0.85937 -0.96778,-0.81443 -0.99159,-0.74831 -1.05769,-0.70337 -1.08149,-0.66106 -1.1,-0.65841 -1.1238,-0.55 -1.16875,-0.50769 -1.21106,-0.46274 -1.25601,-0.39399 -1.23486,-0.35433 -1.31947,-0.28558 -1.27981,-0.24062 -1.34326,-0.13221 -1.36707,-0.11106 -1.34327,-0.045 -1.34327,0.045 -1.36707,0.11106 -1.34327,0.13221 -1.27716,0.24062 -1.27981,0.28558 -1.27716,0.35433 -1.21106,0.39399 -1.21106,0.46274 -1.16875,0.50769 -1.16875,0.55 -1.1,0.65841 -1.07884,0.66106 -1.01539,0.70337 -1.03389,0.74831 -0.97043,0.81443 -0.88053,0.85937 -0.88318,0.88053 -0.85937,0.92284 -0.79063,1.01274 -0.75096,0.99158 -0.66106,1.0339 -0.63726,1.1 -0.57379,1.1 -0.52885,1.12115 -0.50769,1.16611 -0.39664,1.1899 -0.37283,1.21106 -0.28822,1.23221 -0.21948,1.27452 -0.17716,1.27716 -0.10841,1.31948 -0.0238,1.32211 0.0238,1.29832 0.10841,1.31947 0.17716,1.27716 0.21948,1.27717 0.28822,1.25336 0.37283,1.21106 0.39664,1.16611 0.50769,1.1661 0.52885,1.14495 0.57379,1.1 0.63726,1.05505 0.66106,1.05769 0.75096,1.01274 0.79063,0.94399 0.85937,0.97044 0.88318,0.88052 0.88053,0.85674 0.97043,0.76947 1.03389,0.79327 1.01539,0.70336 1.07884,0.68221 1.1,0.59496 1.16875,0.57115 1.16875,0.50769 1.21106,0.46274 1.21106,0.41779 1.27716,0.30673 1.27981,0.2855799 1.27716,0.26442 1.34327,0.13221 1.36707,0.11106 z"
       id="path7947" />
    <path
       style="fill:#ffffff;fill-opacity:1;fill-rule:evenodd;stroke:none;stroke-width:0.264583"
       d="m 570.18742,-44.019767 -0.17452,-0.59495 -0.11106,-0.5738 -0.11106,-0.59495 -0.0211,-0.57115 -3.41899,-0.75096 1.32476,-6.01299 3.39519,0.74832 0.15336,-0.24062 0.17717,-0.28822 0.13221,-0.24063 0.17716,-0.26442 0.19832,-0.19832 0.17452,-0.26442 0.17716,-0.24327 0.17717,-0.21947 -1.89592,-2.95361 5.20121,-3.30264 1.87476,2.95096 0.28557,-0.0661 0.33053,-0.0661 0.28822,-0.0661 0.28558,-0.0873 0.26442,-0.0238 0.33053,-0.0423 0.28822,-0.0238 0.28558,-0.0423 0.75096,-3.41635 5.99447,1.32212 -0.74831,3.4375 0.26442,0.15336 0.24327,0.13222 0.24062,0.15601 0.26707,0.17452 0.19832,0.17716 0.26442,0.17716 0.24062,0.17452 0.22212,0.22212 2.97476,-1.94087 3.30793,5.2012 -2.9536,1.87212 0.15336,0.57115 0.0873,0.5738 0.11106,0.61611 0.045,0.55264 3.4375,0.79063 -1.29832,6.01562 -3.4613,-0.74832 -0.13221,0.24063 -0.15601,0.24327 -0.13221,0.26442 -0.17716,0.24327 -0.17452,0.19832 -0.17716,0.26442 -0.17717,0.24062 -0.17452,0.21948 1.87212,2.9536 -5.2012,3.32644 -1.87476,-2.9536 -0.28558,0.0899 -0.28822,0.0661 -0.28558,0.0661 -0.28822,0.0423 -0.30673,0.0661 -0.28822,0.045 -0.28558,0.0212 -0.30937,0.045 -0.74832,3.4137 -6.02091,-1.31947 0.75096,-3.41635 -0.24327,-0.13221 -0.28558,-0.15337 -0.26442,-0.17716 -0.24327,-0.17452 -0.21947,-0.13221 -0.24327,-0.17717 -0.24327,-0.21947 -0.21947,-0.17716 -2.9113,1.87212 -3.35024,-5.17741 z"
       id="path7949" />
    <path
       style="fill:#ff7f00;fill-opacity:1;fill-rule:evenodd;stroke:none;stroke-width:0.264583"
       d="m 580.02395,-33.799817 -4.27043,-0.92548 0.68221,-3.19687 -0.39663,-0.17452 -0.37548,-0.22212 -0.37284,-0.24327 -0.37548,-0.24062 -0.33053,-0.26442 -0.35168,-0.26443 -0.33053,-0.28822 -0.30673,-0.28557 -2.7738,1.74254 -2.33485,-3.70456 2.73149,-1.74255 -0.24327,-0.85938 -0.21947,-0.83822 -0.11106,-0.85937 -0.0423,-0.90433 -3.19423,-0.70601 0.92548,-4.29952 3.19159,0.70601 0.21947,-0.39663 0.22211,-0.37548 0.19832,-0.35169 0.26442,-0.39663 0.28558,-0.33053 0.24063,-0.35433 0.30937,-0.30673 0.28558,-0.33317 -1.76106,-2.77644 3.67548,-2.38246 1.78486,2.77909 0.39399,-0.13221 0.42043,-0.11106 0.43894,-0.10841 0.41779,-0.11106 0.41779,-0.0661 0.44159,-0.045 0.46274,-0.0212 h 0.41778 l 0.70337,-3.22067 4.29423,0.92812 -0.70601,3.23918 0.39663,0.17717 0.39664,0.21947 0.35168,0.24327 0.39664,0.26442 0.30937,0.24327 0.35169,0.28558 0.33052,0.28822 0.28558,0.28558 2.79495,-1.82981 2.37717,3.70456 -2.79496,1.80866 0.24327,0.81442 0.21947,0.83822 0.10842,0.88053 0.0238,0.88317 3.23389,0.70601 -0.92284,4.27573 -3.23653,-0.70337 -0.17717,0.39663 -0.21947,0.37284 -0.24062,0.39664 -0.24327,0.35432 -0.24063,0.35169 -0.28822,0.35432 -0.28558,0.33053 -0.28557,0.33053 1.80336,2.75529 -3.71779,2.35865 -1.7399,-2.73413 -0.44159,0.13221 -0.37283,0.11106 -0.44159,0.11105 -0.41779,0.10842 -0.46274,0.0661 -0.41779,0.0238 -0.43894,0.0423 h -0.46274 z"
       id="path7951" />
    <path
       style="fill:#ffffff;fill-opacity:1;fill-rule:evenodd;stroke:none;stroke-width:0.264583"
       d="m 585.99992,-41.179857 -0.68221,0.52884 -0.66106,0.46274 -0.72452,0.37284 -0.72716,0.30937 -0.79328,0.21948 -0.76946,0.13221 -0.79328,0.10841 h -0.77211 l -0.79063,-0.0661 -0.75096,-0.15336 -0.74831,-0.19832 -0.70337,-0.28557 -0.70601,-0.35169 -0.68221,-0.46274 -0.59495,-0.50769 -0.57116,-0.57115 -0.92548,-1.29832 -0.63726,-1.47548 -0.33052,-1.47548 -0.0238,-1.56274 0.24326,-1.54159 0.5738,-1.47548 0.85674,-1.38558 1.12379,-1.21105 0.63726,-0.52885 0.72717,-0.46274 0.706,-0.39664 0.74832,-0.28557 0.74832,-0.24327 0.76947,-0.15337 0.79327,-0.0661 0.77211,-0.045 0.79063,0.0899 0.72716,0.13221 0.74832,0.21947 0.72717,0.30938 0.706,0.35168 0.65842,0.43894 0.61875,0.52885 0.57115,0.5738 0.92548,1.29831 0.63726,1.43053 0.30938,1.52043 0.0423,1.53895 -0.24062,1.56538 -0.5738,1.45168 -0.81442,1.38822 z"
       id="path7953" />
    <path
       style="fill:#992600;fill-opacity:1;fill-rule:evenodd;stroke:none;stroke-width:0.264583"
       d="m 585.09823,-48.776737 0.28823,-0.13221 0.21947,-0.19832 0.17716,-0.24327 0.13221,-0.28822 0.10841,-0.46538 v -0.46539 l -0.10841,-0.42043 -0.17716,-0.42043 -0.045,-0.15337 v -0.13485 l 0.045,-0.15337 0.0449,-0.13485 v -0.15337 -0.13221 -0.11106 l -0.0899,-0.13485 -0.26443,-0.28558 -0.33053,-0.22212 -0.30673,-0.22211 -0.37548,-0.13221 -0.37283,-0.11106 -0.35433,-0.0661 -0.39663,-0.045 h -0.39664 -0.13221 l -0.17452,-0.0661 -0.15601,-0.0661 -0.13221,-0.11106 -0.37284,-0.24327 -0.37548,-0.22211 -0.35168,-0.21947 -0.39664,-0.17717 -0.44158,-0.13485 -0.37548,-0.0873 -0.43895,-0.0238 -0.46274,0.0687 -0.19831,0.0661 -0.17717,0.0873 -0.17716,0.0899 -0.17452,0.11106 -0.15601,0.15336 -0.13221,0.13221 -0.15337,0.17717 -0.13221,0.15601 h -0.21947 -0.24327 -0.26442 l -0.19832,0.0211 -0.15337,0.0899 -0.17716,0.0873 -0.11106,0.15601 -0.0873,0.13221 -0.11105,0.22212 -0.10842,0.24327 -0.0661,0.26442 -0.11106,0.20096 -0.17716,0.17717 -0.21948,0.15336 -0.21947,0.13486 -0.17716,0.15336 -0.17716,0.20096 -0.0661,0.21948 0.0449,0.24327 0.17717,0.22211 0.13221,0.13221 0.15336,0.11106 0.13221,0.15601 0.17717,0.11106 0.15336,0.13221 0.13222,0.11106 0.15336,0.13221 0.0899,0.17716 0.0423,0.11106 v 0.11106 0.15336 l 0.0449,0.0899 0.0661,0.17716 0.13221,0.11106 0.15337,0.0661 0.19832,0.045 0.17716,0.0423 0.19831,-0.0423 0.19832,-0.045 0.17716,-0.0212 0.15337,-0.045 0.13221,-0.0661 0.15337,-0.045 0.13221,-0.0212 0.15601,-0.0687 0.13221,-0.0423 0.13221,-0.045 0.15337,-0.0212 h 0.17716 0.17452 0.17716 l 0.15337,0.0212 0.17716,0.045 0.17717,0.0423 0.13221,0.0238 0.17452,0.0661 0.15601,0.045 h 0.13221 0.15336 l 0.13222,-0.045 0.13221,-0.0661 0.15336,-0.0661 0.13221,-0.11106 0.11106,-0.0661 0.15337,-0.11105 0.11105,-0.0661 0.13222,-0.11106 0.13221,-0.045 0.21947,-0.0212 0.17716,0.0212 0.21947,0.045 0.17717,0.0661 0.17716,0.11106 0.17452,0.11105 0.17716,0.11106 0.17717,0.10842 0.21947,0.0687 h 0.21947 l 0.19832,-0.045 h 0.24327 l 0.0873,0.045 0.11105,0.0661 0.0661,0.0423 0.0661,0.0687 v 0.0661 0.0423 0.0661 l 0.045,0.045 0.0873,0.0238 h 0.11105 0.10842 0.15601 l 0.0212,0.0423 v 0.0238 l 0.0423,0.0423 z"
       id="path7955" />
    <path
       style="fill:#f2bfb2;fill-opacity:1;fill-rule:evenodd;stroke:none;stroke-width:0.264583"
       d="m 579.23333,-51.526737 -2.65745,1.59183 -0.59231,3.0012 -1.34062,0.88317 2.08894,5.56611 8.43245,0.0423 0.39399,-6.07116 -1.25072,-3.15721 z"
       id="path7957" />
    <path
       style="fill:#f2bfb2;fill-opacity:1;fill-rule:evenodd;stroke:none;stroke-width:0.264583"
       d="m 575.87251,-43.723607 -0.31202,0.0661 -0.33581,-0.0212 -0.31202,-0.0873 -0.29087,-0.13486 -0.26707,-0.17716 -0.24326,-0.21947 -0.17981,-0.28822 -0.11106,-0.30938 -0.0238,-0.33317 v -0.35433 l 0.0688,-0.28822 0.13221,-0.30937 0.17981,-0.26443 0.22212,-0.20096 0.29086,-0.17716 0.31202,-0.10842 0.33317,-0.0687 0.33582,0.0238 0.31202,0.0873 0.28822,0.0899 0.24591,0.22211 0.22476,0.21947 0.17717,0.28822 0.11106,0.30938 0.0661,0.33317 -0.0423,0.35433 -0.0688,0.28822 -0.11105,0.30938 -0.17717,0.26442 -0.24591,0.20096 -0.24591,0.17716 z"
       id="path7959" />
    <path
       style="fill:#f2bfb2;fill-opacity:1;fill-rule:evenodd;stroke:none;stroke-width:0.264583"
       d="m 585.33621,-43.530577 0.33318,-0.0212 0.30937,-0.11106 0.28822,-0.15336 0.26443,-0.20096 0.17981,-0.26443 0.13221,-0.28822 0.11105,-0.30937 0.0423,-0.33318 -0.0423,-0.30937 -0.11105,-0.33053 -0.13221,-0.28822 -0.17981,-0.24327 -0.26443,-0.22211 -0.28822,-0.13222 -0.30937,-0.11105 -0.33318,-0.0238 -0.30937,0.0238 -0.33317,0.11105 -0.24327,0.13222 -0.24592,0.22211 -0.17716,0.24327 -0.15337,0.28822 -0.11105,0.33053 -0.0238,0.30937 0.0238,0.33318 0.11105,0.30937 0.15337,0.28822 0.17716,0.26443 0.24592,0.20096 0.24327,0.15336 0.33317,0.11106 z"
       id="path7961" />
    <path
       style="fill:#000000;fill-opacity:1;fill-rule:evenodd;stroke:none;stroke-width:0.264583"
       d="m 584.66722,-49.916397 -0.57115,8.85817 h -6.43077 l -1.6024,-5.09014 0.85673,-3.65697 -0.67957,-0.15601 -0.83558,3.83413 1.75577,5.7274 h 7.59423 l 0.59231,-9.49543 z"
       id="path7963" />
    <path
       style="fill:#000000;fill-opacity:1;fill-rule:evenodd;stroke:none;stroke-width:0.264583"
       d="m 575.72179,-44.641157 h -0.31466 l -0.27236,-0.0661 -0.2036,-0.17716 -0.15866,-0.24327 -0.0212,-0.15601 0.0212,-0.13221 v -0.11106 l 0.0687,-0.15601 0.1137,-0.0873 0.11106,-0.11106 0.15866,-0.0899 0.1375,-0.0661 0.0661,-0.0212 h 0.0688 0.0899 l 0.0688,0.0212 0.0661,-0.66634 h -0.13485 -0.11371 -0.15865 l -0.13486,0.0238 -0.29351,0.11105 -0.24855,0.13222 -0.22741,0.20096 -0.13485,0.24327 -0.15866,0.24327 -0.0238,0.24327 v 0.28822 l 0.0238,0.26706 0.1137,0.24327 0.13486,0.22212 0.20361,0.20096 0.2036,0.15336 0.24856,0.11106 0.27236,0.0661 h 0.29351 l 0.2935,-0.0423 0.13751,-0.0661 0.156,-0.045 0.0926,-0.0661 0.11106,-0.0687 -0.40721,-0.53149 -0.0661,0.0238 -0.0238,0.0423 -0.0899,0.045 z"
       id="path7965" />
    <path
       style="fill:#000000;fill-opacity:1;fill-rule:evenodd;stroke:none;stroke-width:0.264583"
       d="m 586.33309,-46.174817 -0.21418,-0.17716 -0.23798,-0.15601 -0.28294,-0.0661 -0.28028,-0.045 h -0.15073 l -0.13221,0.045 -0.15072,0.045 -0.0873,0.0212 0.19567,0.64255 0.0661,-0.0212 h 0.10841 l 0.0846,-0.045 h 0.0661 l 0.12956,0.045 0.15072,0.0212 0.12957,0.0899 0.10841,0.0873 0.10842,0.11106 0.0661,0.11106 0.0423,0.11106 v 0.13221 l -0.0873,0.28822 -0.12957,0.22211 -0.23798,0.13486 -0.28028,0.0873 h -0.0661 l -0.0846,-0.045 h -0.10841 l -0.0661,-0.0423 -0.19567,0.64255 0.0873,0.0423 0.15072,0.045 0.13221,0.0212 h 0.15073 l 0.28028,-0.0212 0.28294,-0.0873 0.23798,-0.13486 0.21418,-0.17716 0.17452,-0.22212 0.0873,-0.19831 0.0846,-0.28822 0.0212,-0.26707 -0.0212,-0.24327 -0.0846,-0.24327 -0.0873,-0.26442 z"
       id="path7967" />
    <path
       style="fill:#000000;fill-opacity:1;fill-rule:evenodd;stroke:none;stroke-width:0.264583"
       d="m 579.75953,-45.680337 0.17716,-1.9488 -0.69014,-0.0899 -0.24591,2.65746 1.6262,0.17716 0.0661,-0.6399 z"
       id="path7969" />
    <path
       style="fill:#000000;fill-opacity:1;fill-rule:evenodd;stroke:none;stroke-width:0.264583"
       d="m 578.23117,-48.692117 -0.29087,0.045 -0.28822,0.0661 -0.24591,0.15601 -0.26707,0.17717 -0.17716,0.17716 -0.13222,0.24327 -0.0688,0.24591 -0.045,0.28558 0.045,0.24591 0.0688,0.26443 0.11106,0.20096 0.17717,0.21947 0.11105,0.11106 0.13221,0.0687 0.11371,0.10841 0.13221,0.045 0.15601,0.0661 0.13221,0.0238 0.17981,0.0423 h 0.15601 0.13221 l 0.17716,-0.0423 0.15601,-0.0238 0.13486,-0.0661 0.15601,-0.045 0.0873,-0.10841 0.15601,-0.0687 0.11105,-0.11106 0.17981,-0.21947 0.11106,-0.20096 0.0661,-0.26443 0.0211,-0.24591 -0.0211,-0.24327 -0.0661,-0.24327 -0.11106,-0.22211 -0.17981,-0.22212 -0.11105,-0.10841 -0.15601,-0.0688 -0.0873,-0.10842 -0.15601,-0.0687 -0.13486,-0.0423 -0.15601,-0.0238 -0.17716,-0.045 z"
       id="path7971" />
    <path
       style="fill:#000000;fill-opacity:1;fill-rule:evenodd;stroke:none;stroke-width:0.264583"
       d="m 583.1415,-48.099817 -0.10577,-0.10841 -0.12956,-0.0687 -0.10842,-0.10841 -0.14807,-0.0687 -0.12957,-0.0423 -0.15072,-0.045 -0.17188,-0.0238 h -0.12956 l -0.27765,0.0238 -0.28029,0.0873 -0.23533,0.13485 -0.23534,0.17717 -0.19303,0.17716 -0.12957,0.24327 -0.0635,0.26707 -0.045,0.28557 0.045,0.24592 0.0635,0.24327 0.10842,0.24327 0.17187,0.22211 0.10577,0.11106 0.12957,0.0661 0.10577,0.0661 0.15072,0.0899 0.12957,0.0212 0.12956,0.045 0.17188,0.0423 h 0.14808 0.12956 l 0.17188,-0.0423 0.15072,-0.045 0.12957,-0.0212 0.14807,-0.0899 0.10842,-0.0661 0.12956,-0.0661 0.10577,-0.11106 0.17188,-0.22211 0.10841,-0.24327 0.0635,-0.24327 0.0423,-0.24592 -0.0423,-0.26442 -0.0635,-0.24327 -0.10841,-0.22211 z"
       id="path7973" />
    <path
       style="fill:#000000;fill-opacity:1;fill-rule:evenodd;stroke:none;stroke-width:0.264583"
       d="m 579.29679,-47.311827 1.50192,0.0582 0.0212,-0.61611 -1.47813,-0.0608 z"
       id="path7975" />
    <path
       style="fill:#000000;fill-opacity:1;fill-rule:evenodd;stroke:none;stroke-width:0.264583"
       d="m 584.69102,-50.595967 0.57115,-0.34904 -0.41778,-0.5738 -0.50505,-0.50504 -0.59495,-0.39399 -0.61346,-0.30938 -0.66106,-0.24062 -0.72452,-0.17717 -0.70601,-0.15336 -0.68221,-0.10842 -0.65841,-0.0238 h -0.63726 -0.61611 l -0.52885,0.0238 -0.41778,0.0423 -0.35169,0.0238 -0.26442,0.0423 h -0.0873 l -0.28558,0.045 v 0.28558 l -0.0899,2.32956 0.68221,0.0423 0.0661,-2.0863 0.26443,-0.045 h 0.35168 l 0.37548,-0.0423 h 0.4601 0.50769 0.5262 l 0.5738,0.0423 0.57115,0.0661 0.57116,0.11105 0.55,0.10842 0.57115,0.17716 0.52885,0.24063 0.50505,0.24327 0.46274,0.32788 0.39663,0.39663 z"
       id="path7977" />
    <path
       style="fill:#000000;fill-opacity:1;fill-rule:evenodd;stroke:none;stroke-width:0.264583"
       d="m 578.99271,-44.461347 -0.45746,0.49711 0.19832,0.17188 0.25914,0.17187 0.30673,0.12957 0.39134,0.10841 0.4125,0.0635 h 0.45745 l 0.45746,-0.0635 0.52091,-0.19303 -0.30409,-0.60553 -0.45745,0.17452 -0.43365,0.0635 -0.37019,-0.0212 -0.32789,-0.10841 -0.23798,-0.10842 -0.21947,-0.12692 -0.12957,-0.10841 z"
       id="path7979" />
    <path
       style="fill:#000000;fill-opacity:1;fill-rule:evenodd;stroke:none;stroke-width:0.264583"
       d="m 579.55064,-51.077217 -0.65841,-0.99952 -0.56851,0.35697 0.66105,0.99688 z"
       id="path7981" />
    <path
       style="fill:#000000;fill-opacity:1;fill-rule:evenodd;stroke:none;stroke-width:0.264583"
       d="m 580.57395,-50.595967 0.62669,-0.17187 -0.30144,-1.22428 -0.67164,0.17187 z"
       id="path7983" />
    <path
       style="fill:#000000;fill-opacity:1;fill-rule:evenodd;stroke:none;stroke-width:0.264583"
       d="m 582.0891,-50.387067 0.69014,0.0872 0.1137,-0.86201 -0.71129,-0.0688 z"
       id="path7985" />
    <path
       style="fill:#000000;fill-opacity:1;fill-rule:evenodd;stroke:none;stroke-width:0.264583"
       d="m 585.85448,-47.634427 -2.53846,0.0238 0.045,0.69543 2.49351,-0.045 z"
       id="path7987" />
    <path
       style="fill:#000000;fill-opacity:1;fill-rule:evenodd;stroke:none;stroke-width:0.264583"
       d="m 575.19295,-47.256307 1.66851,0.17188 0.0661,-0.62668 -1.66587,-0.21947 z"
       id="path7989" />
    <path
       style="fill:#e58268;fill-opacity:1;fill-rule:evenodd;stroke:none;stroke-width:0.264583"
       d="m 577.87155,-44.672887 0.26442,-0.0423 0.22212,-0.15337 0.15337,-0.17716 0.0661,-0.19832 -0.0661,-0.21947 -0.15337,-0.17452 -0.22212,-0.13221 -0.26442,-0.045 -0.28822,0.045 -0.22212,0.13221 -0.13221,0.17452 -0.0899,0.21947 0.0899,0.19832 0.13221,0.17716 0.22212,0.15337 z"
       id="path7991" />
    <path
       style="fill:#e58268;fill-opacity:1;fill-rule:evenodd;stroke:none;stroke-width:0.264583"
       d="m 582.58886,-44.419047 0.34111,-0.0212 0.23533,-0.15337 0.17188,-0.19567 0.0635,-0.26442 -0.0635,-0.24063 -0.17188,-0.21682 -0.23533,-0.13221 -0.34111,-0.045 -0.36491,0.045 -0.27764,0.13221 -0.17188,0.21682 -0.0661,0.24063 0.0661,0.26442 0.17188,0.19567 0.27764,0.15337 z"
       id="path7993" />
    <path
       style="fill:#ffffff;fill-opacity:1;fill-rule:evenodd;stroke:none;stroke-width:0.264583"
       d="m 536.03453,-34.606307 -0.21947,-0.30937 -0.22211,-0.28558 -0.19832,-0.33053 -0.17452,-0.30937 -0.22212,-0.35168 -0.17452,-0.33053 -0.15601,-0.30938 -0.17451,-0.37283 -4.29688,0.57115 -0.99159,-7.59688 4.29688,-0.61875 0.15336,-0.70336 0.13222,-0.70601 0.21947,-0.70337 0.28822,-0.72716 -3.47981,-2.66538 4.64591,-6.10289 3.47981,2.66539 0.33053,-0.21948 0.26442,-0.19831 0.33053,-0.19832 0.30938,-0.19832 0.33053,-0.17452 0.33052,-0.17716 0.35169,-0.15337 0.30937,-0.17716 -0.5738,-4.33918 7.62068,-1.03654 0.59495,4.38413 0.35433,0.0661 0.35168,0.0661 0.35168,0.0873 0.37548,0.0661 0.35169,0.11106 0.35168,0.11106 0.35433,0.0873 0.35168,0.15336 2.66538,-3.47981 6.12404,4.64856 -2.66538,3.52476 0.19831,0.28558 0.21947,0.30673 0.17717,0.33053 0.17452,0.28822 0.17716,0.30673 0.17717,0.33053 0.17451,0.35433 0.15601,0.30673 4.36034,-0.55 1.03389,7.59952 -4.36033,0.59495 -0.15337,0.72716 -0.13221,0.70337 -0.22212,0.70601 -0.24062,0.70336 3.47981,2.66539 -4.66971,6.12404 -3.47981,-2.66539 -0.28558,0.21947 -0.30937,0.19832 -0.33053,0.21947 -0.28558,0.17716 -0.35433,0.17717 -0.30673,0.17452 -0.33053,0.17716 -0.35168,0.15336 0.61611,4.31803 -7.64447,1.0339 -0.57116,-4.33919 -0.35432,-0.0661 -0.39664,-0.0635 -0.35168,-0.0661 -0.35168,-0.0899 -0.35169,-0.0873 -0.37548,-0.11106 -0.35168,-0.10841 -0.35433,-0.13221 -2.62043,3.43485 -6.14519,-4.64856 z"
       id="path7995" />
    <path
       style="fill:#ff0000;fill-opacity:1;fill-rule:evenodd;stroke:none;stroke-width:0.264583"
       d="m 551.98982,-26.890437 -5.44976,0.74832 -0.5738,-4.05096 -0.55,-0.0661 -0.55264,-0.0873 -0.52885,-0.0873 -0.52884,-0.15601 -0.53149,-0.13221 -0.52885,-0.17452 -0.50769,-0.22212 -0.50769,-0.21947 -2.44856,3.28149 -4.36827,-3.34759 2.49351,-3.23654 -0.35433,-0.41779 -0.33053,-0.46274 -0.33053,-0.44159 -0.26442,-0.48389 -0.26442,-0.46274 -0.24327,-0.50505 -0.21947,-0.48654 -0.20097,-0.52884 -4.05889,0.52884 -0.75096,-5.43918 4.08269,-0.52885 0.0449,-0.57115 0.11106,-0.52885 0.10841,-0.55 0.11106,-0.52884 0.17717,-0.52885 0.13221,-0.50505 0.21947,-0.48654 0.19832,-0.50504 -3.22068,-2.51202 3.31058,-4.33654 3.26562,2.48822 0.41779,-0.35168 0.44159,-0.33053 0.46274,-0.28822 0.46538,-0.28558 0.46275,-0.24327 0.48389,-0.24062 0.53149,-0.21947 0.50769,-0.22212 -0.53149,-4.07212 5.44976,-0.75096 0.53149,4.11971 0.57116,0.0423 0.53149,0.11106 0.52884,0.0873 0.52885,0.11106 0.50769,0.17716 0.52885,0.15337 0.50769,0.19831 0.48654,0.21947 2.53581,-3.30264 4.34712,3.3476 -2.49351,3.30264 0.35433,0.41779 0.30937,0.44159 0.28558,0.46274 0.28822,0.41778 0.24063,0.4839 0.26706,0.46274 0.19832,0.55 0.21947,0.48654 4.10385,-0.5738 0.72716,5.48413 -4.08005,0.52885 -0.0661,0.57115 -0.0661,0.52885 -0.11106,0.52885 -0.15336,0.52884 -0.13221,0.50505 -0.17717,0.52885 -0.17716,0.50769 -0.21947,0.48389 3.26562,2.48822 -3.33173,4.38149 -3.28942,-2.48822 -0.41779,0.35169 -0.42043,0.33053 -0.46274,0.26442 -0.46274,0.28822 -0.46274,0.28558 -0.50769,0.26442 -0.5077,0.19832 -0.53149,0.21947 z"
       id="path7997" />
    <path
       style="fill:#ffffff;fill-opacity:1;fill-rule:evenodd;stroke:none;stroke-width:0.264583"
       d="m 553.64775,-35.365197 -0.81706,0.68486 -0.90169,0.57115 -0.88053,0.46274 -0.92548,0.37548 -0.94663,0.28558 -0.97043,0.17716 -0.94664,0.10841 h -1.01274 l -0.94928,-0.0661 -0.96779,-0.17452 -0.92548,-0.28558 -0.88053,-0.35432 -0.88052,-0.46274 -0.81707,-0.52885 -0.79327,-0.63726 -0.70337,-0.72716 -1.16875,-1.63149 -0.79327,-1.80601 -0.41778,-1.89327 -0.045,-1.93822 0.33053,-1.91707 0.70601,-1.85096 1.05769,-1.73991 1.43053,-1.54158 0.81707,-0.66106 0.88053,-0.55265 0.90168,-0.48389 0.92548,-0.35168 0.94664,-0.28822 0.97043,-0.21947 0.94663,-0.11106 h 0.99159 l 0.97043,0.11106 0.94664,0.17716 0.92548,0.24062 0.90168,0.37548 0.88053,0.46274 0.81707,0.55 0.79327,0.63991 0.70336,0.72716 1.16875,1.62885 0.79327,1.78485 0.41779,1.91707 0.0423,1.91707 -0.32789,1.91707 -0.70601,1.84831 -1.07884,1.74255 z"
       id="path7999" />
    <path
       style="fill:#994c00;fill-opacity:1;fill-rule:evenodd;stroke:none;stroke-width:0.264583"
       d="m 550.42444,-48.353657 -8.4351,0.35433 -2.41947,4.69086 2.52788,8.83173 10.87572,-0.92284 0.21948,-11.12427 z"
       id="path8001" />
    <path
       style="fill:#994c00;fill-opacity:1;fill-rule:evenodd;stroke:none;stroke-width:0.264583"
       d="m 553.43886,-38.326737 0.39928,-0.0212 0.39928,-0.15337 0.35432,-0.19832 0.28822,-0.28557 0.24327,-0.35168 0.17717,-0.394 0.15601,-0.43894 0.0211,-0.46274 -0.0211,-0.43894 -0.15601,-0.43894 -0.17717,-0.39664 -0.24327,-0.30673 -0.28822,-0.28557 -0.35432,-0.21948 -0.39928,-0.13221 -0.39928,-0.045 -0.42308,0.045 -0.39928,0.13221 -0.30937,0.21948 -0.33318,0.28557 -0.24326,0.30673 -0.17717,0.39664 -0.15601,0.43894 -0.0238,0.43894 0.0238,0.46274 0.15601,0.43894 0.17717,0.394 0.24326,0.35168 0.33318,0.28557 0.30937,0.19832 0.39928,0.15337 z"
       id="path8003" />
    <path
       style="fill:#000000;fill-opacity:1;fill-rule:evenodd;stroke:none;stroke-width:0.264583"
       d="m 552.21987,-39.006307 0.17716,0.0661 0.21683,0.0423 0.17452,0.0211 h 0.17452 0.19831 l 0.21683,-0.0211 0.17452,-0.0423 0.17452,-0.0661 0.17452,-0.11105 0.17452,-0.0635 0.17452,-0.11106 0.15336,-0.15337 0.24063,-0.28293 0.15336,-0.35168 0.0873,-0.34904 0.0423,-0.35168 -0.0423,-0.34904 -0.0873,-0.35169 -0.15336,-0.32788 -0.24063,-0.28558 -0.15336,-0.12956 -0.17452,-0.11106 -0.17452,-0.0635 -0.17452,-0.11106 -0.17452,-0.0661 -0.17452,-0.0423 -0.21683,-0.0238 h -0.19831 -0.17452 l -0.17452,0.0238 -0.21683,0.0423 -0.17716,0.0661 0.30673,0.76683 0.10841,-0.0212 0.11106,-0.045 h 0.10841 0.10842 l 0.24062,0.045 0.21947,0.0212 0.19568,0.10841 0.17452,0.15336 0.10841,0.17452 0.11106,0.17717 0.0423,0.17452 0.0212,0.17452 -0.0212,0.21947 -0.0423,0.19567 -0.11106,0.17716 -0.12957,0.15337 -0.17452,0.12957 -0.17452,0.11105 -0.21947,0.0423 -0.24062,0.0238 h -0.10842 -0.10841 l -0.11106,-0.0238 -0.10841,-0.0423 z"
       id="path8005" />
    <path
       style="fill:#000000;fill-opacity:1;fill-rule:evenodd;stroke:none;stroke-width:0.264583"
       d="m 540.98189,-41.409907 -0.10842,0.045 -0.10841,0.0212 -0.15072,0.045 h -0.0873 l -0.25913,-0.045 -0.19568,-0.0661 -0.17452,-0.10841 -0.17187,-0.13222 -0.15337,-0.15336 -0.10577,-0.17717 -0.0238,-0.21947 -0.0423,-0.17716 0.0423,-0.19832 0.0238,-0.17452 0.10577,-0.17716 0.15337,-0.15337 0.17187,-0.17451 0.17452,-0.11106 0.19568,-0.0212 0.25913,-0.045 h 0.0873 l 0.15072,0.045 h 0.10841 l 0.10842,0.0212 0.28029,-0.76947 -0.19303,-0.0661 -0.17452,-0.045 -0.19568,-0.045 h -0.17187 l -0.39135,0.045 -0.3887,0.11106 -0.30408,0.17452 -0.32525,0.24326 -0.21418,0.28558 -0.19567,0.33053 -0.10841,0.35168 -0.045,0.37284 0.045,0.37548 0.10841,0.35168 0.17187,0.30673 0.23798,0.28823 0.15337,0.15336 0.12957,0.0873 0.17187,0.11106 0.17452,0.10841 0.17452,0.0661 0.21418,0.045 0.17452,0.0423 h 0.21683 0.17187 l 0.19568,-0.0423 0.17452,-0.0661 0.19303,-0.045 z"
       id="path8007" />
    <path
       style="fill:#000000;fill-opacity:1;fill-rule:evenodd;stroke:none;stroke-width:0.264583"
       d="m 553.57371,-49.369047 -0.0873,-0.28557 -0.17452,-0.21947 -0.24063,-0.13222 -0.30673,-0.0873 h -0.15337 l -0.11105,0.0423 -0.10842,0.045 -0.0873,0.0212 -0.15336,-0.10842 -0.13221,-0.11105 -0.17452,-0.0212 -0.21947,-0.045 -0.21947,0.045 -0.17452,0.0212 -0.13222,0.11105 -0.15336,0.10842 -0.13221,-0.21947 -0.17452,-0.13221 -0.21947,-0.10842 -0.28558,-0.0238 -0.19567,0.0238 -0.19832,0.0661 -0.13221,0.0873 -0.13221,0.13221 -0.15337,-0.17716 -0.17452,-0.13222 -0.21947,-0.10841 -0.24062,-0.045 -0.24063,0.045 -0.21947,0.10841 -0.17452,0.13222 -0.13221,0.17716 -0.0873,-0.28558 -0.17716,-0.21947 -0.24063,-0.13221 -0.32788,-0.045 -0.24063,0.045 -0.19832,0.0661 -0.19567,0.15337 -0.13221,0.17452 -0.11106,-0.21947 -0.17452,-0.13221 -0.24062,-0.10842 -0.26443,-0.045 -0.24062,0.045 -0.19567,0.0661 -0.19832,0.17452 -0.13221,0.17716 -0.10842,-0.21947 -0.17451,-0.13221 -0.24327,-0.11106 -0.24063,-0.0212 -0.32788,0.0661 -0.28558,0.13221 -0.17452,0.21948 -0.0661,0.28557 v 0 0 0 0 -0.045 0 0 -0.0212 l -0.0661,-0.28558 -0.19567,-0.21947 -0.24327,-0.13221 -0.30673,-0.0899 -0.32789,0.0899 -0.28558,0.13221 -0.17452,0.21947 -0.0661,0.28558 v 0 0 0 h -0.045 l 0.96514,3.76009 8.48269,-0.43894 1.05241,4.79399 1.31418,-1.03125 0.24063,-5.89663 0.045,-0.0661 v -0.0661 l 0.0423,-0.0661 z"
       id="path8009" />
    <path
       style="fill:#000000;fill-opacity:1;fill-rule:evenodd;stroke:none;stroke-width:0.264583"
       d="m 552.04006,-47.031547 -0.74832,11.2327 h -8.17067 l -1.69495,-6.65289 1.56274,-4.5137 -0.81442,-0.28822 -1.63149,4.78077 1.93822,7.53077 h 9.60384 l 0.76947,-12.04712 z"
       id="path8011" />
    <path
       style="fill:#007fff;fill-opacity:1;fill-rule:evenodd;stroke:none;stroke-width:0.264583"
       d="m 543.08141,-49.295007 0.48654,1.74519 0.78269,-0.24062 -0.48654,-1.74784 z"
       id="path8013" />
    <path
       style="fill:#007fff;fill-opacity:1;fill-rule:evenodd;stroke:none;stroke-width:0.264583"
       d="m 545.70977,-49.199817 -0.13221,0.95193 0.82236,0.14807 0.15072,-0.97307 z"
       id="path8015" />
    <path
       style="fill:#ffffff;fill-opacity:1;fill-rule:evenodd;stroke:none;stroke-width:0.264583"
       d="m 548.25352,-41.161347 0.24063,-0.0212 0.23798,-0.0899 0.21682,-0.0873 0.21683,-0.15601 0.12957,-0.22212 0.10841,-0.20096 0.0661,-0.22211 0.0423,-0.24592 -0.0423,-0.24591 -0.0661,-0.26707 -0.10841,-0.20096 -0.12957,-0.22211 -0.21683,-0.15601 -0.21682,-0.0873 -0.23798,-0.0899 -0.24063,-0.0238 -0.25913,0.0238 -0.19568,0.0899 -0.21682,0.0873 -0.21683,0.15601 -0.12957,0.22211 -0.10841,0.20096 -0.0661,0.26707 -0.045,0.24591 0.045,0.24592 0.0661,0.22211 0.10841,0.20096 0.12957,0.22212 0.21683,0.15601 0.21682,0.0873 0.19568,0.0899 z"
       id="path8017" />
    <path
       style="fill:#ffffff;fill-opacity:1;fill-rule:evenodd;stroke:none;stroke-width:0.264583"
       d="m 544.19198,-41.076737 0.24063,-0.0212 0.23798,-0.0873 0.21683,-0.10842 0.21682,-0.17716 0.12957,-0.17452 0.10841,-0.19567 0.0661,-0.26442 0.0423,-0.24063 -0.0423,-0.24062 -0.0661,-0.21948 -0.10841,-0.21947 -0.12957,-0.19567 -0.21682,-0.15336 -0.21683,-0.10842 -0.23798,-0.0661 -0.24063,-0.0238 -0.23798,0.0238 -0.21682,0.0661 -0.21683,0.10842 -0.21683,0.15336 -0.12956,0.19567 -0.10842,0.21947 -0.0661,0.21948 -0.045,0.24062 0.045,0.24063 0.0661,0.26442 0.10842,0.19567 0.12956,0.17452 0.21683,0.17716 0.21683,0.10842 0.21682,0.0873 z"
       id="path8019" />
    <path
       style="fill:#000000;fill-opacity:1;fill-rule:evenodd;stroke:none;stroke-width:0.264583"
       d="m 547.31218,-44.987557 2.71827,1.07621 0.32788,-0.7827 -2.71562,-1.07884 z"
       id="path8021" />
    <path
       style="fill:#007fff;fill-opacity:1;fill-rule:evenodd;stroke:none;stroke-width:0.264583"
       d="m 551.11987,-47.803657 0.59231,-0.90697 -0.67693,-0.48919 -0.5923,0.88847 z"
       id="path8023" />
    <path
       style="fill:#007fff;fill-opacity:1;fill-rule:evenodd;stroke:none;stroke-width:0.264583"
       d="m 548.96218,-48.176497 -0.28558,-1.02332 -0.81442,0.20625 0.28822,1.02068 z"
       id="path8025" />
    <path
       style="fill:#e58268;fill-opacity:1;fill-rule:evenodd;stroke:none;stroke-width:0.264583"
       d="m 549.32179,-39.215197 0.39135,-0.0635 0.28029,-0.15072 0.19567,-0.19303 0.0846,-0.28029 -0.0846,-0.27764 -0.19567,-0.21683 -0.28029,-0.12692 -0.39135,-0.045 -0.34639,0.045 -0.28029,0.12692 -0.21683,0.21683 -0.0661,0.27764 0.0661,0.28029 0.21683,0.19303 0.28029,0.15072 z"
       id="path8027" />
    <path
       style="fill:#000000;fill-opacity:1;fill-rule:evenodd;stroke:none;stroke-width:0.264583"
       d="m 543.15545,-44.292117 1.87211,-0.63197 -0.28293,-0.80649 -1.87476,0.65576 z"
       id="path8029" />
    <path
       style="fill:#000000;fill-opacity:1;fill-rule:evenodd;stroke:none;stroke-width:0.264583"
       d="m 547.75112,-38.665197 -2.3851,0.35962 0.11106,0.825 2.4274,-0.31202 z"
       id="path8031" />
    <path
       style="fill:#000000;fill-opacity:1;fill-rule:evenodd;stroke:none;stroke-width:0.264583"
       d="m 547.0742,-39.299817 0.11105,-0.81971 -1.13437,-0.13221 0.11106,-2.21586 -0.86996,-0.0899 -0.15601,2.61515 -0.0238,0.42307 0.42572,0.0423 z"
       id="path8033" />
    <path
       style="fill:#000000;fill-opacity:1;fill-rule:evenodd;stroke:none;stroke-width:0.264583"
       d="m 549.48573,-43.615197 -0.15601,-0.11106 -0.1137,-0.10841 -0.13221,-0.0661 -0.15865,-0.0661 -0.17717,-0.0661 -0.13485,-0.045 -0.17981,-0.045 h -0.17981 l -0.33581,0.045 -0.31202,0.11106 -0.29351,0.13221 -0.26707,0.21947 -0.20096,0.24063 -0.15866,0.28557 -0.0899,0.33053 -0.0449,0.35168 0.0449,0.30673 0.0899,0.33053 0.15866,0.28558 0.20096,0.24062 0.15601,0.11106 0.11106,0.10842 0.13485,0.0661 0.15866,0.0661 0.17716,0.0661 0.13486,0.045 0.1798,0.0423 h 0.15601 0.17981 l 0.17981,-0.0423 0.13485,-0.045 0.17717,-0.0661 0.15865,-0.0661 0.13221,-0.0661 0.1137,-0.10842 0.15601,-0.11106 0.20097,-0.24062 0.15865,-0.28558 0.11106,-0.33053 0.0211,-0.30673 -0.0211,-0.35168 -0.11106,-0.33053 -0.15865,-0.28557 z"
       id="path8035" />
    <path
       style="fill:#000000;fill-opacity:1;fill-rule:evenodd;stroke:none;stroke-width:0.264583"
       d="m 544.21314,-43.995967 -0.33053,0.045 -0.30938,0.11106 -0.28822,0.13221 -0.24327,0.22212 -0.22211,0.24327 -0.15337,0.28822 -0.0899,0.33053 -0.0449,0.30937 0.0449,0.35433 0.0899,0.28822 0.15337,0.33053 0.22211,0.24327 0.0873,0.11106 0.15601,0.11105 0.13221,0.0661 0.15601,0.0661 0.13222,0.0661 0.17716,0.045 0.15336,0.0212 h 0.17717 0.17716 l 0.17716,-0.0212 0.13222,-0.045 0.17716,-0.0661 0.15601,-0.0661 0.13221,-0.0661 0.11106,-0.11105 0.15336,-0.11106 0.20097,-0.24327 0.15336,-0.33053 0.11106,-0.28822 0.0212,-0.35433 -0.0212,-0.30937 -0.11106,-0.33053 -0.15336,-0.28822 -0.20097,-0.24327 -0.15336,-0.11106 -0.11106,-0.11106 -0.13221,-0.0661 -0.15601,-0.0661 -0.17716,-0.0873 -0.13222,-0.0238 -0.17716,-0.045 z"
       id="path8037" />
    <path
       style="fill:#000000;fill-opacity:1;fill-rule:evenodd;stroke:none;stroke-width:0.264583"
       d="m 541.26482,-42.092117 1.47813,-0.0212 v -0.90961 l -1.52308,0.0476 z"
       id="path8039" />
    <path
       style="fill:#000000;fill-opacity:1;fill-rule:evenodd;stroke:none;stroke-width:0.264583"
       d="m 545.40833,-42.396207 1.24279,0.21947 0.15336,-0.81442 -1.21634,-0.24327 z"
       id="path8041" />
    <path
       style="fill:#000000;fill-opacity:1;fill-rule:evenodd;stroke:none;stroke-width:0.264583"
       d="m 549.77396,-42.219047 5.23822,-1.18197 -0.17452,-0.8488 -5.24087,1.20577 z"
       id="path8043" />
    <path
       style="fill:#e58268;fill-opacity:1;fill-rule:evenodd;stroke:none;stroke-width:0.264583"
       d="m 543.68694,-39.045967 0.29879,-0.0423 0.23534,-0.13221 0.15072,-0.21947 0.0635,-0.24062 -0.0635,-0.21948 -0.15072,-0.19567 -0.23534,-0.15336 -0.29879,-0.0238 -0.28029,0.0238 -0.25649,0.15336 -0.17188,0.19567 -0.0661,0.21948 0.0661,0.24062 0.17188,0.21947 0.25649,0.13221 z"
       id="path8045" />
    <path
       style="fill:#ffffff;fill-opacity:1;fill-rule:evenodd;stroke:none;stroke-width:0.264583"
       d="m 548.69775,-15.903657 0.21947,-0.55 0.24327,-0.55265 0.28822,-0.52884 0.28558,-0.4839 -2.27139,-2.60192 4.58774,-4.09856 2.31634,2.60193 0.26443,-0.11106 0.26442,-0.13221 0.28558,-0.11106 0.28822,-0.11106 0.26442,-0.0661 0.28558,-0.10842 0.28822,-0.0661 0.28558,-0.0661 0.22211,-3.50625 6.15313,0.37548 -0.21948,3.50361 0.28558,0.11105 0.28822,0.11106 0.24063,0.11106 0.28822,0.13221 0.26442,0.10841 0.28558,0.15602 0.24327,0.17452 0.24327,0.13221 2.62572,-2.33486 4.1012,4.60625 -2.62572,2.3137 0.20096,0.52885 0.21947,0.5738 0.17717,0.57379 0.15336,0.57116 3.50625,0.22211 -0.35168,6.1478399 -3.53005,-0.21947 -0.19832,0.5738 -0.26442,0.52884 -0.24327,0.50505 -0.30673,0.48654 2.3375,2.64423 -4.58774,4.07740003 -2.3613,-2.60192003 -0.26442,0.11106 -0.26443,0.15336 -0.28822,0.11106 -0.28557,0.0661 -0.26443,0.11105 -0.28822,0.0873 -0.28557,0.0873 -0.28558,0.0661 -0.17716,3.48245 -6.15577,-0.35168 0.20096,-3.48245 -0.28822,-0.11106 -0.26443,-0.10841 -0.28557,-0.13222 -0.28822,-0.11105 -0.26443,-0.15337 -0.26442,-0.13221 -0.26442,-0.15601 -0.24327,-0.13221 -2.60193,2.31635003 -4.08269,-4.58510003 2.58077,-2.3137 -0.24062,-0.5738 -0.22212,-0.5738 -0.17452,-0.5738 -0.13485,-0.55 -3.4851,-0.21947 0.39928,-6.1293299 z"
       id="path8047" />
    <path
       style="fill:#00ff00;fill-opacity:1;fill-rule:evenodd;stroke:none;stroke-width:0.264583"
       d="m 550.70208,-1.8231271 -2.90865,-3.26034 2.44591,-2.20264 -0.19832,-0.39664 -0.17716,-0.39663 -0.17452,-0.37548 -0.17716,-0.44159 -0.11106,-0.37284 -0.15337,-0.44158 -0.11105,-0.4177899 -0.0661,-0.44159 -3.23918,-0.19831 0.26442,-4.38414 3.26298,0.17716 0.15337,-0.42043 0.13221,-0.39663 0.13221,-0.37284 0.19832,-0.44159 0.19831,-0.35168 0.21947,-0.39664 0.24327,-0.37548 0.24327,-0.37548 -2.16033,-2.44327 3.26033,-2.90865 2.18149,2.44591 0.39664,-0.22211 0.37548,-0.17452 0.44159,-0.17716 0.37283,-0.17717 0.44159,-0.10841 0.41779,-0.0899 0.44158,-0.10841 0.41779,-0.0899 0.17717,-3.30529 4.40528,0.28822 -0.21947,3.28149 0.44159,0.13221 0.37284,0.15601 0.39663,0.17452 0.44159,0.17717 0.35168,0.17716 0.37548,0.24062 0.39664,0.22212 0.35168,0.24062 2.49086,-2.20264 2.92981,3.30529 -2.48822,2.20264 0.19832,0.39664 0.17452,0.39663 0.17716,0.37548 0.15337,0.43895 0.13221,0.39663 0.11105,0.42043 0.11106,0.41779 0.0661,0.44159 3.30264,0.17452 -0.24062,4.3629799 -3.30529,-0.17717 -0.15337,0.42044 -0.13221,0.39663 -0.13221,0.39664 -0.17716,0.39663 -0.21947,0.37284 -0.22212,0.39663 -0.24062,0.39664 -0.24327,0.35432 2.20264,2.44327 -3.28149,2.93245003 -2.20529,-2.46971003 -0.39663,0.22212 -0.37284,0.17452 -0.39663,0.17716 -0.42044,0.15337 -0.39663,0.13221 -0.43894,0.11106 -0.42044,0.11105 -0.41778,0.0661 -0.21948,3.30264 -4.36298,-0.24061997 0.17717,-3.30529003 -0.44159,-0.15337 -0.37548,-0.13221 -0.39664,-0.15601 -0.39663,-0.17452 -0.39663,-0.19831 -0.37284,-0.22212 -0.39664,-0.21947 -0.35432,-0.24327 z"
       id="path8049" />
    <path
       style="fill:#ffffff;fill-opacity:1;fill-rule:evenodd;stroke:none;stroke-width:0.264583"
       d="m 564.35689,-6.2548571 -0.68486,0.52884 -0.66106,0.46274 -0.72716,0.35169 -0.75096,0.33052 -0.76947,0.19832 -0.79591,0.15337 -0.76948,0.0873 h -0.79327 l -0.77211,-0.0661 -0.75096,-0.12956 -0.74832,-0.22212 -0.70601,-0.28558 -0.70601,-0.35168 -0.68221,-0.46274 -0.59495,-0.4839 -0.5738,-0.57379 -0.92548,-1.31947 -0.63991,-1.45433 -0.33052,-1.4966399 -0.0238,-1.56274 0.24327,-1.52043 0.5738,-1.49663 0.85937,-1.38823 1.1238,-1.21105 0.68485,-0.52885 0.66106,-0.46274 0.72717,-0.35168 0.75096,-0.33053 0.76947,-0.19832 0.75096,-0.15336 0.77211,-0.11106 h 0.79327 l 0.77212,0.0899 0.74832,0.13221 0.75096,0.21948 0.74832,0.28557 0.68221,0.35169 0.6637,0.46274 0.61611,0.48653 0.57379,0.57116 0.94664,1.32211 0.6399,1.45169 0.33053,1.49663 0.0211,1.56539 -0.24062,1.51778 -0.5738,1.4966399 -0.83822,1.38822 z"
       id="path8051" />
    <path
       style="fill:#ffe500;fill-opacity:1;fill-rule:evenodd;stroke:none;stroke-width:0.264583"
       d="m 564.304,-12.669767 0.0661,-0.0212 0.15336,-0.11106 0.19832,-0.22211 0.22212,-0.30673 0.13221,-0.39928 0.0873,-0.50505 -0.0873,-0.63991 -0.28822,-0.75096 -0.70601,-1.23485 -0.81442,-0.92813 -0.88318,-0.68221 -0.92548,-0.46538 -0.97308,-0.24063 -0.99158,-0.0687 -0.99159,0.0238 -0.97308,0.17716 -0.92548,0.28558 -0.83822,0.33053 -0.79327,0.35432 -0.70601,0.35169 -0.5738,0.33053 -0.42043,0.24327 -0.24327,0.17716 -0.10841,0.0661 0.88053,2.13919 0.045,0.24327 0.0211,0.35433 0.045,0.39663 -0.0661,0.44159 -0.17716,0.46274 -0.37548,0.48389 -0.55,0.50769 -0.86202,0.46539 v 0.17452 l 0.0661,0.46538 0.15601,0.66106 0.35169,0.7271599 0.59759,0.6637 0.92548,0.55 1.27981,0.24327 1.74255,-0.15601 4.39206,-1.52043 0.17452,2.07308 0.17717,0.0212 0.48654,0.0661 h 0.68221 l 0.81707,-0.17452 0.81706,-0.37548 0.74832,-0.79592 0.61875,-1.21106 0.35168,-1.7451899 -0.10841,0.045 -0.22212,0.0661 -0.35168,0.11106 -0.35433,0.045 -0.39663,-0.045 -0.30938,-0.22212 -0.17451,-0.35168 z"
       id="path8053" />
    <path
       style="fill:#f2bfb2;fill-opacity:1;fill-rule:evenodd;stroke:none;stroke-width:0.264583"
       d="m 555.44319,-14.930577 -1.31948,3.35024 1.43053,4.8918199 1.58125,0.33053 0.11106,0.21947 0.28558,0.4839 0.28558,0.46274 0.17451,0.17716 h 0.22212 0.48125 0.63726 l 0.74832,0.045 0.74831,0.0212 0.63726,0.045 0.43895,0.0423 h 0.17452 l 1.05504,-9.0776399 -0.0423,0.045 -0.13222,0.0211 -0.24062,0.0899 -0.28822,0.0661 -0.35168,0.10841 -0.4601,0.0661 -0.46274,0.0661 -0.5262,0.045 -0.61611,0.0212 -0.59231,-0.0212 -0.63726,-0.0661 -0.63726,-0.15337 -0.68221,-0.17716 -0.68221,-0.28558 -0.65841,-0.35432 z"
       id="path8055" />
    <path
       style="fill:#ff0000;fill-opacity:1;fill-rule:evenodd;stroke:none;stroke-width:0.264583"
       d="m 557.38141,-8.4204871 0.24327,0.0661 0.28557,0.0661 0.30673,0.0423 h 0.39664 l 0.39663,-0.10841 0.39399,-0.13221 0.37549,-0.26178 0.39398,-0.34904 -0.46009,-0.41779 -0.35168,0.30673 -0.35169,0.21947 -0.35168,0.0661 -0.28558,0.0423 h -0.28557 l -0.24327,-0.0423 -0.15337,-0.0212 -0.0661,-0.045 z"
       id="path8057" />
    <path
       style="fill:#e58268;fill-opacity:1;fill-rule:evenodd;stroke:none;stroke-width:0.264583"
       d="m 560.17371,-10.319047 0.29351,-0.0423 0.22477,-0.12957 0.13485,-0.15072 0.0661,-0.19303 -0.0661,-0.21683 -0.13485,-0.17187 -0.22477,-0.10842 -0.29351,-0.045 -0.29086,0.045 -0.20361,0.10842 -0.15601,0.17187 -0.0688,0.21683 0.0688,0.19303 0.15601,0.15072 0.20361,0.12957 z"
       id="path8059" />
    <path
       style="fill:#e58268;fill-opacity:1;fill-rule:evenodd;stroke:none;stroke-width:0.264583"
       d="m 556.29463,-10.276737 0.27764,-0.0423 0.21418,-0.0872 0.12957,-0.19303 0.0846,-0.19568 -0.0846,-0.21418 -0.12957,-0.12957 -0.21418,-0.10841 -0.27764,-0.045 -0.28029,0.045 -0.23534,0.10841 -0.12956,0.12957 -0.0873,0.21418 0.0873,0.19568 0.12956,0.19303 0.23534,0.0872 z"
       id="path8061" />
    <path
       style="fill:#000000;fill-opacity:1;fill-rule:evenodd;stroke:none;stroke-width:0.264583"
       d="m 560.97756,-5.9216871 -2.55433,-0.15337 -0.39663,-1.01274 -0.0211,-0.17452 -0.17717,-0.045 -1.45432,-0.39399 -1.14496,-3.7838899 1.0577,-3.03558 -0.59496,-0.19832 -1.07884,3.08053 -0.0238,0.10842 0.0238,0.11105 1.1899,4.0694699 0.0212,0.17452 0.17716,0.045 1.49663,0.39663 0.39664,1.09736 0.0661,0.19832 h 0.21947 l 3.06202,0.15336 h 0.26443 l 0.045,-0.28558 0.5262,-3.36346 -0.59231,-0.11106 z"
       id="path8063" />
    <path
       style="fill:#000000;fill-opacity:1;fill-rule:evenodd;stroke:none;stroke-width:0.264583"
       d="m 564.84871,-10.107507 -0.21947,0.2855799 -0.24327,0.23798 -0.28557,0.13221 -0.24327,0.10841 -0.24327,0.0423 h -0.21947 l -0.22212,-0.0423 -0.17716,-0.0661 -0.13221,-0.0423 -0.10842,-0.0661 -0.0661,-0.0212 h -0.045 l -0.35433,0.52356 0.045,0.0212 0.0899,0.0873 0.17451,0.0661 0.22212,0.0635 0.24063,0.0661 0.28822,0.0423 h 0.28557 l 0.33318,-0.0423 0.19831,-0.0661 0.19832,-0.0635 0.19832,-0.11106 0.17716,-0.12957 0.17452,-0.15336 0.15601,-0.17452 0.17452,-0.17452 0.13221,-0.21683 z"
       id="path8065" />
    <path
       style="fill:#000000;fill-opacity:1;fill-rule:evenodd;stroke:none;stroke-width:0.264583"
       d="m 552.94439,-10.438037 -0.0899,0.6266899 h 0.0899 0.1375 0.24591 l 0.26971,-0.0212 0.29351,-0.0846 0.29087,-0.1295699 0.24856,-0.17452 0.20096,-0.23798 -0.56058,-0.32524 -0.1137,0.10841 -0.11106,0.10842 -0.13486,0.0661 -0.2036,0.0423 -0.17981,0.0212 h -0.13485 -0.13486 z"
       id="path8067" />
    <path
       style="fill:#000000;fill-opacity:1;fill-rule:evenodd;stroke:none;stroke-width:0.264583"
       d="m 557.59294,-12.688277 -1.86153,0.1851 0.045,0.61875 1.85889,-0.1375 z"
       id="path8069" />
    <path
       style="fill:#000000;fill-opacity:1;fill-rule:evenodd;stroke:none;stroke-width:0.264583"
       d="m 558.45761,-11.408467 -0.57644,-0.26442 -0.79592,1.6737899 1.21635,0.52621 0.26442,-0.5499999 -0.61875,-0.28558 z"
       id="path8071" />
    <path
       style="fill:#000000;fill-opacity:1;fill-rule:evenodd;stroke:none;stroke-width:0.264583"
       d="m 559.07371,-11.939957 1.92236,0.30938 0.10841,-0.63991 -1.91971,-0.33317 z"
       id="path8073" />
    <path
       style="fill:#000000;fill-opacity:1;fill-rule:evenodd;stroke:none;stroke-width:0.264583"
       d="m 558.87011,-15.861347 -0.60024,0.1798 0.31202,1.17404 0.61875,-0.17716 z"
       id="path8075" />
    <path
       style="fill:#000000;fill-opacity:1;fill-rule:evenodd;stroke:none;stroke-width:0.264583"
       d="m 560.13405,-15.395967 -0.0873,0.74303 0.61082,0.0608 0.10841,-0.71923 z"
       id="path8077" />
    <path
       style="fill:#000000;fill-opacity:1;fill-rule:evenodd;stroke:none;stroke-width:0.264583"
       d="m 562.97924,-12.664477 -0.64783,-0.0661 v 0.17716 l 0.0238,0.21947 0.0661,0.24327 0.15601,0.21947 0.17981,0.24327 0.28822,0.21947 0.35697,0.17717 0.46803,0.10841 0.11106,-0.61611 -0.62404,-0.19832 -0.28822,-0.33052 -0.0899,-0.24063 z"
       id="path8079" />
    <path
       style="fill:#000000;fill-opacity:1;fill-rule:evenodd;stroke:none;stroke-width:0.264583"
       d="m 562.53237,-14.830097 v 0 l 0.0212,-0.0238 h 0.0449 v 0 l 0.0212,0.0661 0.045,0.11371 v 0.13221 0.15601 0.0212 0.045 0.0238 0.0423 h 0.6399 v -0.0423 -0.0238 0 -0.045 -0.28822 l -0.0212,-0.31202 -0.15337,-0.26707 -0.30937,-0.20096 -0.0449,-0.0423 h -0.0661 -0.0899 -0.0661 -0.0661 -0.0423 v 0 0 h -0.0238 v -0.13485 -0.22212 -0.17716 l -0.0423,-0.24592 -0.11105,-0.28822 -0.17717,-0.29086 -0.24327,-0.22212 -0.35432,-0.17716 -0.15337,-0.0238 -0.13221,-0.045 -0.15601,-0.0423 h -0.13221 -0.13221 -0.11106 l -0.15337,0.0423 h -0.13221 -0.22212 -0.17716 -0.21947 l -0.17716,-0.0423 -0.13221,-0.0687 -0.15601,-0.0661 -0.13222,-0.0661 -0.1322,-0.11106 -0.15337,-0.11105 -0.13486,-0.0687 -0.17452,-0.11106 -0.15601,-0.0661 h -0.045 v 0 l -0.13221,-0.045 -0.17716,-0.045 h -0.17452 -0.22212 -0.19831 l -0.26443,0.045 -0.20096,0.045 -0.21947,0.0899 -0.15601,0.0873 -0.17452,0.1137 -0.13486,0.0873 -0.15336,0.11105 -0.24327,0.15601 -0.22212,0.17981 -0.24062,0.11106 -0.24327,0.0873 -0.22212,0.045 h -0.19831 -0.22212 -0.24327 v 0.60024 h 0.0899 0.15336 0.13221 l 0.15601,0.045 h 0.13221 l 0.15601,-0.045 h 0.13222 l 0.15336,-0.0212 0.13221,-0.0661 0.17717,-0.0899 0.11105,-0.0661 0.13222,-0.0661 0.15601,-0.0687 0.13221,-0.0873 0.10841,-0.0899 0.15601,-0.0899 0.13221,-0.0873 0.15601,-0.0899 0.13221,-0.0899 0.13222,-0.0873 0.15336,-0.0687 0.13221,-0.0423 0.15601,-0.0238 h 0.17716 l 0.13222,0.0238 h 0.15336 l 0.11106,0.0423 h 0.0899 l 0.10842,0.0687 0.15601,0.0873 0.11105,0.0687 0.0873,0.0661 0.17717,0.11106 0.19832,0.11105 0.19831,0.0899 0.22212,0.0873 0.24326,0.0238 0.24328,0.045 h 0.21946 l 0.24328,-0.045 h 0.22211 0.21947 0.19832 l 0.22211,0.0873 0.15337,0.0688 0.13221,0.11106 0.15601,0.13221 0.0661,0.17981 v 0.0661 0.11106 0.0661 0.11106 0.15601 0.13485 l 0.0211,0.17717 0.045,0.15601 0.13222,0.17716 0.17716,0.11106 0.19832,0.0238 z"
       id="path8081" />
    <path
       style="fill:#000000;fill-opacity:1;fill-rule:evenodd;stroke:none;stroke-width:0.264583"
       d="m 557.63525,-14.856547 -0.57115,-0.40456 -0.28558,-0.35962 -0.11106,-0.29351 v -0.1137 l -0.6399,-0.045 v 0.0899 0.0925 l 0.0661,0.22476 0.0661,0.24591 0.19832,0.26971 0.19832,0.29351 0.35432,0.29087 0.43895,0.26971 z"
       id="path8083" />
    <path
       style="fill:#ffffff;fill-opacity:1;fill-rule:evenodd;stroke:none;stroke-width:0.264583"
       d="m 562.92371,-9.9382771 0.22212,-0.0423 0.13221,-0.0687 0.11106,-0.13222 0.0423,-0.15865 -0.0423,-0.13221 -0.11106,-0.15601 -0.13221,-0.0687 -0.22212,-0.045 -0.17716,0.045 -0.15336,0.0687 -0.0899,0.15601 -0.0449,0.13221 0.0449,0.15865 0.0899,0.13222 0.15336,0.0687 z"
       id="path8085" />
    <path
       style="fill:#ffffff;fill-opacity:1;fill-rule:evenodd;stroke:none;stroke-width:0.264583"
       d="m 576.81121,-23.069527 0.22212,-0.50769 0.21947,-0.50769 0.24063,-0.46539 0.28822,-0.46274 -2.09423,-2.34279 4.14351,-3.67019 2.07043,2.34279 0.24062,-0.11106 0.24327,-0.0873 0.26443,-0.11105 0.28557,-0.11106 0.24327,-0.0661 0.24327,-0.0873 0.26442,-0.0661 0.24063,-0.0688 0.17716,-3.13871 5.55289,0.30938 -0.19832,3.18365 0.26442,0.0661 0.24063,0.11106 0.24327,0.11105 0.26442,0.11106 0.19832,0.13222 0.26442,0.11105 0.24063,0.15337 0.22211,0.13221 2.33486,-2.09952 3.70192,4.13293 -2.37981,2.09952 0.19832,0.51034 0.19832,0.48654 0.13221,0.50769 0.13221,0.53149 3.17043,0.17452 -0.33052,5.52644 -3.14928,-0.17716 -0.17717,0.51033 -0.21947,0.48654 -0.24327,0.46274 -0.28558,0.46539 2.13654,2.36394 -4.16202,3.7124999 -2.09423,-2.3639399 -0.24327,0.11106 -0.26178,0.11105 -0.24326,0.0661 -0.24327,0.10841 -0.26443,0.0687 -0.24062,0.0661 -0.24327,0.0873 -0.26442,0.0661 -0.19832,3.1598599 -5.50793,-0.30938 0.17716,-3.1386999 -0.24327,-0.10841 -0.26442,-0.11106 -0.24327,-0.11106 -0.24063,-0.0873 -0.22211,-0.11105 -0.24063,-0.15601 -0.26442,-0.13222 -0.19832,-0.15336 -2.35865,2.1206699 -3.69928,-4.1540799 2.35601,-2.10217 -0.21947,-0.48389 -0.17717,-0.51034 -0.17452,-0.50769 -0.1322,-0.53149 -3.13077,-0.17452 0.35432,-5.57139 z"
       id="path8087" />
    <path
       style="fill:#3f9eff;fill-opacity:1;fill-rule:evenodd;stroke:none;stroke-width:0.264583"
       d="m 578.61987,-10.377217 -2.61779,-2.99591 2.2,-1.96202 -0.35168,-0.70601 -0.33053,-0.70337 -0.19832,-0.75096 -0.15337,-0.79327 -2.94831,-0.17452 0.26442,-3.94519 2.90337,0.17716 0.11106,-0.35432 0.1322,-0.39664 0.15337,-0.35168 0.17452,-0.35168 0.17716,-0.35433 0.17717,-0.35168 0.21947,-0.35168 0.24062,-0.33053 -1.95673,-2.20529 2.94832,-2.62043 1.95673,2.20264 0.35168,-0.17716 0.35169,-0.17452 0.35168,-0.15601 0.39663,-0.13221 0.394,-0.10842 0.35432,-0.11106 0.39399,-0.0661 0.37548,-0.0661 0.15337,-2.9536 3.93726,0.19832 -0.15337,2.9536 0.37284,0.11106 0.37284,0.15336 0.35168,0.13221 0.37548,0.17717 0.30673,0.17452 0.35168,0.17716 0.35169,0.21947 0.33052,0.24327 2.2,-1.98317 2.61779,2.9536 -2.22115,1.98318 0.35168,0.70336 0.28558,0.72717 0.19832,0.75096 0.17451,0.76947 2.99063,0.17716 -0.24063,3.94519 -2.94831,-0.17716 -0.10842,0.35168 -0.15336,0.39664 -0.13221,0.35432 -0.17717,0.35169 -0.17452,0.35168 -0.17716,0.33053 -0.21947,0.35433 -0.24327,0.33052 1.98053,2.2238 -2.94832,2.5992799 -1.97788,-2.2026399 -0.35169,0.17716 -0.35168,0.17716 -0.37548,0.15337 -0.35168,0.13221 -0.37284,0.13221 -0.37548,0.0873 -0.37284,0.11106 -0.39663,0.0661 -0.17452,2.9509599 -3.93726,-0.21947 0.17452,-2.9509699 -0.35168,-0.11105 -0.39399,-0.13221 -0.35169,-0.15337 -0.35432,-0.17716 -0.35168,-0.17717 -0.32789,-0.17452 -0.35168,-0.22211 -0.33053,-0.24063 z"
       id="path8089" />
    <path
       style="fill:#ffffff;fill-opacity:1;fill-rule:evenodd;stroke:none;stroke-width:0.264583"
       d="m 590.89439,-14.391157 -0.5976,0.46274 -0.61611,0.43894 -0.6399,0.35433 -0.68221,0.24062 -0.6637,0.22212 -0.70337,0.12957 -0.72981,0.0661 h -0.66105 l -0.72717,-0.0212 -0.66105,-0.15337 -0.68222,-0.17716 -0.68485,-0.28558 -0.59495,-0.30937 -0.59495,-0.39399 -0.55265,-0.46274 -0.52885,-0.52885 -0.85937,-1.16611 -0.55,-1.27716 -0.28822,-1.38822 -0.0449,-1.38822 0.24327,-1.38558 0.50769,-1.32211 0.74832,-1.23222 1.03654,-1.1 0.59759,-0.46274 0.61611,-0.44158 0.6399,-0.35168 0.66106,-0.24327 0.68221,-0.21948 0.70601,-0.13221 0.70601,-0.0873 0.72716,-0.0238 0.66106,0.0661 0.68486,0.13221 0.68221,0.19832 0.6637,0.24327 0.61611,0.35168 0.59495,0.39664 0.52884,0.41779 0.55265,0.52884 0.83822,1.1899 0.57115,1.29832 0.28822,1.36442 0.0423,1.40938 -0.26442,1.38822 -0.4839,1.31947 -0.75096,1.23486 z"
       id="path8091" />
    <path
       style="fill:#f2bf7c;fill-opacity:1;fill-rule:evenodd;stroke:none;stroke-width:0.264583"
       d="m 590.07468,-23.476737 -5.94688,0.28822 -1.74255,4.29688 1.30096,3.54855 0.83822,0.35433 0.33054,1.49664 4.25192,-0.85938 0.28557,-2.73149 1.49664,-0.59495 z"
       id="path8093" />
    <path
       style="fill:#f2bf7c;fill-opacity:1;fill-rule:evenodd;stroke:none;stroke-width:0.264583"
       d="m 580.55545,-18.611347 -0.26178,-0.11371 -0.19832,-0.13221 -0.17452,-0.1798 -0.10841,-0.22212 -0.11106,-0.24591 -0.0661,-0.24592 v -0.28822 l 0.0238,-0.29086 0.10841,-0.28822 0.15337,-0.24592 0.17452,-0.20096 0.19832,-0.17981 0.21947,-0.13221 0.24062,-0.0687 h 0.26178 l 0.24063,0.0238 0.24062,0.11106 0.21947,0.15601 0.17452,0.1798 0.13221,0.19832 0.10842,0.26971 0.0423,0.24327 v 0.29087 l -0.0423,0.29086 -0.10842,0.28822 -0.13221,0.24592 -0.17452,0.17981 -0.21947,0.17716 -0.21947,0.15601 -0.24063,0.0661 h -0.24062 z"
       id="path8095" />
    <path
       style="fill:#000000;fill-opacity:1;fill-rule:evenodd;stroke:none;stroke-width:0.264583"
       d="m 581.36458,-19.322647 h -0.0873 -0.0661 -0.0661 l -0.0661,-0.045 -0.15601,-0.0423 -0.10841,-0.0661 -0.0899,-0.10841 -0.0873,-0.10841 -0.0212,-0.0873 -0.045,-0.10842 v -0.10841 l 0.045,-0.15337 0.10842,-0.19567 0.17716,-0.17187 0.24327,-0.0873 0.28558,0.0423 0.0661,0.045 h 0.045 l 0.0661,0.0212 0.0449,0.0423 0.35168,-0.45481 -0.10841,-0.0661 -0.11106,-0.0872 -0.11106,-0.0212 -0.10841,-0.0423 -0.24327,-0.0238 h -0.24327 l -0.26442,0.0661 -0.19832,0.0661 -0.22211,0.15072 -0.17717,0.17452 -0.10841,0.19567 -0.11106,0.21683 -0.0238,0.23798 v 0.21947 l 0.0687,0.23798 0.10842,0.21683 0.13221,0.21682 0.22211,0.13221 0.17717,0.15073 0.24062,0.0661 0.15601,0.0212 0.11106,0.0423 h 0.0873 0.15337 z"
       id="path8097" />
    <path
       style="fill:#f2bf7c;fill-opacity:1;fill-rule:evenodd;stroke:none;stroke-width:0.264583"
       d="m 590.14871,-16.665197 0.24592,-0.0423 0.24591,-0.0635 0.22212,-0.15336 0.22211,-0.17188 0.13221,-0.19567 0.11106,-0.21683 0.0688,-0.28029 0.0423,-0.28029 -0.0423,-0.28293 -0.0688,-0.28029 -0.11106,-0.23798 -0.13221,-0.21683 -0.22211,-0.17451 -0.22212,-0.12957 -0.24591,-0.0846 -0.24592,-0.0238 -0.26442,0.0238 -0.24591,0.0846 -0.22212,0.12957 -0.17716,0.17451 -0.17981,0.21683 -0.0873,0.23798 -0.0899,0.28029 -0.0238,0.28293 0.0238,0.28029 0.0899,0.28029 0.0873,0.21683 0.17981,0.19567 0.17716,0.17188 0.22212,0.15336 0.24591,0.0635 z"
       id="path8099" />
    <path
       style="fill:#000000;fill-opacity:1;fill-rule:evenodd;stroke:none;stroke-width:0.264583"
       d="m 589.32371,-16.985147 0.12957,0.045 0.10842,0.0212 0.10576,0.0423 h 0.15073 l 0.23533,-0.0423 0.23534,-0.0661 0.21418,-0.10842 0.21418,-0.17187 0.12693,-0.17452 0.10841,-0.21683 0.0635,-0.19567 0.0423,-0.26178 -0.0423,-0.23798 -0.0635,-0.21683 -0.10841,-0.19567 -0.12693,-0.17452 -0.21418,-0.17452 -0.21418,-0.10841 -0.23534,-0.0423 -0.23533,-0.0238 h -0.15073 -0.10576 l -0.10842,0.0238 -0.12957,0.0423 0.21419,0.56586 0.0661,-0.045 h 0.0635 l 0.0635,-0.0423 h 0.0873 0.12692 l 0.10841,0.0423 0.12693,0.0661 0.10841,0.10841 0.0635,0.10842 0.0873,0.10841 0.0212,0.10841 v 0.0873 l -0.0661,0.26178 -0.12692,0.19567 -0.21419,0.15072 -0.23533,0.0212 h -0.0873 l -0.0635,-0.0212 h -0.0635 l -0.0661,-0.0423 z"
       id="path8101" />
    <path
       style="fill:#000000;fill-opacity:1;fill-rule:evenodd;stroke:none;stroke-width:0.264583"
       d="m 590.29415,-23.849567 -0.045,-0.045 -0.10842,-0.0873 -0.22211,-0.15601 -0.24327,-0.17452 -0.30938,-0.21947 -0.39663,-0.19831 -0.46539,-0.26443 -0.52884,-0.19831 -0.5738,-0.17717 -0.63991,-0.15336 -0.68485,-0.0661 -0.75096,-0.045 -0.77476,0.0899 -0.86202,0.13221 -0.88317,0.24063 -0.92813,0.35168 0.64255,3.05938 5.41009,0.22211 0.5738,-0.92548 0.75361,4.44495 3.61995,-0.79062 z"
       id="path8103" />
    <path
       style="fill:#e58268;fill-opacity:1;fill-rule:evenodd;stroke:none;stroke-width:0.264583"
       d="m 587.32732,-17.384427 0.37813,-0.0873 0.37812,-0.17452 0.20096,-0.24327 0.0661,-0.28558 -0.0661,-0.30937 -0.20096,-0.26442 -0.37812,-0.17717 -0.37813,-0.0661 -0.40192,0.0661 -0.33582,0.17717 -0.24327,0.26442 -0.0687,0.30937 0.0687,0.28558 0.24327,0.24327 0.33582,0.17452 z"
       id="path8105" />
    <path
       style="fill:#e58268;fill-opacity:1;fill-rule:evenodd;stroke:none;stroke-width:0.264583"
       d="m 582.9141,-17.849807 0.31466,-0.0423 0.24327,-0.13221 0.20096,-0.21683 0.0661,-0.24327 -0.0661,-0.26178 -0.20096,-0.19567 -0.24327,-0.15337 -0.31466,-0.0238 -0.33317,0.0238 -0.24592,0.15337 -0.17716,0.19567 -0.0688,0.26178 0.0688,0.24327 0.17716,0.21683 0.24592,0.13221 z"
       id="path8107" />
    <path
       style="fill:#000000;fill-opacity:1;fill-rule:evenodd;stroke:none;stroke-width:0.264583"
       d="m 589.32107,-22.495727 -0.50769,7.91947 -0.46539,0.11106 -0.52884,0.13221 -0.53149,0.10841 -0.50769,0.11106 -0.52885,0.0661 -0.46538,0.0873 -0.42044,0.0238 h -0.33053 l -0.0661,-0.70601 -0.13221,-0.39399 -0.15601,-0.17717 -0.10842,-0.045 h -0.0661 l -0.17717,-0.0212 -0.28822,-0.0661 -0.30937,-0.15336 -0.35433,-0.13222 -0.37548,-0.21947 -0.37548,-0.28557 -0.33053,-0.35433 -0.24327,-0.39399 -0.24327,-0.52885 -0.21947,-0.59495 -0.045,-0.55 0.0873,-0.30673 0.0899,-0.46274 0.17716,-0.52885 0.21948,-0.57115 0.24327,-0.57115 0.22211,-0.5738 0.17716,-0.4601 0.17452,-0.37548 -0.52884,-0.26442 -0.11106,0.22211 -0.17716,0.41779 -0.21948,0.55 -0.24326,0.63726 -0.24327,0.66106 -0.22212,0.6161 -0.17452,0.55 -0.0688,0.43895 0.11106,0.76947 0.28822,0.79327 0.30938,0.5923 0.15336,0.28823 v 0 0 l 0.30938,0.35168 0.39927,0.32788 0.35169,0.24327 0.39928,0.17717 0.30937,0.15336 0.33053,0.0873 0.24327,0.0873 0.21947,0.0238 0.0238,0.17452 0.045,0.26442 0.0423,0.28558 v 0.30937 0.21948 h 0.0238 l 0.0661,0.0212 0.0873,0.045 h 0.0212 l 0.46538,0.0423 0.61875,-0.0423 0.70601,-0.0661 0.70601,-0.15337 0.68485,-0.13221 0.5976,-0.15601 0.46539,-0.0873 0.26442,-0.0873 0.19832,-0.0212 0.52884,-8.38221 z"
       id="path8109" />
    <path
       style="fill:#000000;fill-opacity:1;fill-rule:evenodd;stroke:none;stroke-width:0.264583"
       d="m 586.50232,-19.203657 1.46755,-0.52885 -0.17716,-0.52884 -1.51515,0.50769 z"
       id="path8111" />
    <path
       style="fill:#007fff;fill-opacity:1;fill-rule:evenodd;stroke:none;stroke-width:0.264583"
       d="m 583.35833,-23.891877 0.33846,1.2613 0.59231,-0.17452 -0.38077,-1.26395 z"
       id="path8113" />
    <path
       style="fill:#007fff;fill-opacity:1;fill-rule:evenodd;stroke:none;stroke-width:0.264583"
       d="m 585.15641,-23.857507 -0.0635,0.6214 0.53414,0.0978 0.10048,-0.63726 z"
       id="path8115" />
    <path
       style="fill:#007fff;fill-opacity:1;fill-rule:evenodd;stroke:none;stroke-width:0.264583"
       d="m 586.74823,-23.645967 -0.0899,0.63991 0.60817,0.0793 0.11106,-0.65841 z"
       id="path8117" />
    <path
       style="fill:#000000;fill-opacity:1;fill-rule:evenodd;stroke:none;stroke-width:0.264583"
       d="m 583.61218,-16.749807 0.13485,0.13485 0.22212,0.11106 0.24591,0.13221 0.29087,0.045 0.33317,0.0423 0.35697,-0.0423 0.42572,-0.13485 0.44423,-0.26443 -0.37812,-0.48918 -0.35697,0.20096 -0.31202,0.11106 -0.29087,0.045 -0.22211,-0.045 -0.17981,-0.0661 -0.13221,-0.0661 -0.11106,-0.0687 -0.045,-0.0423 z"
       id="path8119" />
    <path
       style="fill:#000000;fill-opacity:1;fill-rule:evenodd;stroke:none;stroke-width:0.264583"
       d="m 584.77564,-18.346927 0.0211,-1.59712 -1.62356,-0.40192 -0.11105,0.60024 1.1423,0.24327 -0.045,1.68702 1.20841,0.17716 0.0635,-0.59759 z"
       id="path8121" />
    <path
       style="fill:#000000;fill-opacity:1;fill-rule:evenodd;stroke:none;stroke-width:0.264583"
       d="m 582.26362,-23.815197 -3.13606,2.78966 2.4512,1.22957 1.10265,-2.24495 z"
       id="path8123" />
    <path
       style="fill:#7f00ff;fill-opacity:1;fill-rule:evenodd;stroke:none;stroke-width:0.264583"
       d="m 568.25448,-37.218807 -2.66274,-1.74254 -0.28557,3.10697 1.31947,-0.61611 0.11106,0.79327 v 0.76947 l -0.11106,0.85938 -0.17452,0.85937 -0.35168,1.01274 -0.5077,0.92548 -0.57115,0.83822 -0.66106,0.70337 -0.74832,0.52885 -0.79326,0.39663 -0.81443,0.19832 -0.81442,0.045 0.0661,0.0423 h 0.045 l 0.0661,0.0238 h 0.045 l 0.5262,0.10842 0.52884,0.0661 h 0.52885 l 0.50505,-0.0211 0.52884,-0.0661 0.5077,-0.15336 0.46274,-0.17716 0.46009,-0.24063 0.41779,-0.26442 0.39664,-0.30938 0.35168,-0.35168 0.35432,-0.39663 0.28558,-0.42044 0.24063,-0.46274 0.22211,-0.46009 0.17452,-0.55265 0.13221,-0.59495 0.0899,-0.59495 -0.045,-0.61611 -0.0661,-0.57115 -0.15337,-0.55265 -0.19831,-0.57115 -0.26443,-0.50769 -0.30937,-0.4839 z"
       id="path8125" />
    <path
       style="fill:#7f00ff;fill-opacity:1;fill-rule:evenodd;stroke:none;stroke-width:0.264583"
       d="m 569.86218,-27.416637 0.99423,1.99375 1.23221,-1.79543 -0.94664,-0.0873 0.0873,-0.26707 0.11106,-0.24327 0.15337,-0.24327 0.13221,-0.26707 0.15601,-0.19831 0.17452,-0.26707 0.19831,-0.24327 0.22212,-0.22212 0.61611,-0.48654 0.59495,-0.35697 0.6399,-0.28557 0.68221,-0.17981 0.59495,-0.0873 0.63991,0.0873 0.5738,0.13486 0.50505,0.28822 -0.0423,-0.045 v -0.0211 l -0.0449,-0.045 -0.0212,-0.0238 -0.5738,-0.50769 -0.6399,-0.35697 -0.68221,-0.21947 -0.70601,-0.0688 -0.70601,0.045 -0.68221,0.20096 -0.68221,0.33053 -0.55265,0.46803 -0.28558,0.30937 -0.28557,0.35433 -0.17717,0.37812 -0.17716,0.37549 -0.15336,0.39927 -0.0661,0.39928 v 0.42043 0.39928 z"
       id="path8127" />
    <path
       style="fill:#7f00ff;fill-opacity:1;fill-rule:evenodd;stroke:none;stroke-width:0.264583"
       d="m 574.26218,-9.0762571 0.22211,-1.5389399 1.21635,0.8937499 -0.6637,0.28822 0.15601,0.15601 0.10841,0.13486 0.13485,0.13485 0.17452,0.11106 0.15601,0.15601 0.17717,0.11106 0.17716,0.0899 0.17716,0.11106 0.50769,0.22212 0.48654,0.11105 0.5077,0.0238 h 0.46274 l 0.42043,-0.0899 0.39928,-0.15601 0.30937,-0.24592 0.28558,-0.28822 v 0.0423 0 l -0.0211,0.0238 v 0.045 l -0.28822,0.42308 -0.35169,0.35697 -0.39927,0.29086 -0.46274,0.22212 -0.46539,0.11106 -0.50769,0.0212 -0.48654,-0.0661 -0.46538,-0.17717 -0.28558,-0.13486 -0.22212,-0.20096 -0.24327,-0.17716 -0.17716,-0.20096 -0.15337,-0.26707 -0.13221,-0.24591 -0.11106,-0.24591 -0.0661,-0.28823 z"
       id="path8129" />
    <path
       style="fill:#7f00ff;fill-opacity:1;fill-rule:evenodd;stroke:none;stroke-width:0.264583"
       d="m 546.2492,-21.601977 0.6399,-2.13654 -2.14183,0.43895 0.68486,0.75096 -0.26442,0.13221 -0.24327,0.10841 -0.28823,0.0661 -0.28822,0.0661 -0.28557,0.0873 -0.28822,0.0238 -0.26443,0.0423 -0.33317,0.045 -0.77212,-0.045 -0.7298,-0.15337 -0.66371,-0.24062 -0.57379,-0.28822 -0.53149,-0.37284 -0.44159,-0.46274 -0.28558,-0.50769 -0.20096,-0.52885 v 0.0238 0.0423 0.0661 0.045 l 0.0899,0.74831 0.21948,0.66106 0.35432,0.63991 0.5077,0.55 0.53149,0.41778 0.6399,0.30938 0.70865,0.21947 0.75096,0.0423 0.44159,-0.0423 0.42043,-0.0661 0.39664,-0.15336 0.37548,-0.17716 0.37812,-0.17717 0.30938,-0.24063 0.28558,-0.28822 0.28822,-0.30673 z"
       id="path8131" />
    <path
       style="fill:#7f00ff;fill-opacity:1;fill-rule:evenodd;stroke:none;stroke-width:0.264583"
       d="m 563.68525,-52.909667 1.73991,1.38293 0.39399,-2.13125 -0.96779,0.30673 v -0.5262 l 0.0661,-0.5738 0.11105,-0.59231 0.17452,-0.57115 0.33053,-0.66106 0.41779,-0.6161 0.46274,-0.5262 0.5262,-0.41779 0.52885,-0.33053 0.57115,-0.21947 0.61611,-0.0873 0.57115,0.0211 -0.0423,-0.0211 h -0.045 -0.0661 l -0.0423,-0.045 -0.70601,-0.21948 -0.70337,-0.0238 -0.70336,0.0661 -0.68222,0.24327 -0.63725,0.35168 -0.52885,0.43895 -0.4601,0.55 -0.33052,0.68221 -0.24063,0.81442 v 0.85673 l 0.12957,0.81442 0.37548,0.74568 z"
       id="path8133" />
    <path
       style="fill:#7f00ff;fill-opacity:1;fill-rule:evenodd;stroke:none;stroke-width:0.264583"
       d="m 590.35761,-32.699817 -1.88005,-1.15817 1.85889,-1.09471 0.0212,0.9863 0.26707,-0.0661 0.24326,-0.11106 0.28823,-0.10841 0.24327,-0.10841 0.26442,-0.13221 0.24327,-0.17452 0.24327,-0.19832 0.24327,-0.17452 0.55264,-0.52356 0.46539,-0.57115 0.35432,-0.58966 0.19832,-0.63462 0.15601,-0.63462 v -0.61346 l -0.11106,-0.58966 -0.22211,-0.5262 0.045,0.0238 0.0449,0.0423 v 0.045 l 0.0212,0.0212 0.44159,0.61346 0.26707,0.65577 0.17452,0.72188 v 0.70072 l -0.13222,0.70072 -0.24326,0.67692 -0.39664,0.59231 -0.51033,0.52356 -0.35433,0.26177 -0.35169,0.19832 -0.39927,0.17452 -0.37548,0.15337 -0.44159,0.0661 -0.37812,0.0423 h -0.44159 l -0.39928,-0.0635 z"
       id="path8135" />
    <path
       style="fill:#bfddff;fill-opacity:1;fill-rule:evenodd;stroke:none;stroke-width:0.264583"
       d="m 544.13117,-41.288277 0.37019,-0.0661 0.32788,-0.19832 0.21947,-0.33053 0.0635,-0.39928 -0.0635,-0.37548 -0.21947,-0.33053 -0.32788,-0.21947 -0.37019,-0.0687 -0.39399,0.0687 -0.32789,0.21947 -0.19567,0.33053 -0.0899,0.37548 0.0899,0.39928 0.19567,0.33053 0.32789,0.19832 z"
       id="path8137" />
    <path
       style="fill:#bfddff;fill-opacity:1;fill-rule:evenodd;stroke:none;stroke-width:0.264583"
       d="m 548.2641,-41.415197 0.37812,-0.0661 0.33053,-0.21947 0.21947,-0.30937 0.0661,-0.39928 -0.0661,-0.39664 -0.21947,-0.30937 -0.33053,-0.21947 -0.37812,-0.0687 -0.39664,0.0687 -0.33052,0.21947 -0.19832,0.30937 -0.0688,0.39664 0.0688,0.39928 0.19832,0.30937 0.33052,0.21947 z"
       id="path8139" />
    <path
       style="fill:#ffffff;fill-opacity:1;fill-rule:evenodd;stroke:none;stroke-width:0.264583"
       d="m 578.18621,-46.576737 0.3226,-0.0635 0.23534,-0.17187 0.12957,-0.2565 0.0846,-0.25649 -0.0846,-0.32259 -0.12957,-0.23534 -0.23534,-0.15072 -0.3226,-0.0661 -0.27764,0.0661 -0.23534,0.15072 -0.17187,0.23534 -0.0661,0.32259 0.0661,0.25649 0.17187,0.2565 0.23534,0.17187 z"
       id="path8141" />
    <path
       style="fill:#ffffff;fill-opacity:1;fill-rule:evenodd;stroke:none;stroke-width:0.264583"
       d="m 582.01506,-46.449817 0.33053,-0.0635 0.24327,-0.17187 0.15337,-0.23534 0.0661,-0.27764 -0.0661,-0.3226 -0.15337,-0.23534 -0.24327,-0.12956 -0.33053,-0.0873 -0.28558,0.0873 -0.24327,0.12956 -0.17716,0.23534 -0.0661,0.3226 0.0661,0.27764 0.17716,0.23534 0.24327,0.17187 z"
       id="path8143" />
  </g>
</svg>
