<?xml version="1.0" encoding="UTF-8" standalone="no"?>
<!DOCTYPE svg PUBLIC "-//W3C//DTD SVG 1.0//EN" "http://www.w3.org/TR/2001/REC-SVG-20010904/DTD/svg10.dtd">
<svg xmlns="http://www.w3.org/2000/svg" xmlns:xlink="http://www.w3.org/1999/xlink" fill-rule="evenodd" height="5.430555555555555in" preserveAspectRatio="none" stroke-linecap="round" viewBox="0 0 2855 3259" width="4.756944444444445in">
    <style type="text/css">
.brush0 { fill: rgb(255,255,255); }
.pen0 { stroke: rgb(0,0,0); stroke-width: 1; stroke-linejoin: round; }
.font0 { font-weight: bold; font-size: 83px; font-family: System, sans-serif; }
.pen1 { stroke: none; }
.pen2 { stroke: rgb(0,0,0); stroke-width: 2; stroke-linejoin: round; }
.brush1 { fill: none; }
.font1 { font-size: 50px; font-family: Arial; }
.font2 { font-weight: bold; font-size: 8px; font-family: System, sans-serif; }
.font3 { font-size: 61px; font-family: Arial; }
.brush2 { fill: rgb(0,0,0); }
.font4 { font-weight: bold; font-size: 50px; font-family: Arial; }
.font5 { font-style: italic; font-size: 50px; font-family: Arial; }
.font6 { font-size: 31px; font-family: Arial; }
.font7 { font-size: 37px; font-family: Arial; }
.brush3 { fill: rgb(230,230,230); }
.pen3 { stroke: rgb(255,255,255); stroke-width: 2; stroke-linejoin: round; }
.pen4 { stroke: rgb(0,0,0); stroke-width: 15; stroke-linejoin: round; }
.font8 { font-weight: bold; font-size: 8px; font-family: System, sans-serif; }
.font9 { font-weight: bold; font-size: 83px; font-family: System, sans-serif; }
</style>
    <g>
        <polygon class="pen1 brush0" points="336,1891 336,2249 802,2249 802,1891 336,1891"/>
        <polygon class="pen2 brush1" points="336,2249 802,2249 802,1891 336,1891 336,2249"/>
        <text class="font1" fill="rgb(0,0,0)" stroke="none" style="dominant-baseline: alphabetic;" x="363 406 437 467 486 517 532 545 575" xml:lang="en" xml:space="preserve" y="1954">Operation</text>
        <text class="font1" fill="rgb(0,0,0)" stroke="none" style="dominant-baseline: alphabetic;" x="606 621" xml:lang="en" xml:space="preserve" y="1954">: </text>
        <text class="font1" fill="rgb(0,0,0)" stroke="none" style="dominant-baseline: alphabetic;" x="363 379 394 410 425 456 487 502 533 551 567 582 613" xml:lang="en" xml:space="preserve" y="2020">    enterItem</text>
        <text class="font1" fill="rgb(0,0,0)" stroke="none" style="dominant-baseline: alphabetic;" x="658" xml:lang="en" xml:space="preserve" y="2020">(</text>
        <text class="font1" fill="rgb(0,0,0)" stroke="none" style="dominant-baseline: alphabetic;" x="677" xml:lang="en" xml:space="preserve" y="2020">…</text>
        <text class="font1" fill="rgb(0,0,0)" stroke="none" style="dominant-baseline: alphabetic;" x="732" xml:lang="en" xml:space="preserve" y="2020">)</text>
        <text class="font1" fill="rgb(0,0,0)" stroke="none" style="dominant-baseline: alphabetic;" x="363 400 431 458" xml:lang="en" xml:space="preserve" y="2153">Post</text>
        <text class="font1" fill="rgb(0,0,0)" stroke="none" style="dominant-baseline: alphabetic;" x="474" xml:lang="en" xml:space="preserve" y="2153">-</text>
        <text class="font1" fill="rgb(0,0,0)" stroke="none" style="dominant-baseline: alphabetic;" x="492 520 550 581 611 624 639 652 682 713" xml:lang="en" xml:space="preserve" y="2153">conditions</text>
        <text class="font1" fill="rgb(0,0,0)" stroke="none" style="dominant-baseline: alphabetic;" x="741" xml:lang="en" xml:space="preserve" y="2153">:</text>
        <text class="font1" fill="rgb(0,0,0)" stroke="none" style="dominant-baseline: alphabetic;" x="363" xml:lang="en" xml:space="preserve" y="2220">-</text>
        <text class="font1" fill="rgb(0,0,0)" stroke="none" style="dominant-baseline: alphabetic;" x="382" xml:lang="en" xml:space="preserve" y="2220"> </text>
        <text class="font1" fill="rgb(0,0,0)" stroke="none" style="dominant-baseline: alphabetic;" x="397 412 428 443 459" xml:lang="en" xml:space="preserve" y="2220">. . .</text>
        <text class="font1" fill="rgb(0,0,0)" stroke="none" style="dominant-baseline: alphabetic;" x="353 396 426 457 476 506 522 534 565 595 611 651 681 712 728 746 777 804 820" xml:lang="en" xml:space="preserve" y="2381">Operation Contracts</text>
        <polygon class="pen1 brush0" points="606,223 606,347 972,347 972,223 606,223"/>
        <polygon class="pen2 brush1" points="606,347 972,347 972,223 606,223 606,347"/>
        <text class="font1" fill="rgb(0,0,0)" stroke="none" style="dominant-baseline: alphabetic;" x="733 770 801 813" xml:lang="en" xml:space="preserve" y="302">Sale</text>
        <polygon class="pen1 brush0" points="606,347 606,535 972,535 972,347 606,347"/>
        <polygon class="pen2 brush1" points="606,535 972,535 972,347 606,347 606,535"/>
        <text class="font1" fill="rgb(0,0,0)" stroke="none" style="dominant-baseline: alphabetic;" x="638 669 700 715" xml:lang="en" xml:space="preserve" y="425">date</text>
        <text class="font1" fill="rgb(0,0,0)" stroke="none" style="dominant-baseline: alphabetic;" x="638 654 669 685 701" xml:lang="en" xml:space="preserve" y="491">. . .</text>
        <polygon class="pen1 brush0" points="1324,223 1324,411 1689,411 1689,223 1324,223"/>
        <polygon class="pen2 brush1" points="1324,411 1689,411 1689,223 1324,223 1324,411"/>
        <text class="font1" fill="rgb(0,0,0)" stroke="none" style="dominant-baseline: alphabetic;" x="1437 1474 1504 1517 1547" xml:lang="en" xml:space="preserve" y="300">Sales</text>
        <text class="font1" fill="rgb(0,0,0)" stroke="none" style="dominant-baseline: alphabetic;" x="1400 1431 1443 1474 1504 1520 1536 1566" xml:lang="en" xml:space="preserve" y="367">LineItem</text>
        <polygon class="pen1 brush0" points="1324,411 1324,535 1689,535 1689,411 1324,411"/>
        <polygon class="pen2 brush1" points="1324,535 1689,535 1689,411 1324,411 1324,535"/>
        <text class="font1" fill="rgb(0,0,0)" stroke="none" style="dominant-baseline: alphabetic;" x="1356 1387 1417 1448 1479 1494 1507 1522" xml:lang="en" xml:space="preserve" y="490">quantity</text>
        <polyline class="pen2" fill="none" points="972,379 1324,379"/>
        <text class="font1" fill="rgb(0,0,0)" stroke="none" style="dominant-baseline: alphabetic;" x="1214" xml:lang="en" xml:space="preserve" y="322">1</text>
        <text class="font1" fill="rgb(0,0,0)" stroke="none" style="dominant-baseline: alphabetic;" x="1244 1260" xml:lang="en" xml:space="preserve" y="322">..</text>
        <text class="font3" fill="rgb(0,0,0)" stroke="none" style="dominant-baseline: alphabetic;" x="1275" xml:lang="en" xml:space="preserve" y="322">*</text>
        <text class="font1" fill="rgb(0,0,0)" stroke="none" style="dominant-baseline: alphabetic;" x="1020" xml:lang="en" xml:space="preserve" y="317">1</text>
        <polygon class="pen1 brush0" points="2075,255 2075,379 2440,379 2440,255 2075,255"/>
        <polygon class="pen2 brush1" points="2075,379 2440,379 2440,255 2075,255 2075,379"/>
        <text class="font1" fill="rgb(0,0,0)" stroke="none" style="dominant-baseline: alphabetic;" x="2219 2234 2250 2265 2281" xml:lang="en" xml:space="preserve" y="333">. . .</text>
        <polygon class="pen1 brush0" points="2075,379 2075,504 2440,504 2440,379 2075,379"/>
        <polygon class="pen2 brush1" points="2075,504 2440,504 2440,379 2075,379 2075,504"/>
        <text class="font1" fill="rgb(0,0,0)" stroke="none" style="dominant-baseline: alphabetic;" x="2107 2122 2138 2153 2169" xml:lang="en" xml:space="preserve" y="458">. . .</text>
        <polyline class="pen2" fill="none" points="1689,379 2074,379"/>
        <polyline class="pen2" fill="none" points="412,568 2627,568 2633,568 2639,568 2645,566 2651,565 2657,564 2663,562 2669,560 2675,558 2680,556 2686,553 2691,550 2696,547 2701,543 2705,539 2710,536 2714,532 2718,527 2722,523 2726,518 2730,513 2733,508 2736,503 2739,497 2741,492 2743,487 2745,480 2747,475 2748,468 2749,463 2750,456 2750,450 2751,443 2751,443 2751,443 2751,226 2750,219 2750,213 2749,206 2748,201 2747,194 2745,189 2743,183 2741,177 2739,172 2736,166 2733,161 2730,156 2726,151 2722,146 2718,142 2714,137 2710,133 2705,130 2701,126 2696,122 2691,119 2686,116 2680,113 2675,111 2669,109 2663,107 2657,105 2651,104 2645,103 2639,102 2633,101 2627,101 2627,101 412,101 406,101 399,102 393,103 387,104 381,105 375,107 369,109 364,111 358,113 353,116 348,119 342,122 338,126 333,130 328,133 324,137 320,142 316,146 312,151 309,156 306,161 303,166 300,172 297,177 295,183 293,189 292,194 290,201 289,206 289,213 288,219 288,226 288,226 288,443 288,450 289,456 289,463 290,468 292,475 293,480 295,487 297,492 300,497 303,503 306,508 309,513 312,518 316,523 320,527 324,532 328,536 333,539 338,543 342,547 348,550 353,553 358,556 364,558 369,560 375,562 381,564 387,565 393,566 399,568 406,568 412,568 412,568"/>
        <text class="font1" fill="rgb(0,0,0)" stroke="none" style="dominant-baseline: alphabetic;" x="1341 1381 1411 1457 1488 1500 1531 1546 1593 1623 1654 1684" xml:lang="en" xml:space="preserve" y="178">Domain Model</text>
        <path class="pen0 brush2" d="M 415,2432  L 540,2432 540,2432 541,2433 542,2433 542,2433 543,2434 544,2435 544,2435 544,2436 544,2437 544,2438 543,2439 542,2439 542,2440 541,2440 540,2440 540,2440 415,2440 414,2440 413,2440 413,2440 412,2439 412,2439 411,2438 411,2437 411,2436 411,2435 411,2435 412,2434 412,2433 413,2433 413,2433 414,2432 415,2432 415,2432 z M 615,2432  L 739,2432 739,2432 740,2433 741,2433 742,2433 742,2434 743,2435 743,2435 743,2436 743,2437 743,2438 742,2439 742,2439 741,2440 740,2440 739,2440 739,2440 615,2440 613,2440 612,2440 612,2440 611,2439 611,2439 610,2438 610,2437 610,2436 610,2435 610,2435 611,2434 611,2433 612,2433 612,2433 613,2432 615,2432 615,2432 z M 814,2432  L 938,2432 938,2432 939,2433 940,2433 941,2433 941,2434 942,2435 942,2435 942,2436 942,2437 942,2438 941,2439 941,2439 940,2440 939,2440 938,2440 938,2440 814,2440 813,2440 811,2440 811,2440 810,2439 810,2439 809,2438 809,2437 809,2436 809,2435 809,2435 810,2434 810,2433 811,2433 811,2433 813,2432 814,2432 814,2432 z M 1013,2432  L 1137,2432 1137,2432 1139,2433 1139,2433 1140,2433 1140,2434 1141,2435 1141,2435 1141,2436 1141,2437 1141,2438 1140,2439 1140,2439 1139,2440 1139,2440 1137,2440 1137,2440 1013,2440 1012,2440 1011,2440 1010,2440 1009,2439 1009,2439 1008,2438 1008,2437 1008,2436 1008,2435 1008,2435 1009,2434 1009,2433 1010,2433 1011,2433 1012,2432 1013,2432 1013,2432 z M 1212,2432  L 1336,2432 1337,2432 1338,2433 1338,2433 1339,2433 1339,2434 1340,2435 1340,2435 1340,2436 1340,2437 1340,2438 1339,2439 1339,2439 1338,2440 1338,2440 1337,2440 1336,2440 1212,2440 1211,2440 1210,2440 1209,2440 1208,2439 1208,2439 1207,2438 1207,2437 1207,2436 1207,2435 1207,2435 1208,2434 1208,2433 1209,2433 1210,2433 1211,2432 1212,2432 1212,2432 z M 1411,2432  L 1535,2432 1536,2432 1537,2433 1537,2433 1538,2433 1538,2434 1539,2435 1539,2435 1539,2436 1539,2437 1539,2438 1538,2439 1538,2439 1537,2440 1537,2440 1536,2440 1535,2440 1411,2440 1410,2440 1409,2440 1408,2440 1408,2439 1407,2439 1406,2438 1406,2437 1406,2436 1406,2435 1406,2435 1407,2434 1408,2433 1408,2433 1409,2433 1410,2432 1411,2432 1411,2432 z M 1610,2432  L 1734,2432 1735,2432 1736,2433 1736,2433 1737,2433 1737,2434 1738,2435 1738,2435 1738,2436 1738,2437 1738,2438 1737,2439 1737,2439 1736,2440 1736,2440 1735,2440 1734,2440 1610,2440 1609,2440 1608,2440 1607,2440 1607,2439 1606,2439 1606,2438 1606,2437 1606,2436 1606,2435 1606,2435 1606,2434 1607,2433 1607,2433 1608,2433 1609,2432 1610,2432 1610,2432 z M 1807,2429  L 1812,2428 1818,2427 1823,2425 1828,2423 1834,2420 1839,2417 1844,2415 1849,2412 1854,2408 1858,2404 1863,2401 1867,2397 1871,2393 1875,2388 1878,2384 1881,2379 1884,2374 1887,2369 1890,2364 1893,2358 1894,2354 1895,2353 1895,2352 1896,2352 1897,2351 1897,2351 1898,2351 1899,2351 1900,2351 1900,2352 1901,2352 1901,2353 1902,2354 1903,2354 1903,2355 1903,2356 1902,2357 1900,2362 1897,2368 1895,2373 1892,2379 1888,2384 1885,2389 1881,2394 1877,2398 1872,2403 1868,2407 1864,2411 1858,2415 1853,2418 1848,2422 1843,2425 1837,2428 1831,2430 1826,2433 1820,2435 1814,2436 1809,2438 1808,2438 1808,2437 1807,2437 1806,2437 1805,2436 1805,2435 1804,2435 1804,2434 1804,2433 1805,2432 1805,2431 1806,2430 1807,2429 1807,2429 1807,2429 z M 1902,2282  L 1902,2157 1902,2156 1902,2155 1903,2154 1903,2154 1904,2153 1905,2153 1905,2153 1906,2153 1907,2153 1908,2153 1908,2153 1909,2154 1909,2154 1910,2155 1910,2156 1910,2157 1910,2282 1910,2282 1910,2283 1909,2284 1909,2284 1908,2285 1908,2285 1907,2285 1906,2286 1905,2285 1905,2285 1904,2285 1903,2284 1903,2284 1902,2283 1902,2282 1902,2282 1902,2282 z M 1902,2082  L 1902,1958 1902,1957 1902,1956 1903,1955 1903,1955 1904,1954 1905,1954 1905,1954 1906,1954 1907,1954 1908,1954 1908,1954 1909,1955 1909,1955 1910,1956 1910,1957 1910,1958 1910,2082 1910,2083 1910,2084 1909,2084 1909,2085 1908,2085 1908,2086 1907,2086 1906,2086 1905,2086 1905,2086 1904,2085 1903,2085 1903,2084 1902,2084 1902,2083 1902,2082 1902,2082 z M 1902,1883  L 1902,1758 1902,1757 1902,1756 1903,1756 1903,1755 1904,1755 1905,1754 1905,1754 1906,1754 1907,1754 1908,1754 1908,1755 1909,1755 1909,1756 1910,1756 1910,1757 1910,1758 1910,1883 1910,1883 1910,1885 1909,1885 1909,1886 1908,1886 1908,1887 1907,1887 1906,1887 1905,1887 1905,1887 1904,1886 1903,1886 1903,1885 1902,1885 1902,1883 1902,1883 1902,1883 z M 1902,1684  L 1902,1559 1902,1558 1902,1557 1903,1557 1903,1556 1904,1556 1905,1555 1905,1555 1906,1555 1907,1555 1908,1555 1908,1556 1909,1556 1909,1557 1910,1557 1910,1558 1910,1559 1910,1684 1910,1684 1910,1685 1909,1686 1909,1686 1908,1687 1908,1687 1907,1687 1906,1688 1905,1687 1905,1687 1904,1687 1903,1686 1903,1686 1902,1685 1902,1684 1902,1684 1902,1684 z M 1902,1484  L 1902,1360 1902,1359 1902,1358 1903,1357 1903,1357 1904,1356 1905,1356 1905,1356 1906,1356 1907,1356 1908,1356 1908,1356 1909,1357 1909,1357 1910,1358 1910,1359 1910,1360 1910,1484 1910,1485 1910,1486 1909,1487 1909,1487 1908,1488 1908,1488 1907,1488 1906,1489 1905,1488 1905,1488 1904,1488 1903,1487 1903,1487 1902,1486 1902,1485 1902,1484 1902,1484 z M 1902,1285  L 1902,1161 1902,1160 1902,1159 1903,1158 1903,1158 1904,1157 1905,1156 1905,1156 1906,1156 1907,1156 1908,1156 1908,1157 1909,1158 1909,1158 1910,1159 1910,1160 1910,1161 1910,1285 1910,1286 1910,1287 1909,1287 1909,1288 1908,1288 1908,1289 1907,1289 1906,1289 1905,1289 1905,1289 1904,1288 1903,1288 1903,1287 1902,1287 1902,1286 1902,1285 1902,1285 z M 1902,1086  L 1902,961 1902,960 1902,959 1903,959 1903,958 1904,958 1905,957 1905,957 1906,957 1907,957 1908,957 1908,958 1909,958 1909,959 1910,959 1910,960 1910,961 1910,1086 1910,1086 1910,1087 1909,1088 1909,1089 1908,1089 1908,1090 1907,1090 1906,1090 1905,1090 1905,1090 1904,1089 1903,1089 1903,1088 1902,1087 1902,1086 1902,1086 1902,1086 z M 1902,887  L 1902,864 1902,858 1901,851 1900,846 1899,839 1898,834 1896,828 1895,822 1893,817 1890,812 1887,806 1884,802 1881,796 1878,792 1875,788 1871,783 1867,779 1864,776 1863,775 1863,775 1863,774 1863,773 1863,772 1863,771 1863,771 1864,770 1864,769 1865,769 1866,769 1867,769 1867,769 1868,769 1869,769 1869,770 1872,773 1877,778 1881,782 1885,787 1889,792 1892,797 1895,803 1898,808 1900,814 1903,820 1905,826 1906,832 1908,838 1909,845 1910,851 1910,858 1910,864 1910,887 1910,887 1910,888 1909,889 1909,889 1908,890 1908,890 1907,890 1906,891 1905,890 1905,890 1904,890 1903,889 1903,889 1902,888 1902,887 1902,887 1902,887 z M 1800,745  L 1794,744 1788,744 1782,743 1676,743 1675,743 1674,743 1674,743 1673,742 1673,742 1672,741 1672,740 1672,739 1672,738 1672,738 1673,737 1673,736 1674,736 1674,736 1675,735 1676,735 1782,735 1788,736 1795,736 1801,737 1802,737 1802,737 1803,738 1804,738 1804,739 1805,740 1805,740 1805,741 1805,742 1804,743 1804,743 1803,744 1802,744 1801,745 1801,745 1800,745 1800,745 z M 1601,743  L 1477,743 1476,743 1475,743 1475,743 1474,742 1474,742 1473,741 1473,740 1473,739 1473,738 1473,738 1474,737 1474,736 1475,736 1475,736 1476,735 1477,735 1601,735 1602,735 1603,736 1604,736 1604,736 1605,737 1606,738 1606,738 1606,739 1606,740 1606,741 1605,742 1604,742 1604,743 1603,743 1602,743 1601,743 1601,743 z M 1402,743  L 1278,743 1277,743 1276,743 1276,743 1275,742 1275,742 1274,741 1274,740 1274,739 1274,738 1274,738 1275,737 1275,736 1276,736 1276,736 1277,735 1278,735 1402,735 1403,735 1404,736 1405,736 1405,736 1406,737 1406,738 1406,738 1406,739 1406,740 1406,741 1406,742 1405,742 1405,743 1404,743 1403,743 1402,743 1402,743 z M 1203,743  L 1079,743 1078,743 1077,743 1077,743 1076,742 1076,742 1075,741 1075,740 1075,739 1075,738 1075,738 1076,737 1076,736 1077,736 1077,736 1078,735 1079,735 1203,735 1204,735 1205,736 1206,736 1206,736 1207,737 1207,738 1207,738 1207,739 1207,740 1207,741 1207,742 1206,742 1206,743 1205,743 1204,743 1203,743 1203,743 z M 1004,743  L 880,743 879,743 878,743 878,743 877,742 877,742 876,741 876,740 876,739 876,738 876,738 877,737 877,736 878,736 878,736 879,735 880,735 1004,735 1005,735 1006,736 1007,736 1007,736 1008,737 1008,738 1008,738 1008,739 1008,740 1008,741 1008,742 1007,742 1007,743 1006,743 1005,743 1004,743 1004,743 z M 805,743  L 681,743 680,743 679,743 679,743 678,742 678,742 677,741 677,740 677,739 677,738 677,738 678,737 678,736 679,736 679,736 680,735 681,735 805,735 806,735 807,736 808,736 808,736 809,737 809,738 809,738 809,739 809,740 809,741 809,742 808,742 808,743 807,743 806,743 805,743 805,743 z M 606,743  L 482,743 481,743 480,743 480,743 479,742 479,742 478,741 478,740 478,739 478,738 478,738 479,737 479,736 480,736 480,736 481,735 482,735 606,735 607,735 608,736 609,736 609,736 610,737 610,738 610,738 610,739 610,740 610,741 610,742 609,742 609,743 608,743 607,743 606,743 606,743 z M 408,744  L 407,744 401,744 395,745 389,746 383,748 378,749 372,751 366,753 361,755 356,758 351,761 346,764 341,767 337,771 333,775 328,779 324,783 321,788 317,792 313,797 310,802 309,804 309,805 308,805 307,806 307,806 306,806 305,806 304,806 304,805 303,805 302,804 302,804 301,803 301,802 301,801 301,801 302,800 304,797 307,792 310,787 314,782 318,777 323,773 327,769 332,765 337,761 341,757 347,754 352,751 358,748 364,745 369,743 375,741 381,739 388,738 394,737 400,736 407,736 407,736 408,736 409,736 410,736 410,737 411,737 411,738 411,739 411,739 411,740 411,741 411,742 410,742 410,743 409,743 408,743 408,744 408,744 z M 293,874  L 293,998 293,999 293,1000 292,1000 292,1001 291,1001 291,1002 290,1002 289,1002 288,1002 287,1002 286,1001 286,1001 285,1000 285,1000 285,999 285,998 285,874 285,873 285,872 285,871 286,871 286,870 287,870 288,870 289,870 290,870 291,870 291,870 292,871 292,871 293,872 293,873 293,874 293,874 z M 293,1073  L 293,1197 293,1198 293,1199 292,1200 292,1200 291,1201 291,1201 290,1202 289,1202 288,1202 287,1201 286,1201 286,1200 285,1200 285,1199 285,1198 285,1197 285,1073 285,1072 285,1071 285,1070 286,1070 286,1069 287,1069 288,1069 289,1069 290,1069 291,1069 291,1069 292,1070 292,1070 293,1071 293,1072 293,1073 293,1073 z M 293,1272  L 293,1397 293,1397 293,1398 292,1399 292,1399 291,1400 291,1400 290,1401 289,1401 288,1401 287,1400 286,1400 286,1399 285,1399 285,1398 285,1397 285,1397 285,1272 285,1271 285,1271 285,1270 286,1269 286,1269 287,1268 288,1268 289,1268 290,1268 291,1268 291,1269 292,1269 292,1270 293,1271 293,1271 293,1272 293,1272 z M 293,1471  L 293,1596 293,1597 293,1598 292,1598 292,1599 291,1599 291,1600 290,1600 289,1600 288,1600 287,1600 286,1599 286,1599 285,1598 285,1598 285,1597 285,1596 285,1471 285,1470 285,1470 285,1469 286,1468 286,1468 287,1467 288,1467 289,1467 290,1467 291,1467 291,1468 292,1468 292,1469 293,1470 293,1470 293,1471 293,1471 z M 293,1671  L 293,1795 293,1796 293,1797 292,1797 292,1798 291,1798 291,1799 290,1799 289,1799 288,1799 287,1799 286,1798 286,1798 285,1797 285,1797 285,1796 285,1795 285,1671 285,1670 285,1669 285,1668 286,1668 286,1667 287,1667 288,1667 289,1667 290,1667 291,1667 291,1667 292,1668 292,1668 293,1669 293,1670 293,1671 293,1671 z M 293,1870  L 293,1995 293,1995 293,1996 292,1997 292,1997 291,1998 291,1998 290,1999 289,1999 288,1999 287,1998 286,1998 286,1997 285,1997 285,1996 285,1995 285,1995 285,1870 285,1869 285,1868 285,1867 286,1867 286,1866 287,1866 288,1866 289,1866 290,1866 291,1866 291,1866 292,1867 292,1867 293,1868 293,1869 293,1870 293,1870 z M 293,2069  L 293,2194 293,2194 293,2195 292,2196 292,2196 291,2197 291,2197 290,2198 289,2198 288,2198 287,2197 286,2197 286,2196 285,2196 285,2195 285,2194 285,2194 285,2069 285,2068 285,2068 285,2067 286,2066 286,2066 287,2065 288,2065 289,2065 290,2065 291,2065 291,2066 292,2066 292,2067 293,2068 293,2068 293,2069 293,2069 z M 293,2269  L 293,2312 293,2318 294,2324 295,2330 296,2336 297,2342 298,2347 300,2353 303,2359 305,2364 308,2369 311,2374 314,2379 317,2384 318,2385 318,2385 319,2386 319,2387 319,2388 319,2388 318,2389 318,2390 317,2390 316,2391 315,2392 315,2392 314,2392 313,2391 312,2391 312,2390 311,2390 310,2388 307,2384 304,2379 300,2373 297,2368 295,2362 293,2356 291,2350 289,2344 287,2338 286,2331 285,2325 285,2318 285,2312 285,2269 285,2267 285,2267 285,2266 286,2265 286,2265 287,2264 288,2264 289,2264 290,2264 291,2264 291,2265 292,2265 292,2266 293,2267 293,2267 293,2269 293,2269 z M 376,2426  L 378,2427 383,2428 389,2430 395,2431 401,2431 407,2432 408,2432 409,2433 410,2434 410,2434 411,2435 411,2436 411,2437 411,2437 411,2438 410,2439 409,2440 408,2440 407,2440 407,2440 400,2440 394,2439 388,2438 381,2436 375,2435 373,2434 372,2434 371,2433 371,2433 371,2432 370,2431 370,2430 370,2429 370,2429 371,2428 371,2427 372,2427 372,2426 374,2426 374,2426 375,2426 376,2426 376,2426 z" fill-rule="nonzero"/>
        <text class="font4" fill="rgb(0,0,0)" stroke="none" style="dominant-baseline: alphabetic;" x="884 924 955" xml:lang="en" xml:space="preserve" y="817">Use</text>
        <text class="font4" fill="rgb(0,0,0)" stroke="none" style="dominant-baseline: alphabetic;" x="985" xml:lang="en" xml:space="preserve" y="817">-</text>
        <text class="font4" fill="rgb(0,0,0)" stroke="none" style="dominant-baseline: alphabetic;" x="1004 1044 1074 1105 1135 1151 1197 1231 1264 1295" xml:lang="en" xml:space="preserve" y="817">Case Model</text>
        <polyline class="pen2" fill="none" points="413,3246 2718,3246 2724,3246 2730,3245 2736,3244 2743,3243 2748,3242 2755,3240 2760,3238 2766,3236 2772,3233 2777,3231 2782,3227 2787,3224 2792,3221 2797,3217 2801,3213 2805,3209 2810,3205 2814,3201 2817,3196 2821,3191 2824,3186 2827,3181 2830,3175 2832,3170 2834,3164 2836,3158 2838,3152 2840,3146 2841,3140 2841,3134 2842,3127 2842,3121 2842,3121 2842,2716 2842,2710 2841,2703 2841,2697 2840,2691 2838,2685 2836,2680 2834,2674 2832,2668 2830,2662 2827,2657 2824,2652 2821,2647 2817,2642 2814,2637 2810,2633 2805,2628 2801,2624 2797,2620 2792,2617 2787,2613 2782,2610 2777,2607 2772,2604 2766,2602 2760,2600 2755,2598 2748,2596 2743,2594 2736,2593 2730,2592 2724,2592 2718,2592 413,2592 407,2592 400,2592 394,2593 388,2594 382,2596 376,2598 370,2600 365,2602 360,2604 354,2607 349,2610 344,2613 339,2617 334,2620 329,2624 325,2628 321,2633 318,2637 313,2642 310,2647 307,2652 304,2657 301,2662 299,2668 296,2674 295,2680 293,2685 292,2691 291,2697 290,2703 289,2710 289,2716 289,3121 289,3127 290,3134 291,3140 292,3146 293,3152 295,3158 296,3164 299,3170 301,3175 304,3181 307,3186 310,3191 313,3196 318,3201 321,3205 325,3209 329,3213 334,3217 339,3221 344,3224 349,3227 354,3231 360,3233 365,3236 370,3238 376,3240 382,3242 388,3243 394,3244 400,3245 407,3246 413,3246 413,3246"/>
        <text class="font1" fill="rgb(0,0,0)" stroke="none" style="dominant-baseline: alphabetic;" x="1396 1436 1467 1494 1507 1537 1568 1583 1629 1660 1691 1721" xml:lang="en" xml:space="preserve" y="2669">Design Model</text>
        <path class="pen0 brush2" d="M 1002,2754  L 1002,2779 1002,2780 1002,2780 1001,2780 1001,2780 1001,2780 1000,2780 1000,2780 1000,2779 1000,2754 1000,2754 1000,2754 1001,2753 1001,2753 1001,2753 1002,2754 1002,2754 1002,2754 1002,2754 z M 1002,2794  L 1002,2819 1002,2819 1002,2820 1001,2820 1001,2820 1001,2820 1000,2820 1000,2819 1000,2819 1000,2794 1000,2794 1000,2794 1001,2793 1001,2793 1001,2793 1002,2794 1002,2794 1002,2794 1002,2794 z M 1002,2834  L 1002,2859 1002,2859 1002,2860 1001,2860 1000,2860 1000,2859 1000,2859 1000,2834 1000,2834 1000,2833 1001,2833 1001,2833 1001,2833 1002,2833 1002,2834 1002,2834 1002,2834 z M 1002,2874  L 1002,2899 1002,2899 1002,2900 1001,2900 1001,2900 1001,2900 1000,2900 1000,2899 1000,2899 1000,2874 1000,2874 1000,2873 1001,2873 1001,2873 1001,2873 1002,2873 1002,2874 1002,2874 1002,2874 z M 1002,2914  L 1002,2938 1002,2939 1002,2939 1001,2939 1001,2939 1001,2939 1000,2939 1000,2939 1000,2938 1000,2914 1000,2913 1000,2913 1001,2913 1001,2913 1001,2913 1002,2913 1002,2913 1002,2914 1002,2914 z M 1002,2954  L 1002,2978 1002,2979 1002,2979 1001,2979 1001,2979 1001,2979 1000,2979 1000,2979 1000,2978 1000,2954 1000,2953 1000,2953 1001,2952 1001,2952 1001,2952 1002,2953 1002,2953 1002,2954 1002,2954 z M 1002,2993  L 1002,3018 1002,3018 1002,3019 1001,3019 1001,3019 1001,3019 1000,3019 1000,3018 1000,3018 1000,2993 1000,2993 1000,2993 1001,2992 1001,2992 1001,2992 1002,2993 1002,2993 1002,2993 1002,2993 z M 1002,3033  L 1002,3058 1002,3058 1002,3059 1001,3059 1000,3059 1000,3058 1000,3058 1000,3033 1000,3033 1000,3032 1001,3032 1001,3032 1001,3032 1002,3032 1002,3033 1002,3033 1002,3033 z M 1002,3073  L 1002,3098 1002,3098 1002,3099 1001,3099 1001,3099 1001,3099 1000,3099 1000,3098 1000,3098 1000,3073 1000,3073 1000,3072 1001,3072 1001,3072 1001,3072 1002,3072 1002,3073 1002,3073 1002,3073 z M 1002,3113  L 1002,3138 1002,3138 1002,3138 1001,3139 1001,3139 1001,3139 1000,3138 1000,3138 1000,3138 1000,3113 1000,3112 1000,3112 1001,3112 1001,3112 1001,3112 1002,3112 1002,3112 1002,3113 1002,3113 z M 1002,3153  L 1002,3178 1002,3178 1002,3178 1001,3178 1001,3179 1001,3178 1000,3178 1000,3178 1000,3178 1000,3153 1000,3152 1000,3152 1001,3152 1001,3152 1001,3152 1002,3152 1002,3152 1002,3153 1002,3153 z M 1002,3193  L 1002,3215 1002,3215 1002,3215 1001,3216 1001,3216 1001,3216 1000,3215 1000,3215 1000,3215 1000,3193 1000,3192 1000,3192 1001,3192 1001,3192 1001,3192 1002,3192 1002,3192 1002,3193 1002,3193 z" fill-rule="nonzero"/>
        <polygon class="pen2 brush1" points="846,2745 1157,2745 1157,2639 846,2639 846,2745"/>
        <text class="font1" fill="rgb(0,0,0)" stroke="none" style="dominant-baseline: alphabetic;" x="882 898" xml:lang="en" xml:space="preserve" y="2709">: </text>
        <text class="font1" fill="rgb(0,0,0)" stroke="none" style="dominant-baseline: alphabetic;" x="913 953 984 1014 1027 1054 1070 1100" xml:lang="en" xml:space="preserve" y="2709">Register</text>
        <polyline class="pen2" fill="none" points="417,2947 966,2947"/>
        <polygon class="pen1 brush2" points="431,2947 431,2945 430,2944 430,2943 429,2941 428,2938 426,2936 424,2935 422,2933 421,2933 419,2933 418,2932 417,2932 415,2932 413,2933 412,2933 411,2933 408,2935 406,2936 405,2938 403,2941 403,2943 402,2944 402,2945 402,2947 402,2947 402,2948 402,2949 403,2951 403,2952 405,2955 406,2957 408,2959 411,2960 412,2960 413,2961 415,2961 417,2961 418,2961 419,2961 421,2960 422,2960 424,2959 426,2957 428,2955 429,2952 430,2951 430,2949 431,2948 431,2947"/>
        <polygon class="pen1 brush2" points="961,2928 1000,2947 961,2966 961,2928"/>
        <text class="font1" fill="rgb(0,0,0)" stroke="none" style="dominant-baseline: alphabetic;" x="582 612 643 659 689 708 723 739 769" xml:lang="en" xml:space="preserve" y="2866">enterItem</text>
        <text class="font1" fill="rgb(0,0,0)" stroke="none" style="dominant-baseline: alphabetic;" x="488" xml:lang="en" xml:space="preserve" y="2933">(</text>
        <text class="font1" fill="rgb(0,0,0)" stroke="none" style="dominant-baseline: alphabetic;" x="506 519 534 565 611 626" xml:lang="en" xml:space="preserve" y="2933">itemID</text>
        <text class="font1" fill="rgb(0,0,0)" stroke="none" style="dominant-baseline: alphabetic;" x="666 682" xml:lang="en" xml:space="preserve" y="2933">, </text>
        <text class="font1" fill="rgb(0,0,0)" stroke="none" style="dominant-baseline: alphabetic;" x="697 728 758 789 819 835 847 863" xml:lang="en" xml:space="preserve" y="2933">quantity</text>
        <text class="font1" fill="rgb(0,0,0)" stroke="none" style="dominant-baseline: alphabetic;" x="890" xml:lang="en" xml:space="preserve" y="2933">)</text>
        <polygon class="pen2 brush1" points="1779,2745 2307,2745 2307,2639 1779,2639 1779,2745"/>
        <text class="font1" fill="rgb(0,0,0)" stroke="none" style="dominant-baseline: alphabetic;" x="1837 1852" xml:lang="en" xml:space="preserve" y="2709">: </text>
        <text class="font1" fill="rgb(0,0,0)" stroke="none" style="dominant-baseline: alphabetic;" x="1867 1904 1923 1953 1984 2014 2042 2057 2097 2128 2144 2174 2187 2217" xml:lang="en" xml:space="preserve" y="2709">ProductCatalog</text>
        <path class="pen0 brush2" d="M 2028,2754  L 2028,2779 2028,2780 2028,2780 2027,2780 2027,2780 2027,2780 2026,2780 2026,2780 2026,2779 2026,2754 2026,2754 2026,2754 2027,2753 2027,2753 2027,2753 2028,2754 2028,2754 2028,2754 2028,2754 z M 2028,2794  L 2028,2819 2028,2819 2028,2820 2027,2820 2027,2820 2027,2820 2026,2820 2026,2819 2026,2819 2026,2794 2026,2794 2026,2794 2027,2793 2027,2793 2027,2793 2028,2794 2028,2794 2028,2794 2028,2794 z M 2028,2834  L 2028,2859 2028,2859 2028,2860 2027,2860 2026,2860 2026,2859 2026,2859 2026,2834 2026,2834 2026,2833 2027,2833 2027,2833 2027,2833 2028,2833 2028,2834 2028,2834 2028,2834 z M 2028,2874  L 2028,2899 2028,2899 2028,2900 2027,2900 2027,2900 2027,2900 2026,2900 2026,2899 2026,2899 2026,2874 2026,2874 2026,2873 2027,2873 2027,2873 2027,2873 2028,2873 2028,2874 2028,2874 2028,2874 z M 2028,2914  L 2028,2938 2028,2939 2028,2939 2027,2939 2027,2939 2027,2939 2026,2939 2026,2939 2026,2938 2026,2914 2026,2913 2026,2913 2027,2913 2027,2913 2027,2913 2028,2913 2028,2913 2028,2914 2028,2914 z M 2028,2954  L 2028,2978 2028,2979 2028,2979 2027,2979 2027,2979 2027,2979 2026,2979 2026,2979 2026,2978 2026,2954 2026,2953 2026,2953 2027,2952 2027,2952 2027,2952 2028,2953 2028,2953 2028,2954 2028,2954 z M 2028,2993  L 2028,3018 2028,3018 2028,3019 2027,3019 2027,3019 2027,3019 2026,3019 2026,3018 2026,3018 2026,2993 2026,2993 2026,2993 2027,2992 2027,2992 2027,2992 2028,2993 2028,2993 2028,2993 2028,2993 z M 2028,3033  L 2028,3058 2028,3058 2028,3059 2027,3059 2026,3059 2026,3058 2026,3058 2026,3033 2026,3033 2026,3032 2027,3032 2027,3032 2027,3032 2028,3032 2028,3033 2028,3033 2028,3033 z M 2028,3073  L 2028,3098 2028,3098 2028,3099 2027,3099 2027,3099 2027,3099 2026,3099 2026,3098 2026,3098 2026,3073 2026,3073 2026,3072 2027,3072 2027,3072 2027,3072 2028,3072 2028,3073 2028,3073 2028,3073 z M 2028,3113  L 2028,3138 2028,3138 2028,3138 2027,3139 2027,3139 2027,3139 2026,3138 2026,3138 2026,3138 2026,3113 2026,3112 2026,3112 2027,3112 2027,3112 2027,3112 2028,3112 2028,3112 2028,3113 2028,3113 z M 2028,3153  L 2028,3178 2028,3178 2028,3178 2027,3178 2027,3179 2027,3178 2026,3178 2026,3178 2026,3178 2026,3153 2026,3152 2026,3152 2027,3152 2027,3152 2027,3152 2028,3152 2028,3152 2028,3153 2028,3153 z M 2028,3193  L 2028,3215 2028,3215 2028,3215 2027,3216 2027,3216 2027,3216 2026,3215 2026,3215 2026,3215 2026,3193 2026,3192 2026,3192 2027,3192 2027,3192 2027,3192 2028,3192 2028,3192 2028,3193 2028,3193 z" fill-rule="nonzero"/>
        <polyline class="pen2" fill="none" points="1001,3066 1986,3066"/>
        <polygon class="pen1 brush2" points="1981,3046 2020,3066 1981,3085 1981,3046"/>
        <text class="font1" fill="rgb(0,0,0)" stroke="none" style="dominant-baseline: alphabetic;" x="1110 1137 1168 1198 1226" xml:lang="en" xml:space="preserve" y="3053">spec </text>
        <text class="font1" fill="rgb(0,0,0)" stroke="none" style="dominant-baseline: alphabetic;" x="1242 1274" xml:lang="en" xml:space="preserve" y="3053">= </text>
        <text class="font1" fill="rgb(0,0,0)" stroke="none" style="dominant-baseline: alphabetic;" x="1289 1320 1351 1366 1403 1422 1452 1483 1513 1541 1556 1593 1624 1654" xml:lang="en" xml:space="preserve" y="3053">getProductSpec</text>
        <text class="font1" fill="rgb(0,0,0)" stroke="none" style="dominant-baseline: alphabetic;" x="1683 1701" xml:lang="en" xml:space="preserve" y="3053">( </text>
        <text class="font1" fill="rgb(0,0,0)" stroke="none" style="dominant-baseline: alphabetic;" x="1716 1729 1744 1775 1821 1837 1877" xml:lang="en" xml:space="preserve" y="3053">itemID </text>
        <text class="font1" fill="rgb(0,0,0)" stroke="none" style="dominant-baseline: alphabetic;" x="1891" xml:lang="en" xml:space="preserve" y="3053">)</text>
        <polyline class="pen2" fill="none" points="1001,3190 2585,3190"/>
        <polygon class="pen1 brush2" points="2580,3171 2618,3190 2580,3209 2580,3171"/>
        <text class="font1" fill="rgb(0,0,0)" stroke="none" style="dominant-baseline: alphabetic;" x="1234 1264 1295 1326 1356 1369 1399 1430 1445 1461 1491" xml:lang="en" xml:space="preserve" y="3178">addLineItem</text>
        <text class="font1" fill="rgb(0,0,0)" stroke="none" style="dominant-baseline: alphabetic;" x="1538 1557" xml:lang="en" xml:space="preserve" y="3178">( </text>
        <text class="font1" fill="rgb(0,0,0)" stroke="none" style="dominant-baseline: alphabetic;" x="1572 1599 1630 1660" xml:lang="en" xml:space="preserve" y="3178">spec</text>
        <text class="font1" fill="rgb(0,0,0)" stroke="none" style="dominant-baseline: alphabetic;" x="1688 1704" xml:lang="en" xml:space="preserve" y="3178">, </text>
        <text class="font1" fill="rgb(0,0,0)" stroke="none" style="dominant-baseline: alphabetic;" x="1720 1750 1781 1811 1842 1857 1870 1885 1913" xml:lang="en" xml:space="preserve" y="3178">quantity </text>
        <text class="font1" fill="rgb(0,0,0)" stroke="none" style="dominant-baseline: alphabetic;" x="1928" xml:lang="en" xml:space="preserve" y="3178">)</text>
        <polygon class="pen2 brush1" points="2471,2745 2759,2745 2759,2639 2471,2639 2471,2745"/>
        <text class="font1" fill="rgb(0,0,0)" stroke="none" style="dominant-baseline: alphabetic;" x="2544 2559" xml:lang="en" xml:space="preserve" y="2709">: </text>
        <text class="font1" fill="rgb(0,0,0)" stroke="none" style="dominant-baseline: alphabetic;" x="2575 2612 2642 2655" xml:lang="en" xml:space="preserve" y="2709">Sale</text>
        <path class="pen0 brush2" d="M 2619,2754  L 2619,2779 2619,2780 2619,2780 2618,2780 2618,2780 2618,2780 2617,2780 2617,2780 2617,2779 2617,2754 2617,2754 2617,2754 2618,2753 2618,2753 2618,2753 2619,2754 2619,2754 2619,2754 2619,2754 z M 2619,2794  L 2619,2819 2619,2819 2619,2820 2618,2820 2618,2820 2618,2820 2617,2820 2617,2819 2617,2819 2617,2794 2617,2794 2617,2794 2618,2793 2618,2793 2618,2793 2619,2794 2619,2794 2619,2794 2619,2794 z M 2619,2834  L 2619,2859 2619,2859 2619,2860 2618,2860 2617,2860 2617,2859 2617,2859 2617,2834 2617,2834 2617,2833 2618,2833 2618,2833 2618,2833 2619,2833 2619,2834 2619,2834 2619,2834 z M 2619,2874  L 2619,2899 2619,2899 2619,2900 2618,2900 2618,2900 2618,2900 2617,2900 2617,2899 2617,2899 2617,2874 2617,2874 2617,2873 2618,2873 2618,2873 2618,2873 2619,2873 2619,2874 2619,2874 2619,2874 z M 2619,2914  L 2619,2938 2619,2939 2619,2939 2618,2939 2618,2939 2618,2939 2617,2939 2617,2939 2617,2938 2617,2914 2617,2913 2617,2913 2618,2913 2618,2913 2618,2913 2619,2913 2619,2913 2619,2914 2619,2914 z M 2619,2954  L 2619,2978 2619,2979 2619,2979 2618,2979 2618,2979 2618,2979 2617,2979 2617,2979 2617,2978 2617,2954 2617,2953 2617,2953 2618,2952 2618,2952 2618,2952 2619,2953 2619,2953 2619,2954 2619,2954 z M 2619,2993  L 2619,3018 2619,3018 2619,3019 2618,3019 2618,3019 2618,3019 2617,3019 2617,3018 2617,3018 2617,2993 2617,2993 2617,2993 2618,2992 2618,2992 2618,2992 2619,2993 2619,2993 2619,2993 2619,2993 z M 2619,3033  L 2619,3058 2619,3058 2619,3059 2618,3059 2617,3059 2617,3058 2617,3058 2617,3033 2617,3033 2617,3032 2618,3032 2618,3032 2618,3032 2619,3032 2619,3033 2619,3033 2619,3033 z M 2619,3073  L 2619,3098 2619,3098 2619,3099 2618,3099 2618,3099 2618,3099 2617,3099 2617,3098 2617,3098 2617,3073 2617,3073 2617,3072 2618,3072 2618,3072 2618,3072 2619,3072 2619,3073 2619,3073 2619,3073 z M 2619,3113  L 2619,3138 2619,3138 2619,3138 2618,3139 2618,3139 2618,3139 2617,3138 2617,3138 2617,3138 2617,3113 2617,3112 2617,3112 2618,3112 2618,3112 2618,3112 2619,3112 2619,3112 2619,3113 2619,3113 z M 2619,3153  L 2619,3178 2619,3178 2619,3178 2618,3178 2618,3179 2618,3178 2617,3178 2617,3178 2617,3178 2617,3153 2617,3152 2617,3152 2618,3152 2618,3152 2618,3152 2619,3152 2619,3152 2619,3153 2619,3153 z M 2619,3193  L 2619,3215 2619,3215 2619,3215 2618,3216 2618,3216 2618,3216 2617,3215 2617,3215 2617,3215 2617,3193 2617,3192 2617,3192 2618,3192 2618,3192 2618,3192 2619,3192 2619,3192 2619,3193 2619,3193 z" fill-rule="nonzero"/>
        <polyline class="pen2" fill="none" points="289,1876 276,1912 263,1948 251,1984 239,2020 229,2056 219,2092 210,2127 202,2162 195,2196 188,2230 183,2264 178,2297 173,2329 170,2361 168,2393 166,2423 165,2453 165,2481 165,2510 167,2537 169,2563 172,2589 176,2613 180,2636 186,2658 192,2679 199,2699 207,2717 216,2735 225,2751 230,2758 236,2765 241,2772 247,2778"/>
        <polygon class="pen1 brush2" points="232,2791 289,2810 255,2760 232,2791"/>
        <text class="font1" fill="rgb(0,0,0)" stroke="none" style="dominant-baseline: alphabetic;" x="1368 1398 1429 1441 1472 1499 1515" xml:lang="en" xml:space="preserve" y="645">objects</text>
        <text class="font1" fill="rgb(0,0,0)" stroke="none" style="dominant-baseline: alphabetic;" x="1543 1558" xml:lang="en" xml:space="preserve" y="645">, </text>
        <text class="font1" fill="rgb(0,0,0)" stroke="none" style="dominant-baseline: alphabetic;" x="1573 1604 1620 1635 1654 1666 1697 1727 1743 1773" xml:lang="en" xml:space="preserve" y="645">attributes</text>
        <text class="font1" fill="rgb(0,0,0)" stroke="none" style="dominant-baseline: alphabetic;" x="1801 1816" xml:lang="en" xml:space="preserve" y="645">, </text>
        <text class="font1" fill="rgb(0,0,0)" stroke="none" style="dominant-baseline: alphabetic;" x="1512 1542 1570 1597 1628 1655 1668 1698 1714 1726 1757 1787" xml:lang="en" xml:space="preserve" y="711">associations</text>
        <text class="font4" fill="rgb(0,0,0)" stroke="none" style="dominant-baseline: alphabetic;" x="26 66 96 130 164 179 201" xml:lang="en" xml:space="preserve" y="1485">Require</text>
        <text class="font4" fill="rgb(0,0,0)" stroke="none" style="dominant-baseline: alphabetic;" x="231" xml:lang="en" xml:space="preserve" y="1485">-</text>
        <text class="font4" fill="rgb(0,0,0)" stroke="none" style="dominant-baseline: alphabetic;" x="87 137 167 201 220" xml:lang="en" xml:space="preserve" y="1552">ments</text>
        <text class="font4" fill="rgb(0,0,0)" stroke="none" style="dominant-baseline: alphabetic;" x="13 53 86 117 133 166 197 227 258" xml:lang="en" xml:space="preserve" y="328">Business </text>
        <text class="font4" fill="rgb(0,0,0)" stroke="none" style="dominant-baseline: alphabetic;" x="16 62 96 129 160 176 191 225" xml:lang="en" xml:space="preserve" y="395">Modeling</text>
        <text class="font4" fill="rgb(0,0,0)" stroke="none" style="dominant-baseline: alphabetic;" x="77 117 148 178 194 227" xml:lang="en" xml:space="preserve" y="2951">Design</text>
        <text class="font4" fill="rgb(0,0,0)" stroke="none" style="dominant-baseline: alphabetic;" x="1095 1132 1162 1212 1245 1261 1291 1307 1347 1384 1399 1439 1461 1480 1495 1514 1544 1575 1594 1609 1649 1680 1695 1726 1744 1760 1794 1827 1858 1892 1907 1941" xml:lang="en" xml:space="preserve" y="71">Sample UP Artifact Relationships</text>
        <path class="pen0 brush2" d="M 1738,1875  L 1738,1900 1737,1900 1737,1900 1737,1900 1737,1901 1736,1900 1736,1900 1736,1900 1736,1900 1736,1875 1736,1874 1736,1874 1736,1874 1737,1874 1737,1874 1737,1874 1737,1874 1738,1875 1738,1875 z M 1738,1915  L 1738,1940 1737,1940 1737,1940 1737,1940 1737,1940 1736,1940 1736,1940 1736,1940 1736,1940 1736,1915 1736,1914 1736,1914 1736,1914 1737,1914 1737,1914 1737,1914 1737,1914 1738,1915 1738,1915 z M 1738,1955  L 1738,1979 1737,1979 1737,1980 1737,1980 1737,1980 1736,1980 1736,1980 1736,1979 1736,1979 1736,1955 1736,1954 1736,1954 1736,1954 1737,1954 1737,1954 1737,1954 1737,1954 1738,1955 1738,1955 z M 1738,1994  L 1738,2019 1737,2019 1737,2019 1737,2020 1737,2020 1736,2020 1736,2019 1736,2019 1736,2019 1736,1994 1736,1994 1736,1994 1736,1994 1737,1994 1737,1994 1737,1994 1737,1994 1738,1994 1738,1994 z M 1738,2034  L 1738,2059 1737,2059 1737,2059 1737,2060 1736,2059 1736,2059 1736,2059 1736,2034 1736,2033 1736,2033 1737,2033 1737,2033 1737,2033 1738,2034 1738,2034 z M 1738,2074  L 1738,2099 1737,2099 1737,2099 1737,2099 1737,2100 1736,2099 1736,2099 1736,2099 1736,2099 1736,2074 1736,2073 1736,2073 1736,2073 1737,2073 1737,2073 1737,2073 1737,2073 1738,2074 1738,2074 z M 1738,2114  L 1738,2139 1737,2139 1737,2139 1737,2139 1737,2139 1736,2139 1736,2139 1736,2139 1736,2139 1736,2114 1736,2113 1736,2113 1736,2113 1737,2113 1737,2113 1737,2113 1737,2113 1738,2114 1738,2114 z M 1738,2154  L 1738,2179 1737,2179 1737,2179 1737,2179 1737,2179 1736,2179 1736,2179 1736,2179 1736,2179 1736,2154 1736,2153 1736,2153 1736,2153 1737,2153 1737,2153 1737,2153 1737,2153 1738,2154 1738,2154 z M 1738,2193  L 1738,2218 1737,2219 1737,2219 1737,2219 1737,2219 1736,2219 1736,2219 1736,2219 1736,2218 1736,2193 1736,2193 1736,2193 1736,2193 1737,2193 1737,2193 1737,2193 1737,2193 1738,2193 1738,2193 z M 1738,2233  L 1738,2258 1737,2259 1737,2259 1737,2259 1736,2259 1736,2259 1736,2258 1736,2233 1736,2233 1736,2233 1737,2233 1737,2233 1737,2233 1738,2233 1738,2233 z M 1738,2273  L 1738,2298 1737,2298 1737,2299 1737,2299 1737,2299 1736,2299 1736,2299 1736,2298 1736,2298 1736,2273 1736,2273 1736,2273 1736,2272 1737,2272 1737,2272 1737,2273 1737,2273 1738,2273 1738,2273 z" fill-rule="nonzero"/>
        <polygon class="pen2 brush1" points="1564,1875 1875,1875 1875,1768 1564,1768 1564,1875"/>
        <text class="font1" fill="rgb(0,0,0)" stroke="none" style="dominant-baseline: alphabetic;" x="1612 1627" xml:lang="en" xml:space="preserve" y="1838">: </text>
        <text class="font1" fill="rgb(0,0,0)" stroke="none" style="dominant-baseline: alphabetic;" x="1642 1679 1707 1734 1750 1780" xml:lang="en" xml:space="preserve" y="1838">System</text>
        <polyline class="pen2" fill="none" points="1236,2258 1700,2258"/>
        <polygon class="pen1 brush2" points="1695,2239 1734,2258 1695,2277 1695,2239"/>
        <text class="font1" fill="rgb(0,0,0)" stroke="none" style="dominant-baseline: alphabetic;" x="1358 1389 1419 1435 1466 1484 1500 1515 1546" xml:lang="en" xml:space="preserve" y="2183">enterItem</text>
        <text class="font1" fill="rgb(0,0,0)" stroke="none" style="dominant-baseline: alphabetic;" x="1323" xml:lang="en" xml:space="preserve" y="2249">(</text>
        <text class="font1" fill="rgb(0,0,0)" stroke="none" style="dominant-baseline: alphabetic;" x="1341 1354" xml:lang="en" xml:space="preserve" y="2249">id</text>
        <text class="font1" fill="rgb(0,0,0)" stroke="none" style="dominant-baseline: alphabetic;" x="1384 1400" xml:lang="en" xml:space="preserve" y="2249">, </text>
        <text class="font1" fill="rgb(0,0,0)" stroke="none" style="dominant-baseline: alphabetic;" x="1415 1445 1476 1507 1537 1553 1565 1581" xml:lang="en" xml:space="preserve" y="2249">quantity</text>
        <text class="font1" fill="rgb(0,0,0)" stroke="none" style="dominant-baseline: alphabetic;" x="1609" xml:lang="en" xml:space="preserve" y="2249">)</text>
        <text class="font4" fill="rgb(0,0,0)" stroke="none" style="dominant-baseline: alphabetic;" x="1287 1327 1357 1388 1403 1443 1474 1504 1535 1551 1584 1615 1645" xml:lang="en" xml:space="preserve" y="1517">Use Case Text</text>
        <text class="font1" fill="rgb(0,0,0)" stroke="none" style="dominant-baseline: alphabetic;" x="1120 1157 1185 1212 1228 1258 1304 1320 1357 1387 1418 1448 1479 1510 1537 1568 1583 1623 1636 1666 1697 1715 1746 1792" xml:lang="en" xml:space="preserve" y="2378">System Sequence Diagrams</text>
        <polyline class="pen2" fill="none" points="1242,2080 1706,2080"/>
        <polygon class="pen1 brush2" points="1701,2060 1740,2080 1701,2098 1701,2060"/>
        <text class="font1" fill="rgb(0,0,0)" stroke="none" style="dominant-baseline: alphabetic;" x="1407 1453 1484 1511" xml:lang="en" xml:space="preserve" y="1996">make</text>
        <text class="font1" fill="rgb(0,0,0)" stroke="none" style="dominant-baseline: alphabetic;" x="1346 1386 1416 1456 1493 1524 1536" xml:lang="en" xml:space="preserve" y="2063">NewSale</text>
        <text class="font1" fill="rgb(0,0,0)" stroke="none" style="dominant-baseline: alphabetic;" x="1567 1586" xml:lang="en" xml:space="preserve" y="2063">()</text>
        <polyline class="pen2" fill="none" points="1440,1580 1440,1714"/>
        <polygon class="pen1 brush2" points="1459,1710 1440,1767 1420,1710 1459,1710"/>
        <text class="font5" fill="rgb(0,0,0)" stroke="none" style="dominant-baseline: alphabetic;" x="1464 1491 1519 1546 1562 1593 1639" xml:lang="en" xml:space="preserve" y="1626">system </text>
        <text class="font5" fill="rgb(0,0,0)" stroke="none" style="dominant-baseline: alphabetic;" x="1470 1501 1528 1559 1589 1605" xml:lang="en" xml:space="preserve" y="1692">events</text>
        <polygon class="pen1 brush0" points="391,997 391,994 392,990 393,988 394,985 395,982 396,980 398,977 400,975 403,973 405,971 407,970 410,969 413,968 415,967 419,966 422,966 425,966 428,967 431,968 434,969 436,970 439,971 441,973 443,975 446,977 447,980 449,982 450,985 451,988 452,990 452,994 452,997 452,997 452,1000 452,1003 451,1006 450,1009 449,1011 447,1014 446,1016 443,1018 441,1021 439,1022 436,1024 434,1025 431,1026 428,1027 425,1027 422,1027 419,1027 415,1027 413,1026 410,1025 407,1024 405,1022 403,1021 400,1018 398,1016 396,1014 395,1011 394,1009 393,1006 392,1003 391,1000 391,997"/>
        <polyline class="pen2" fill="none" points="391,997 391,994 392,990 393,988 394,985 395,982 396,980 398,977 400,975 403,973 405,971 407,970 410,969 413,968 415,967 419,966 422,966 425,966 428,967 431,968 434,969 436,970 439,971 441,973 443,975 446,977 447,980 449,982 450,985 451,988 452,990 452,994 452,997 452,997 452,1000 452,1003 451,1006 450,1009 449,1011 447,1014 446,1016 443,1018 441,1021 439,1022 436,1024 434,1025 431,1026 428,1027 425,1027 422,1027 419,1027 415,1027 413,1026 410,1025 407,1024 405,1022 403,1021 400,1018 398,1016 396,1014 395,1011 394,1009 393,1006 392,1003 391,1000 391,997"/>
        <polyline class="pen2" fill="none" points="381,1038 463,1038"/>
        <polyline class="pen2" fill="none" points="422,1028 422,1068"/>
        <polyline class="pen2" fill="none" points="422,1068 381,1109"/>
        <polyline class="pen2" fill="none" points="422,1068 463,1109"/>
        <text class="font6" fill="rgb(0,0,0)" stroke="none" style="dominant-baseline: alphabetic;" x="362 387 406 423 442 450 469" xml:lang="en" xml:space="preserve" y="1144">Cashier</text>
        <polygon class="pen2 brush1" points="333,1444 909,1444 909,867 333,867 333,1444"/>
        <polygon class="pen1 brush0" points="391,1229 391,1226 392,1222 393,1220 394,1217 395,1214 396,1211 398,1209 400,1207 403,1205 405,1203 407,1202 410,1201 413,1200 415,1199 419,1199 422,1198 425,1199 428,1199 431,1200 434,1201 436,1202 439,1203 441,1205 443,1207 446,1209 447,1211 449,1214 450,1217 451,1220 452,1222 452,1226 452,1229 452,1229 452,1232 452,1235 451,1238 450,1241 449,1244 447,1246 446,1248 443,1250 441,1252 439,1254 436,1256 434,1257 431,1258 428,1259 425,1259 422,1260 419,1259 415,1259 413,1258 410,1257 407,1256 405,1254 403,1252 400,1250 398,1248 396,1246 395,1244 394,1241 393,1238 392,1235 391,1232 391,1229"/>
        <polyline class="pen2" fill="none" points="391,1229 391,1226 392,1222 393,1220 394,1217 395,1214 396,1211 398,1209 400,1207 403,1205 405,1203 407,1202 410,1201 413,1200 415,1199 419,1199 422,1198 425,1199 428,1199 431,1200 434,1201 436,1202 439,1203 441,1205 443,1207 446,1209 447,1211 449,1214 450,1217 451,1220 452,1222 452,1226 452,1229 452,1229 452,1232 452,1235 451,1238 450,1241 449,1244 447,1246 446,1248 443,1250 441,1252 439,1254 436,1256 434,1257 431,1258 428,1259 425,1259 422,1260 419,1259 415,1259 413,1258 410,1257 407,1256 405,1254 403,1252 400,1250 398,1248 396,1246 395,1244 394,1241 393,1238 392,1235 391,1232 391,1229"/>
        <polyline class="pen2" fill="none" points="381,1270 463,1270"/>
        <polyline class="pen2" fill="none" points="422,1260 422,1300"/>
        <polyline class="pen2" fill="none" points="422,1300 381,1341"/>
        <polyline class="pen2" fill="none" points="422,1300 463,1341"/>
        <polygon class="pen1 brush0" points="599,1023 599,1020 599,1018 600,1016 601,1013 602,1011 604,1009 605,1007 607,1005 609,1003 611,1001 613,999 616,998 619,996 622,994 625,993 628,991 632,989 635,988 639,987 643,986 647,985 651,983 660,982 669,980 679,979 689,978 698,978 709,978 719,979 729,980 737,982 746,983 750,985 754,986 758,987 762,988 766,989 769,991 773,993 776,994 778,996 781,998 784,999 786,1001 789,1003 791,1005 792,1007 794,1009 795,1011 796,1013 797,1016 798,1018 798,1020 799,1023 799,1023 798,1025 798,1027 797,1029 796,1031 795,1034 794,1036 792,1038 791,1040 789,1042 786,1043 784,1045 781,1047 778,1049 776,1051 773,1052 769,1054 766,1055 762,1057 758,1058 754,1059 750,1060 746,1062 737,1063 729,1065 719,1066 709,1067 698,1067 689,1067 679,1066 669,1065 660,1063 651,1062 647,1060 643,1059 639,1058 635,1057 632,1055 628,1054 625,1052 622,1051 619,1049 616,1047 613,1045 611,1043 609,1042 607,1040 605,1038 604,1036 602,1034 601,1031 600,1029 599,1027 599,1025 599,1023"/>
        <polyline class="pen2" fill="none" points="599,1023 599,1020 599,1018 600,1016 601,1013 602,1011 604,1009 605,1007 607,1005 609,1003 611,1001 613,999 616,998 619,996 622,994 625,993 628,991 632,989 635,988 639,987 643,986 647,985 651,983 660,982 669,980 679,979 689,978 698,978 709,978 719,979 729,980 737,982 746,983 750,985 754,986 758,987 762,988 766,989 769,991 773,993 776,994 778,996 781,998 784,999 786,1001 789,1003 791,1005 792,1007 794,1009 795,1011 796,1013 797,1016 798,1018 798,1020 799,1023 799,1023 798,1025 798,1027 797,1029 796,1031 795,1034 794,1036 792,1038 791,1040 789,1042 786,1043 784,1045 781,1047 778,1049 776,1051 773,1052 769,1054 766,1055 762,1057 758,1058 754,1059 750,1060 746,1062 737,1063 729,1065 719,1066 709,1067 698,1067 689,1067 679,1066 669,1065 660,1063 651,1062 647,1060 643,1059 639,1058 635,1057 632,1055 628,1054 625,1052 622,1051 619,1049 616,1047 613,1045 611,1043 609,1042 607,1040 605,1038 604,1036 602,1034 601,1031 600,1029 599,1027 599,1025 599,1023"/>
        <text class="font6" fill="rgb(0,0,0)" stroke="none" style="dominant-baseline: alphabetic;" x="636 659 671 690 707 726 743 760" xml:lang="en" xml:space="preserve" y="1012">Process </text>
        <text class="font6" fill="rgb(0,0,0)" stroke="none" style="dominant-baseline: alphabetic;" x="664 687 706 714" xml:lang="en" xml:space="preserve" y="1054">Sale</text>
        <polygon class="pen1 brush0" points="577,1178 577,1175 577,1173 578,1171 579,1169 580,1166 581,1164 583,1162 584,1160 587,1159 589,1156 591,1154 594,1153 596,1151 599,1149 603,1148 606,1146 609,1145 613,1144 617,1142 621,1141 625,1140 629,1139 638,1137 647,1135 657,1134 666,1134 677,1133 687,1134 696,1134 706,1135 715,1137 724,1139 728,1140 732,1141 736,1142 740,1144 744,1145 747,1146 750,1148 753,1149 757,1151 759,1153 762,1154 764,1156 766,1159 768,1160 770,1162 772,1164 773,1166 774,1169 775,1171 776,1173 776,1175 776,1178 776,1178 776,1180 776,1182 775,1185 774,1187 773,1189 772,1191 770,1193 768,1195 766,1197 764,1199 762,1201 759,1203 757,1204 753,1206 750,1207 747,1209 744,1210 740,1212 736,1213 732,1215 728,1216 724,1217 715,1219 706,1220 696,1221 687,1222 677,1222 666,1222 657,1221 647,1220 638,1219 629,1217 625,1216 621,1215 617,1213 613,1212 609,1210 606,1209 603,1207 599,1206 596,1204 594,1203 591,1201 589,1199 587,1197 584,1195 583,1193 581,1191 580,1189 579,1187 578,1185 577,1182 577,1180 577,1178"/>
        <polyline class="pen2" fill="none" points="577,1178 577,1175 577,1173 578,1171 579,1169 580,1166 581,1164 583,1162 584,1160 587,1159 589,1156 591,1154 594,1153 596,1151 599,1149 603,1148 606,1146 609,1145 613,1144 617,1142 621,1141 625,1140 629,1139 638,1137 647,1135 657,1134 666,1134 677,1133 687,1134 696,1134 706,1135 715,1137 724,1139 728,1140 732,1141 736,1142 740,1144 744,1145 747,1146 750,1148 753,1149 757,1151 759,1153 762,1154 764,1156 766,1159 768,1160 770,1162 772,1164 773,1166 774,1169 775,1171 776,1173 776,1175 776,1178 776,1178 776,1180 776,1182 775,1185 774,1187 773,1189 772,1191 770,1193 768,1195 766,1197 764,1199 762,1201 759,1203 757,1204 753,1206 750,1207 747,1209 744,1210 740,1212 736,1213 732,1215 728,1216 724,1217 715,1219 706,1220 696,1221 687,1222 677,1222 666,1222 657,1221 647,1220 638,1219 629,1217 625,1216 621,1215 617,1213 613,1212 609,1210 606,1209 603,1207 599,1206 596,1204 594,1203 591,1201 589,1199 587,1197 584,1195 583,1193 581,1191 580,1189 579,1187 578,1185 577,1182 577,1180 577,1178"/>
        <polygon class="pen1 brush0" points="664,1332 665,1330 665,1327 665,1325 666,1323 667,1321 669,1319 671,1317 672,1315 674,1313 676,1311 679,1309 681,1307 684,1305 687,1304 690,1302 694,1301 697,1299 701,1298 705,1296 708,1295 712,1294 717,1293 725,1291 734,1289 744,1288 754,1288 764,1288 774,1288 784,1288 794,1289 803,1291 811,1293 816,1294 820,1295 824,1296 828,1298 831,1299 835,1301 838,1302 841,1304 844,1305 847,1307 849,1309 852,1311 854,1313 856,1315 858,1317 859,1319 861,1321 862,1323 863,1325 863,1327 864,1330 864,1332 864,1332 864,1334 863,1337 863,1339 862,1341 861,1343 859,1345 858,1347 856,1349 854,1351 852,1353 849,1355 847,1357 844,1358 841,1360 838,1361 835,1363 831,1365 828,1366 824,1367 820,1369 816,1370 811,1371 803,1373 794,1374 784,1375 774,1376 764,1376 754,1376 744,1375 734,1374 725,1373 717,1371 712,1370 708,1369 705,1367 701,1366 697,1365 694,1363 690,1361 687,1360 684,1358 681,1357 679,1355 676,1353 674,1351 672,1349 671,1347 669,1345 667,1343 666,1341 665,1339 665,1337 665,1334 664,1332"/>
        <polyline class="pen2" fill="none" points="664,1332 665,1330 665,1327 665,1325 666,1323 667,1321 669,1319 671,1317 672,1315 674,1313 676,1311 679,1309 681,1307 684,1305 687,1304 690,1302 694,1301 697,1299 701,1298 705,1296 708,1295 712,1294 717,1293 725,1291 734,1289 744,1288 754,1288 764,1288 774,1288 784,1288 794,1289 803,1291 811,1293 816,1294 820,1295 824,1296 828,1298 831,1299 835,1301 838,1302 841,1304 844,1305 847,1307 849,1309 852,1311 854,1313 856,1315 858,1317 859,1319 861,1321 862,1323 863,1325 863,1327 864,1330 864,1332 864,1332 864,1334 863,1337 863,1339 862,1341 861,1343 859,1345 858,1347 856,1349 854,1351 852,1353 849,1355 847,1357 844,1358 841,1360 838,1361 835,1363 831,1365 828,1366 824,1367 820,1369 816,1370 811,1371 803,1373 794,1374 784,1375 774,1376 764,1376 754,1376 744,1375 734,1374 725,1373 717,1371 712,1370 708,1369 705,1367 701,1366 697,1365 694,1363 690,1361 687,1360 684,1358 681,1357 679,1355 676,1353 674,1351 672,1349 671,1347 669,1345 667,1343 666,1341 665,1339 665,1337 665,1334 664,1332"/>
        <polyline class="pen2" fill="none" points="488,1044 599,1023"/>
        <polyline class="pen2" fill="none" points="477,1266 665,1333"/>
        <polyline class="pen2" fill="none" points="477,1266 599,1205"/>
        <polyline class="pen2" fill="none" points="488,1044 599,1145"/>
        <path class="pen0 brush2" d="M 1236,1951  L 1236,1976 1236,1976 1236,1977 1235,1977 1235,1977 1235,1977 1234,1977 1234,1976 1234,1976 1234,1951 1234,1951 1234,1951 1235,1950 1235,1950 1235,1950 1236,1951 1236,1951 1236,1951 1236,1951 z M 1236,1991  L 1236,2016 1236,2016 1236,2017 1235,2017 1235,2017 1235,2017 1234,2017 1234,2016 1234,2016 1234,1991 1234,1991 1234,1990 1235,1990 1235,1990 1235,1990 1236,1990 1236,1991 1236,1991 1236,1991 z M 1236,2031  L 1236,2056 1236,2056 1236,2057 1235,2057 1235,2057 1235,2057 1234,2057 1234,2056 1234,2056 1234,2031 1234,2031 1234,2030 1235,2030 1235,2030 1235,2030 1236,2030 1236,2031 1236,2031 1236,2031 z M 1236,2071  L 1236,2096 1236,2096 1236,2096 1235,2097 1235,2097 1235,2097 1234,2096 1234,2096 1234,2096 1234,2071 1234,2071 1234,2070 1235,2070 1235,2070 1235,2070 1236,2070 1236,2071 1236,2071 1236,2071 z M 1236,2111  L 1236,2136 1236,2136 1236,2136 1235,2137 1234,2136 1234,2136 1234,2136 1234,2111 1234,2110 1234,2110 1235,2110 1235,2110 1235,2110 1236,2110 1236,2110 1236,2111 1236,2111 z M 1236,2151  L 1236,2176 1236,2176 1236,2176 1235,2176 1235,2177 1235,2176 1234,2176 1234,2176 1234,2176 1234,2151 1234,2150 1234,2150 1235,2150 1235,2150 1235,2150 1236,2150 1236,2150 1236,2151 1236,2151 z M 1236,2191  L 1236,2216 1236,2216 1236,2216 1235,2216 1235,2216 1235,2216 1234,2216 1234,2216 1234,2216 1234,2191 1234,2190 1234,2190 1235,2190 1235,2190 1235,2190 1236,2190 1236,2190 1236,2191 1236,2191 z M 1236,2231  L 1236,2256 1236,2256 1236,2256 1235,2256 1235,2256 1235,2256 1234,2256 1234,2256 1234,2256 1234,2231 1234,2230 1234,2230 1235,2230 1235,2230 1235,2230 1236,2230 1236,2230 1236,2231 1236,2231 z M 1236,2270  L 1236,2295 1236,2296 1236,2296 1235,2296 1235,2296 1235,2296 1234,2296 1234,2296 1234,2295 1234,2270 1234,2270 1234,2270 1235,2270 1235,2270 1235,2270 1236,2270 1236,2270 1236,2270 1236,2270 z" fill-rule="nonzero"/>
        <polygon class="pen1 brush0" points="1189,1760 1189,1757 1189,1754 1190,1751 1191,1748 1192,1745 1194,1743 1196,1740 1198,1738 1200,1736 1203,1735 1205,1733 1208,1731 1211,1730 1214,1730 1217,1729 1220,1729 1223,1729 1226,1730 1229,1730 1232,1731 1235,1733 1238,1735 1240,1736 1242,1738 1244,1740 1246,1743 1247,1745 1248,1748 1249,1751 1250,1754 1251,1757 1251,1760 1251,1760 1251,1764 1250,1766 1249,1769 1248,1772 1247,1775 1246,1778 1244,1780 1242,1782 1240,1784 1238,1786 1235,1787 1232,1789 1229,1790 1226,1791 1223,1791 1220,1791 1217,1791 1214,1791 1211,1790 1208,1789 1205,1787 1203,1786 1200,1784 1198,1782 1196,1780 1194,1778 1192,1775 1191,1772 1190,1769 1189,1766 1189,1764 1189,1760"/>
        <polyline class="pen2" fill="none" points="1189,1760 1189,1757 1189,1754 1190,1751 1191,1748 1192,1745 1194,1743 1196,1740 1198,1738 1200,1736 1203,1735 1205,1733 1208,1731 1211,1730 1214,1730 1217,1729 1220,1729 1223,1729 1226,1730 1229,1730 1232,1731 1235,1733 1238,1735 1240,1736 1242,1738 1244,1740 1246,1743 1247,1745 1248,1748 1249,1751 1250,1754 1251,1757 1251,1760 1251,1760 1251,1764 1250,1766 1249,1769 1248,1772 1247,1775 1246,1778 1244,1780 1242,1782 1240,1784 1238,1786 1235,1787 1232,1789 1229,1790 1226,1791 1223,1791 1220,1791 1217,1791 1214,1791 1211,1790 1208,1789 1205,1787 1203,1786 1200,1784 1198,1782 1196,1780 1194,1778 1192,1775 1191,1772 1190,1769 1189,1766 1189,1764 1189,1760"/>
        <polyline class="pen2" fill="none" points="1178,1802 1261,1802"/>
        <polyline class="pen2" fill="none" points="1220,1791 1220,1833"/>
        <polyline class="pen2" fill="none" points="1220,1833 1178,1874"/>
        <polyline class="pen2" fill="none" points="1220,1833 1261,1874"/>
        <polygon class="pen1 brush0" points="1085,1895 1085,1978 1355,1978 1355,1895 1085,1895"/>
        <text class="font7" fill="rgb(0,0,0)" stroke="none" style="dominant-baseline: alphabetic;" x="1137 1148" xml:lang="en" xml:space="preserve" y="1949">: </text>
        <text class="font7" fill="rgb(0,0,0)" stroke="none" style="dominant-baseline: alphabetic;" x="1160 1190 1213 1233 1256 1266 1288" xml:lang="en" xml:space="preserve" y="1949">Cashier</text>
        <text class="font5" fill="rgb(0,0,0)" stroke="none" style="dominant-baseline: alphabetic;" x="1069 1099 1127 1157" xml:lang="en" xml:space="preserve" y="1035">use </text>
        <text class="font5" fill="rgb(0,0,0)" stroke="none" style="dominant-baseline: alphabetic;" x="1055 1082 1113 1140 1171" xml:lang="en" xml:space="preserve" y="1101">case </text>
        <text class="font5" fill="rgb(0,0,0)" stroke="none" style="dominant-baseline: alphabetic;" x="1030 1061 1091 1137 1168" xml:lang="en" xml:space="preserve" y="1168">names</text>
        <polyline class="pen2" fill="none" points="989,1210 1185,1210"/>
        <polygon class="pen1 brush2" points="1180,1191 1238,1210 1180,1229 1180,1191"/>
        <polyline class="pen2" fill="none" points="1116,2189 920,2189"/>
        <polygon class="pen1 brush2" points="924,2207 867,2189 924,2169 924,2207"/>
        <text class="font5" fill="rgb(0,0,0)" stroke="none" style="dominant-baseline: alphabetic;" x="904 932 959 987 1002 1033 1079" xml:lang="en" xml:space="preserve" y="2061">system </text>
        <text class="font5" fill="rgb(0,0,0)" stroke="none" style="dominant-baseline: alphabetic;" x="863 893 924 955 973 1004 1019 1032 1062 1093" xml:lang="en" xml:space="preserve" y="2128">operations</text>
        <text class="font1" fill="rgb(0,0,0)" stroke="none" style="dominant-baseline: alphabetic;" x="389 428 456 487 502 542 573 600 631 646 686 698 729 760 778 809" xml:lang="en" xml:space="preserve" y="1517">Use Case Diagram</text>
        <polygon class="pen1 brush3" points="2536,829 2536,1000 2707,1000 2707,829 2536,829"/>
        <polygon class="pen2 brush1" points="2536,1000 2707,1000 2707,829 2536,829 2536,1000"/>
        <polygon class="pen1 brush3" points="2676,829 2707,860 2707,829 2676,829"/>
        <polygon class="pen3 brush1" points="2676,829 2707,860 2707,829 2676,829"/>
        <polygon class="pen1 brush3" points="2707,860 2676,829 2676,860 2707,860"/>
        <polygon class="pen2 brush1" points="2707,860 2676,829 2676,860 2707,860"/>
        <polyline class="pen2" fill="none" points="2545,886 2696,886"/>
        <polyline class="pen2" fill="none" points="2547,898 2698,898"/>
        <polyline class="pen2" fill="none" points="2545,912 2696,912"/>
        <polyline class="pen2" fill="none" points="2547,924 2646,924"/>
        <polyline class="pen2" fill="none" points="2545,943 2696,943"/>
        <polyline class="pen2" fill="none" points="2547,955 2698,955"/>
        <polyline class="pen2" fill="none" points="2545,969 2696,969"/>
        <polyline class="pen2" fill="none" points="2547,981 2646,981"/>
        <polygon class="pen1 brush0" points="2672,825 2707,860 2711,821 2672,825"/>
        <text class="font1" fill="rgb(0,0,0)" stroke="none" style="dominant-baseline: alphabetic;" x="2542 2579 2591 2619 2631 2662" xml:lang="en" xml:space="preserve" y="785">Vision</text>
        <polygon class="pen1 brush3" points="2536,2078 2536,2249 2707,2249 2707,2078 2536,2078"/>
        <polygon class="pen2 brush1" points="2536,2249 2707,2249 2707,2078 2536,2078 2536,2249"/>
        <polygon class="pen1 brush3" points="2676,2078 2707,2109 2707,2078 2676,2078"/>
        <polygon class="pen3 brush1" points="2676,2078 2707,2109 2707,2078 2676,2078"/>
        <polygon class="pen1 brush3" points="2707,2109 2676,2078 2676,2109 2707,2109"/>
        <polygon class="pen2 brush1" points="2707,2109 2676,2078 2676,2109 2707,2109"/>
        <polyline class="pen2" fill="none" points="2545,2135 2696,2135"/>
        <polyline class="pen2" fill="none" points="2547,2147 2698,2147"/>
        <polyline class="pen2" fill="none" points="2545,2162 2696,2162"/>
        <polyline class="pen2" fill="none" points="2547,2174 2646,2174"/>
        <polyline class="pen2" fill="none" points="2545,2192 2696,2192"/>
        <polyline class="pen2" fill="none" points="2547,2204 2698,2204"/>
        <polyline class="pen2" fill="none" points="2545,2219 2696,2219"/>
        <polyline class="pen2" fill="none" points="2547,2231 2646,2231"/>
        <polygon class="pen1 brush0" points="2672,2074 2707,2109 2711,2070 2672,2074"/>
        <text class="font1" fill="rgb(0,0,0)" stroke="none" style="dominant-baseline: alphabetic;" x="2420 2457 2487 2518 2548 2561 2591 2637 2668 2699 2714 2745 2763" xml:lang="en" xml:space="preserve" y="2001">Supplementary</text>
        <text class="font1" fill="rgb(0,0,0)" stroke="none" style="dominant-baseline: alphabetic;" x="2449 2486 2516 2547 2574 2587 2602 2615 2642 2673 2688 2701 2731" xml:lang="en" xml:space="preserve" y="2068">Specification</text>
        <polygon class="pen1 brush3" points="2536,1452 2536,1623 2707,1623 2707,1452 2536,1452"/>
        <polygon class="pen2 brush1" points="2536,1623 2707,1623 2707,1452 2536,1452 2536,1623"/>
        <polygon class="pen1 brush3" points="2676,1452 2707,1483 2707,1452 2676,1452"/>
        <polygon class="pen3 brush1" points="2676,1452 2707,1483 2707,1452 2676,1452"/>
        <polygon class="pen1 brush3" points="2707,1483 2676,1452 2676,1483 2707,1483"/>
        <polygon class="pen2 brush1" points="2707,1483 2676,1452 2676,1483 2707,1483"/>
        <polyline class="pen2" fill="none" points="2545,1509 2696,1509"/>
        <polyline class="pen2" fill="none" points="2547,1521 2698,1521"/>
        <polyline class="pen2" fill="none" points="2545,1535 2696,1535"/>
        <polyline class="pen2" fill="none" points="2547,1547 2646,1547"/>
        <polyline class="pen2" fill="none" points="2545,1566 2696,1566"/>
        <polyline class="pen2" fill="none" points="2547,1578 2698,1578"/>
        <polyline class="pen2" fill="none" points="2545,1592 2696,1592"/>
        <polyline class="pen2" fill="none" points="2547,1604 2646,1604"/>
        <polygon class="pen1 brush0" points="2672,1448 2707,1483 2711,1444 2672,1448"/>
        <text class="font1" fill="rgb(0,0,0)" stroke="none" style="dominant-baseline: alphabetic;" x="2508 2551 2564 2594 2622 2649 2680 2699" xml:lang="en" xml:space="preserve" y="1408">Glossary</text>
        <polyline class="pen2" fill="none" points="1688,942 1693,941 1697,940 1701,939 1705,938 1709,936 1713,934 1717,933 1722,931 1725,929 1729,927 1733,925 1737,922 1741,919 1744,916 1748,913 1752,910 1755,907 1758,904 1762,900 1765,897 1768,893 1772,889 1775,885 1778,880 1781,876 1784,872 1790,862 1795,852 1800,842 1806,832 1810,820 1815,809 1819,796 1823,784 1826,771 1830,757 1833,744 1835,729 1838,715 1840,700 1841,685 1843,669 1844,653 1844,637 1845,620"/>
        <polygon class="pen1 brush2" points="1826,626 1844,568 1864,625 1826,626"/>
        <polyline class="pen2" fill="none" points="1906,1035 1948,1012 1969,1000 1990,989 2011,979 2032,969 2053,959 2074,949 2094,941 2114,932 2135,924 2155,916 2175,908 2195,902 2215,895 2233,889 2252,884 2271,878 2289,874 2307,869 2324,865 2341,862 2358,859 2373,857 2389,855 2404,854 2418,853 2432,853 2445,853 2457,854 2469,856 2480,858"/>
        <polygon class="pen1 brush2" points="2484,838 2528,879 2468,873 2484,838"/>
        <text class="font1" fill="rgb(0,0,0)" stroke="none" style="dominant-baseline: alphabetic;" x="2112 2140 2167 2198 2229" xml:lang="en" xml:space="preserve" y="777">scope</text>
        <text class="font1" fill="rgb(0,0,0)" stroke="none" style="dominant-baseline: alphabetic;" x="2260 2275" xml:lang="en" xml:space="preserve" y="777">, </text>
        <text class="font1" fill="rgb(0,0,0)" stroke="none" style="dominant-baseline: alphabetic;" x="2291 2321 2352 2382 2395" xml:lang="en" xml:space="preserve" y="777">goals</text>
        <text class="font1" fill="rgb(0,0,0)" stroke="none" style="dominant-baseline: alphabetic;" x="2423 2438" xml:lang="en" xml:space="preserve" y="777">, </text>
        <text class="font1" fill="rgb(0,0,0)" stroke="none" style="dominant-baseline: alphabetic;" x="2057 2088 2115 2131 2161 2180" xml:lang="en" xml:space="preserve" y="844">actors</text>
        <text class="font1" fill="rgb(0,0,0)" stroke="none" style="dominant-baseline: alphabetic;" x="2208 2223" xml:lang="en" xml:space="preserve" y="844">, </text>
        <text class="font1" fill="rgb(0,0,0)" stroke="none" style="dominant-baseline: alphabetic;" x="2238 2254 2284 2315 2331 2361 2380 2410" xml:lang="en" xml:space="preserve" y="844">features</text>
        <polyline class="pen2" fill="none" points="1688,1175 1692,1181 1696,1187 1701,1192 1706,1198 1716,1209 1728,1221 1742,1232 1756,1243 1772,1255 1790,1266 1808,1277 1827,1288 1848,1300 1869,1311 1892,1322 1915,1332 1940,1343 1965,1354 1992,1364 2019,1374 2047,1384 2076,1395 2106,1404 2136,1413 2168,1423 2199,1432 2232,1440 2265,1449 2300,1457 2334,1465 2368,1473 2404,1480 2440,1487 2476,1494"/>
        <polygon class="pen1 brush2" points="2475,1474 2528,1502 2468,1511 2475,1474"/>
        <text class="font1" fill="rgb(0,0,0)" stroke="none" style="dominant-baseline: alphabetic;" x="2011 2026 2057 2076 2122" xml:lang="en" xml:space="preserve" y="1353">terms</text>
        <text class="font1" fill="rgb(0,0,0)" stroke="none" style="dominant-baseline: alphabetic;" x="2149 2165" xml:lang="en" xml:space="preserve" y="1353">, </text>
        <text class="font1" fill="rgb(0,0,0)" stroke="none" style="dominant-baseline: alphabetic;" x="2180 2210 2226 2241 2260 2273 2303 2334 2349 2380" xml:lang="en" xml:space="preserve" y="1353">attributes</text>
        <text class="font1" fill="rgb(0,0,0)" stroke="none" style="dominant-baseline: alphabetic;" x="2407 2423" xml:lang="en" xml:space="preserve" y="1353">, </text>
        <text class="font1" fill="rgb(0,0,0)" stroke="none" style="dominant-baseline: alphabetic;" x="2189 2217 2247 2260 2272 2303 2333 2349 2361 2392" xml:lang="en" xml:space="preserve" y="1420">validation</text>
        <polyline class="pen2" fill="none" points="1906,2063 1913,2071 1920,2079 1929,2087 1938,2095 1949,2102 1960,2109 1972,2116 1984,2122 1998,2128 2012,2134 2027,2139 2043,2144 2060,2149 2077,2153 2095,2157 2113,2160 2133,2163 2152,2166 2172,2168 2193,2170 2214,2172 2236,2174 2258,2174 2281,2175 2304,2175 2328,2174 2351,2174 2376,2172 2401,2170 2425,2168 2450,2166 2476,2163"/>
        <polygon class="pen1 brush2" points="2469,2145 2528,2156 2474,2183 2469,2145"/>
        <text class="font1" fill="rgb(0,0,0)" stroke="none" style="dominant-baseline: alphabetic;" x="2014 2045 2076" xml:lang="en" xml:space="preserve" y="2241">non</text>
        <text class="font1" fill="rgb(0,0,0)" stroke="none" style="dominant-baseline: alphabetic;" x="2107" xml:lang="en" xml:space="preserve" y="2241">-</text>
        <text class="font1" fill="rgb(0,0,0)" stroke="none" style="dominant-baseline: alphabetic;" x="2125 2141 2172 2202 2230 2245 2258 2288 2319 2349 2362 2377 2396 2427 2457" xml:lang="en" xml:space="preserve" y="2241">functional reqs</text>
        <text class="font1" fill="rgb(0,0,0)" stroke="none" style="dominant-baseline: alphabetic;" x="2485 2501" xml:lang="en" xml:space="preserve" y="2241">, </text>
        <text class="font1" fill="rgb(0,0,0)" stroke="none" style="dominant-baseline: alphabetic;" x="2098 2128 2159 2190 2202 2215 2230 2258 2273 2304 2319 2335 2353 2366 2396 2427 2443 2473" xml:lang="en" xml:space="preserve" y="2307">quality attributes</text>
        <text class="font1" fill="rgb(0,0,0)" stroke="none" style="dominant-baseline: alphabetic;" x="187 206 237 267 298 310 329 360 406 436 467 482" xml:lang="en" xml:space="preserve" y="2538">requirements</text>
        <polygon class="pen1 brush0" points="1256,866 1256,1424 1692,1424 1692,866 1256,866"/>
        <polygon class="pen4 brush1" points="1256,1424 1692,1424 1692,866 1256,866 1256,1424"/>
        <text class="font5" fill="rgb(0,0,0)" stroke="none" style="dominant-baseline: alphabetic;" x="1284 1320 1339 1370 1397 1428 1455 1483 1498 1535 1566 1578" xml:lang="en" xml:space="preserve" y="930">Process Sale</text>
        <text class="font1" fill="rgb(0,0,0)" stroke="none" style="dominant-baseline: alphabetic;" x="1284" xml:lang="en" xml:space="preserve" y="1063">1</text>
        <text class="font1" fill="rgb(0,0,0)" stroke="none" style="dominant-baseline: alphabetic;" x="1315 1330" xml:lang="en" xml:space="preserve" y="1063">. </text>
        <text class="font1" fill="rgb(0,0,0)" stroke="none" style="dominant-baseline: alphabetic;" x="1345 1385 1416 1443 1459 1489 1536 1566 1585" xml:lang="en" xml:space="preserve" y="1063">Customer </text>
        <text class="font1" fill="rgb(0,0,0)" stroke="none" style="dominant-baseline: alphabetic;" x="1284 1314 1333 1352 1364 1391 1422 1450" xml:lang="en" xml:space="preserve" y="1129">arrives </text>
        <text class="font1" fill="rgb(0,0,0)" stroke="none" style="dominant-baseline: alphabetic;" x="1465 1481 1496" xml:lang="en" xml:space="preserve" y="1129">...</text>
        <text class="font1" fill="rgb(0,0,0)" stroke="none" style="dominant-baseline: alphabetic;" x="1284" xml:lang="en" xml:space="preserve" y="1195">2</text>
        <text class="font1" fill="rgb(0,0,0)" stroke="none" style="dominant-baseline: alphabetic;" x="1315 1330" xml:lang="en" xml:space="preserve" y="1195">. </text>
        <text class="font1" fill="rgb(0,0,0)" stroke="none" style="dominant-baseline: alphabetic;" x="1345 1385 1416 1443 1474 1486 1517 1536" xml:lang="en" xml:space="preserve" y="1195">Cashier </text>
        <text class="font1" fill="rgb(0,0,0)" stroke="none" style="dominant-baseline: alphabetic;" x="1284 1330 1360 1388 1418 1446 1461 1492 1523 1562" xml:lang="en" xml:space="preserve" y="1262">makes new </text>
        <text class="font1" fill="rgb(0,0,0)" stroke="none" style="dominant-baseline: alphabetic;" x="1284 1311 1342 1354" xml:lang="en" xml:space="preserve" y="1328">sale</text>
        <text class="font1" fill="rgb(0,0,0)" stroke="none" style="dominant-baseline: alphabetic;" x="1385" xml:lang="en" xml:space="preserve" y="1328">.</text>
        <text class="font1" fill="rgb(0,0,0)" stroke="none" style="dominant-baseline: alphabetic;" x="1284" xml:lang="en" xml:space="preserve" y="1395">3</text>
        <text class="font1" fill="rgb(0,0,0)" stroke="none" style="dominant-baseline: alphabetic;" x="1315 1330 1346 1361 1377" xml:lang="en" xml:space="preserve" y="1395">. ...</text>
    </g>
    <g/>
</svg>
