<svg xmlns="http://www.w3.org/2000/svg" xmlns:xlink="http://www.w3.org/1999/xlink" version="1.1" x="0px" y="0px" viewBox="0 0 64 80" style="enable-background:new 0 0 64 64;" xml:space="preserve"><g><path d="M1,1v62h62V1H1z M61,3v6H3V3H61z M3,61V11h58v50H3z"/><rect x="5" y="5" width="2" height="2"/><rect x="9" y="5" width="2" height="2"/><rect x="13" y="5" width="2" height="2"/><path d="M5,59h26V13H5V59z M7,15h22v42H7V15z"/><rect x="9" y="17" width="18" height="2"/><rect x="13" y="21" width="14" height="2"/><rect x="9" y="21" width="2" height="2"/><rect x="9" y="25" width="18" height="2"/><rect x="9" y="29" width="18" height="2"/><rect x="9" y="33" width="18" height="2"/><rect x="20" y="37" width="7" height="2"/><rect x="9" y="37" width="9" height="2"/><rect x="9" y="41" width="18" height="2"/><rect x="9" y="45" width="18" height="2"/><rect x="9" y="49" width="18" height="2"/><rect x="25" y="53" width="2" height="2"/><rect x="9" y="53" width="14" height="2"/><path d="M33,35h26V13H33V35z M35,15h22v18H35V15z"/><path d="M33,59h26V37H33V59z M35,39h22v18H35V39z"/><path d="M46,41c-3.86,0-7,3.141-7,7s3.14,7,7,7s7-3.141,7-7S49.86,41,46,41z M46,53c-2.757,0-5-2.243-5-5s2.243-5,5-5s5,2.243,5,5   S48.757,53,46,53z"/><path d="M37.178,31h17.644L46,17.138L37.178,31z M40.822,29L46,20.862L51.178,29H40.822z"/></g><text x="0" y="79" fill="#000000" font-size="5px" font-weight="bold" font-family="'Helvetica Neue', Helvetica, Arial-Unicode, Arial, Sans-serif">Created by Eucalyp</text><text x="0" y="84" fill="#000000" font-size="5px" font-weight="bold" font-family="'Helvetica Neue', Helvetica, Arial-Unicode, Arial, Sans-serif">from the Noun Project</text></svg>