<svg xmlns="http://www.w3.org/2000/svg" xmlns:xlink="http://www.w3.org/1999/xlink" version="1.1" x="0px" y="0px" viewBox="0 0 30.407 31.348750000000003" style="enable-background:new 0 0 30.407 25.079;" xml:space="preserve"><g><path d="M10.325,6.072c0-0.515-0.2-0.999-0.566-1.366C9.051,4.002,7.738,4,7.031,4.708l-6.466,6.467   C0.206,11.534,0,12.031,0,12.539s0.206,1.005,0.565,1.364l6.468,6.469c0.365,0.362,0.849,0.563,1.362,0.563s0.997-0.2,1.366-0.566   c0.363-0.364,0.563-0.849,0.563-1.363s-0.2-0.999-0.565-1.364l-5.102-5.102L9.76,7.438C10.124,7.073,10.325,6.589,10.325,6.072z"/><path d="M29.842,11.175l-6.467-6.467c-0.705-0.707-2.018-0.708-2.729,0c-0.364,0.364-0.564,0.849-0.564,1.364   c0,0.518,0.201,1.003,0.564,1.364l5.103,5.103l-5.103,5.102c-0.364,0.364-0.564,0.849-0.564,1.364s0.2,1,0.566,1.366   c0.365,0.363,0.85,0.563,1.363,0.563s0.998-0.2,1.363-0.564l6.467-6.467c0.359-0.359,0.565-0.856,0.565-1.364   S30.201,11.534,29.842,11.175z"/><path d="M18.425,0.068c-1.11-0.301-2.339,0.43-2.624,1.535L10.41,22.395c-0.297,1.143,0.393,2.316,1.537,2.616   c0.175,0.045,0.355,0.068,0.539,0.068c0.979,0,1.832-0.661,2.076-1.607L19.953,2.68c0.145-0.555,0.063-1.132-0.227-1.624   C19.436,0.561,18.971,0.21,18.425,0.068z"/></g><text x="0" y="40.079" fill="#000000" font-size="5px" font-weight="bold" font-family="'Helvetica Neue', Helvetica, Arial-Unicode, Arial, Sans-serif">Created by Yo! Baba</text><text x="0" y="45.079" fill="#000000" font-size="5px" font-weight="bold" font-family="'Helvetica Neue', Helvetica, Arial-Unicode, Arial, Sans-serif">from the Noun Project</text></svg>